{"glyphs":{"0":{"ha":826,"x_min":46,"x_max":782,"o":"m 415 892 q 562 866 494 892 q 678 785 629 840 q 754 645 726 731 q 782 440 782 560 q 752 238 782 324 q 671 95 722 151 q 553 12 619 39 q 414 -15 486 -15 q 267 11 335 -15 q 151 93 200 38 q 74 235 101 149 q 46 440 46 321 q 76 640 46 554 q 158 781 107 725 q 275 864 208 836 q 415 892 342 892 m 257 440 q 270 294 257 353 q 305 201 283 236 q 355 151 326 165 q 415 136 383 136 q 474 151 446 136 q 524 201 503 165 q 558 294 546 236 q 571 440 571 353 q 558 585 571 528 q 524 677 546 643 q 474 726 503 711 q 415 740 446 740 q 355 726 383 740 q 305 678 326 713 q 270 585 283 643 q 257 440 257 528 z "},"1":{"ha":589,"x_min":63,"x_max":478,"o":"m 306 875 l 478 875 l 478 0 l 275 0 l 275 692 l 110 613 l 63 763 l 306 875 z "},"2":{"ha":685,"x_min":49,"x_max":625,"o":"m 307 736 q 224 720 264 736 q 142 668 185 704 l 58 796 q 175 865 110 838 q 338 892 240 892 q 453 872 401 892 q 542 819 506 853 q 598 738 578 785 q 618 635 618 690 q 558 449 618 547 q 379 240 497 350 l 290 157 l 625 157 l 625 0 l 85 0 l 49 135 l 176 263 q 289 381 244 331 q 360 473 333 432 q 399 549 388 514 q 410 617 410 583 q 379 708 410 679 q 307 736 349 736 z "},"3":{"ha":699,"x_min":44,"x_max":625,"o":"m 67 829 q 172 876 115 860 q 308 892 229 892 q 426 874 374 892 q 517 824 479 856 q 574 749 554 792 q 594 658 594 707 q 583 585 594 618 q 551 527 571 553 q 505 483 532 501 q 449 451 478 464 q 576 378 528 435 q 625 243 625 322 q 601 129 625 178 q 533 49 576 81 q 428 1 489 17 q 296 -15 368 -15 q 157 -1 221 -15 q 44 40 93 14 l 88 183 q 170 151 129 164 q 260 139 211 139 q 374 168 333 139 q 414 247 414 197 q 376 330 414 297 q 258 363 339 363 l 160 363 l 160 513 l 229 513 q 346 544 306 513 q 386 633 386 576 q 351 713 386 686 q 268 739 317 739 q 131 693 197 739 l 67 829 z "},"4":{"ha":786,"x_min":28,"x_max":751,"o":"m 379 875 l 628 875 l 628 351 l 751 351 l 751 194 l 628 194 l 628 0 l 431 0 l 431 194 l 28 194 l 28 326 l 379 875 m 351 535 l 235 351 l 431 351 l 431 518 l 439 700 l 436 700 l 351 535 z "},"5":{"ha":742,"x_min":74,"x_max":663,"o":"m 624 878 l 624 721 l 324 718 l 306 561 q 335 564 325 564 q 363 564 346 564 q 478 547 424 564 q 574 497 533 531 q 639 413 615 464 q 663 290 663 361 q 641 172 663 228 q 575 75 619 117 q 463 9 531 33 q 300 -15 394 -15 q 170 -1 226 -15 q 74 33 114 14 l 115 181 q 190 153 151 164 q 278 142 229 142 q 407 181 363 142 q 451 278 451 219 q 399 384 451 349 q 268 419 347 419 q 196 415 232 419 q 128 403 160 410 l 171 875 l 624 878 z "},"6":{"ha":769,"x_min":49,"x_max":721,"o":"m 461 892 q 555 884 510 892 q 642 854 600 876 l 596 703 q 536 728 568 719 q 465 738 504 738 q 381 722 417 738 q 319 677 344 706 q 279 611 294 649 q 260 531 264 574 q 340 574 293 558 q 440 589 388 589 q 554 569 503 589 q 642 511 606 549 q 700 420 679 474 q 721 300 721 367 q 698 173 721 231 q 633 74 675 115 q 533 8 592 32 q 401 -15 474 -15 q 278 6 340 -15 q 164 77 215 28 q 81 208 113 126 q 49 408 49 289 q 85 628 49 536 q 179 778 121 719 q 311 864 238 836 q 461 892 385 892 m 258 313 q 295 186 258 238 q 399 135 332 135 q 448 148 426 135 q 485 183 469 161 q 508 233 500 204 q 515 293 515 261 q 483 401 515 365 q 393 436 450 436 q 326 422 354 436 q 283 390 299 408 q 265 360 272 378 q 258 313 258 342 z "},"7":{"ha":688,"x_min":65,"x_max":638,"o":"m 638 875 l 638 747 l 271 -35 l 92 42 l 440 732 l 65 732 l 65 875 l 638 875 z "},"8":{"ha":729,"x_min":39,"x_max":690,"o":"m 374 892 q 504 872 449 892 q 596 819 560 851 q 650 747 632 788 q 668 663 668 706 q 625 541 668 590 q 515 464 582 492 q 580 435 549 453 q 636 392 611 418 q 676 333 661 367 q 690 256 690 299 q 667 145 690 194 q 599 60 643 96 q 494 4 556 24 q 358 -15 433 -15 q 226 3 285 -15 q 125 56 167 22 q 61 135 83 89 q 39 238 39 182 q 52 314 39 281 q 88 373 65 347 q 142 417 111 399 q 206 449 172 436 q 108 525 147 475 q 68 642 68 575 q 88 732 68 688 q 145 812 107 776 q 241 869 183 847 q 374 892 299 892 m 267 656 q 299 576 267 608 q 376 532 331 543 q 441 578 414 546 q 468 646 468 610 q 441 719 468 694 q 367 744 414 744 q 294 718 321 744 q 267 656 267 692 m 356 368 q 276 321 307 353 q 246 243 246 289 q 278 164 246 193 q 368 135 311 135 q 451 167 417 135 q 485 244 485 199 q 448 324 485 292 q 356 368 411 357 z "},"9":{"ha":760,"x_min":53,"x_max":711,"o":"m 322 -15 q 194 -3 249 -15 q 103 31 140 8 l 144 176 q 214 150 175 161 q 301 139 253 139 q 444 197 396 139 q 500 351 493 256 q 436 315 475 331 q 346 300 397 300 q 226 319 281 300 q 134 375 172 339 q 74 465 96 411 q 53 586 53 518 q 76 711 53 654 q 142 808 99 768 q 247 869 185 847 q 386 892 308 892 q 507 869 449 892 q 610 796 565 846 q 683 667 656 746 q 711 476 711 588 q 681 259 711 351 q 599 106 651 167 q 475 15 546 44 q 322 -15 404 -15 m 500 574 q 469 694 500 646 q 385 742 438 742 q 294 706 329 742 q 258 594 258 671 q 295 486 258 519 q 388 453 332 453 q 442 465 417 453 q 482 494 468 476 q 500 574 500 517 z "},"\u0000":{"ha":0,"x_min":0,"x_max":0,"o":""},"\r":{"ha":1425,"x_min":0,"x_max":0,"o":""}," ":{"ha":322,"x_min":0,"x_max":0,"o":""},"!":{"ha":371,"x_min":74,"x_max":297,"o":"m 79 986 l 293 986 l 265 318 l 104 318 l 79 986 m 74 99 q 83 143 74 122 q 108 179 92 164 q 144 203 124 194 q 186 211 164 211 q 228 203 208 211 q 264 179 249 194 q 288 143 279 164 q 297 99 297 122 q 264 16 297 47 q 186 -15 231 -15 q 108 16 142 -15 q 74 99 74 47 z "},"\"":{"ha":526,"x_min":57,"x_max":469,"o":"m 299 899 l 469 899 l 447 569 l 319 569 l 299 899 m 57 899 l 228 899 l 207 569 l 79 569 l 57 899 z "},"#":{"ha":857,"x_min":49,"x_max":814,"o":"m 358 624 l 325 419 l 499 419 l 531 624 l 358 624 m 597 1028 l 718 1028 l 672 746 l 814 746 l 814 624 l 653 624 l 619 419 l 767 419 l 767 297 l 603 297 l 554 0 l 432 0 l 479 297 l 306 297 l 257 0 l 136 0 l 182 297 l 49 297 l 49 419 l 204 419 l 238 624 l 97 624 l 97 746 l 258 746 l 301 1028 l 422 1028 l 378 744 l 553 744 l 597 1028 z "},"%":{"ha":1110,"x_min":38,"x_max":1071,"o":"m 197 0 l 804 1042 l 922 1042 l 315 0 l 197 0 m 1071 251 q 1056 150 1071 199 q 1010 65 1040 101 q 933 6 979 28 q 828 -15 888 -15 q 725 6 769 -15 q 651 65 681 28 q 605 150 621 101 q 589 251 589 199 q 606 352 589 304 q 653 437 622 400 q 730 495 685 474 q 832 517 775 517 q 933 495 889 517 q 1008 437 978 474 q 1055 352 1039 400 q 1071 251 1071 304 m 915 251 q 911 306 915 279 q 897 355 907 333 q 872 390 888 376 q 832 403 856 403 q 792 390 808 403 q 765 357 776 378 q 749 308 754 336 q 744 251 744 281 q 749 193 744 221 q 763 144 753 165 q 789 111 774 124 q 828 99 804 99 q 894 142 872 99 q 915 251 915 186 m 519 776 q 504 675 519 724 q 458 590 489 626 q 382 531 428 553 q 276 510 336 510 q 174 531 218 510 q 99 590 129 553 q 53 675 69 626 q 38 776 38 724 q 54 877 38 829 q 102 962 71 925 q 178 1020 133 999 q 281 1042 224 1042 q 382 1020 338 1042 q 457 962 426 999 q 503 877 488 925 q 519 776 519 829 m 364 776 q 360 826 364 801 q 346 871 356 851 q 320 902 336 890 q 281 914 304 914 q 214 872 235 914 q 193 776 193 831 q 197 718 193 746 q 212 669 201 690 q 238 636 222 649 q 276 624 253 624 q 342 667 321 624 q 364 776 364 711 z "},"&":{"ha":938,"x_min":21,"x_max":951,"o":"m 21 261 q 38 356 21 314 q 82 431 54 399 q 146 488 110 464 q 219 526 182 511 q 164 604 189 558 q 139 703 139 650 q 210 869 139 807 q 410 931 282 931 q 516 913 468 931 q 598 866 564 896 q 651 797 632 836 q 669 713 669 757 q 658 650 669 679 q 628 596 647 621 q 585 552 610 571 q 533 521 560 533 l 436 618 q 476 657 460 633 q 492 714 492 681 q 467 774 492 750 q 407 797 442 797 q 346 774 367 797 q 325 713 325 751 q 347 636 325 674 q 421 546 369 599 l 636 324 q 672 396 654 356 q 701 476 689 436 l 850 417 q 801 300 829 357 q 749 210 772 243 l 951 0 l 717 0 l 633 85 q 528 17 596 49 q 357 -15 460 -15 q 211 6 274 -15 q 106 65 149 28 q 42 152 64 101 q 21 261 21 203 m 217 268 q 262 170 217 206 q 382 135 307 135 q 474 155 436 135 q 528 193 513 175 l 313 415 q 247 363 276 399 q 217 268 217 328 z "},"'":{"ha":285,"x_min":57,"x_max":228,"o":"m 57 899 l 228 899 l 207 569 l 79 569 l 57 899 z "},"(":{"ha":432,"x_min":56,"x_max":390,"o":"m 279 -212 q 194 -93 235 -157 q 124 45 154 -29 q 74 204 93 119 q 56 388 56 289 q 74 572 56 485 q 122 734 92 658 q 194 873 153 810 q 282 986 236 936 l 390 925 q 328 809 357 871 q 278 679 300 747 q 244 538 257 611 q 232 388 232 465 q 243 241 232 310 q 275 108 254 172 q 325 -19 296 43 q 390 -144 354 -81 l 279 -212 z "},")":{"ha":432,"x_min":42,"x_max":376,"o":"m 150 986 q 238 873 196 936 q 310 734 279 810 q 358 572 340 658 q 376 388 376 485 q 358 204 376 289 q 308 45 339 119 q 237 -93 278 -29 q 153 -212 196 -157 l 42 -144 q 107 -19 78 -81 q 157 108 136 43 q 189 241 178 172 q 200 388 200 310 q 188 538 200 465 q 153 679 175 611 q 103 809 132 747 q 42 925 75 871 l 150 986 z "},"*":{"ha":532,"x_min":21,"x_max":525,"o":"m 78 567 l 142 650 l 225 714 l 122 714 l 21 746 l 58 860 l 157 831 l 249 772 l 211 869 l 211 971 l 336 971 l 336 869 l 300 772 l 390 829 l 488 860 l 525 746 l 426 713 l 321 714 l 404 651 l 467 567 l 367 493 l 307 578 l 274 679 l 239 576 l 176 493 l 78 567 z "},"+":{"ha":767,"x_min":42,"x_max":725,"o":"m 725 483 l 725 353 l 449 353 l 449 76 l 318 76 l 318 353 l 42 353 l 42 483 l 318 483 l 318 760 l 449 760 l 449 483 l 725 483 z "},",":{"ha":342,"x_min":47,"x_max":300,"o":"m 153 -15 q 76 29 103 -4 q 49 111 49 63 q 80 193 49 158 q 169 228 111 228 q 215 218 192 228 q 258 188 239 208 q 288 133 276 167 q 300 51 300 99 q 283 -47 300 0 q 239 -133 267 -93 q 176 -203 211 -172 q 104 -253 140 -235 l 47 -175 q 127 -110 92 -151 q 172 -19 163 -68 l 153 -15 z "},"-":{"ha":389,"x_min":42,"x_max":347,"o":"m 347 476 l 347 325 l 42 325 l 42 476 l 347 476 z "},".":{"ha":335,"x_min":63,"x_max":300,"o":"m 63 107 q 98 194 63 160 q 182 228 133 228 q 265 194 231 228 q 300 107 300 160 q 265 17 300 50 q 182 -15 231 -15 q 98 17 133 -15 q 63 107 63 50 z "},"/":{"ha":507,"x_min":-1,"x_max":511,"o":"m -1 -151 l 365 1042 l 511 1042 l 144 -151 l -1 -151 z "},":":{"ha":351,"x_min":57,"x_max":294,"o":"m 57 107 q 92 194 57 160 q 176 228 128 228 q 260 194 225 228 q 294 107 294 160 q 260 17 294 50 q 176 -15 225 -15 q 92 17 128 -15 q 57 107 57 50 m 57 532 q 92 619 57 585 q 176 653 128 653 q 260 619 225 653 q 294 532 294 585 q 260 442 294 475 q 176 410 225 410 q 92 442 128 410 q 57 532 57 475 z "},";":{"ha":349,"x_min":47,"x_max":300,"o":"m 56 532 q 91 619 56 585 q 175 653 126 653 q 258 619 224 653 q 293 532 293 585 q 258 442 293 475 q 175 410 224 410 q 91 442 126 410 q 56 532 56 475 m 153 -15 q 76 29 103 -4 q 49 111 49 63 q 80 193 49 158 q 169 228 111 228 q 215 218 192 228 q 258 188 239 208 q 288 133 276 167 q 300 51 300 99 q 283 -47 300 0 q 239 -133 267 -93 q 176 -203 211 -172 q 104 -253 140 -235 l 47 -175 q 127 -110 92 -151 q 172 -19 163 -68 l 153 -15 z "},"<":{"ha":661,"x_min":78,"x_max":583,"o":"m 78 299 l 78 407 l 583 685 l 583 529 l 238 353 l 583 176 l 583 21 l 78 299 z "},"=":{"ha":615,"x_min":42,"x_max":574,"o":"m 42 310 l 42 181 l 574 181 l 574 310 l 42 310 m 574 600 l 574 471 l 42 471 l 42 600 l 574 600 z "},">":{"ha":661,"x_min":78,"x_max":583,"o":"m 78 21 l 78 176 l 424 353 l 78 529 l 78 685 l 583 407 l 583 299 l 78 21 z "},"?":{"ha":614,"x_min":67,"x_max":565,"o":"m 290 993 q 408 975 357 993 q 494 926 458 957 q 547 851 529 894 q 565 757 565 807 q 557 688 565 719 q 532 626 549 656 q 490 568 515 597 q 433 506 465 539 q 382 454 403 474 q 349 419 361 435 q 331 391 336 404 q 326 360 326 378 q 333 319 326 338 l 167 299 q 158 333 163 313 q 154 375 154 353 q 181 472 154 432 q 254 561 208 513 q 301 613 282 590 q 333 656 321 636 q 351 697 346 676 q 357 743 357 718 q 331 806 357 781 q 260 832 304 832 q 197 822 225 832 q 138 789 169 813 l 67 925 q 166 974 110 956 q 290 993 222 993 m 151 99 q 160 143 151 122 q 185 179 169 164 q 222 203 201 194 q 264 211 242 211 q 306 203 286 211 q 342 179 326 194 q 366 143 357 164 q 375 99 375 122 q 342 16 375 47 q 264 -15 308 -15 q 185 16 219 -15 q 151 99 151 47 z "},"@":{"ha":1342,"x_min":58,"x_max":1288,"o":"m 765 74 l 763 74 q 668 8 722 32 q 543 -15 614 -15 q 403 35 453 -15 q 353 158 353 85 q 382 275 353 226 q 459 354 411 324 q 570 399 507 385 q 700 413 633 413 l 769 413 l 774 440 q 775 451 775 446 q 775 460 775 456 q 751 518 775 496 q 681 540 728 540 q 593 524 640 540 q 499 483 546 508 l 456 610 q 583 663 518 643 q 724 682 649 682 q 824 670 779 682 q 901 634 869 658 q 951 572 933 610 q 969 483 969 535 q 965 432 969 458 l 929 208 q 925 175 925 189 q 979 126 925 126 q 1040 151 1011 126 q 1092 218 1069 175 q 1128 321 1115 261 q 1142 453 1142 381 q 1115 606 1142 535 q 1039 728 1089 676 q 916 810 989 781 q 750 840 843 840 q 515 795 618 840 q 342 671 413 750 q 236 483 272 592 q 200 249 200 375 q 240 46 200 128 q 344 -86 281 -36 q 488 -158 408 -136 q 647 -181 568 -181 q 799 -167 736 -181 q 917 -129 861 -153 l 950 -240 q 806 -285 892 -265 q 625 -304 721 -304 q 417 -275 519 -304 q 235 -181 315 -246 q 107 -15 156 -117 q 58 235 58 88 q 114 542 58 407 q 263 769 169 676 q 482 912 357 863 q 744 961 607 961 q 976 923 875 961 q 1147 818 1078 885 q 1252 660 1217 751 q 1288 463 1288 569 q 1256 253 1288 340 q 1170 109 1224 165 q 1048 26 1117 53 q 906 -1 979 -1 q 851 2 879 -1 q 803 14 822 6 l 765 74 m 753 301 l 717 301 q 592 265 633 301 q 551 178 551 229 q 574 131 551 144 q 628 117 597 117 q 688 130 661 117 q 731 161 715 143 l 753 301 z "},"[":{"ha":410,"x_min":83,"x_max":375,"o":"m 83 -226 l 83 1011 l 375 1011 l 375 892 l 244 892 l 244 -106 l 375 -106 l 375 -226 l 83 -226 z "},"\\":{"ha":425,"x_min":0,"x_max":425,"o":"m 286 -122 l 0 1000 l 139 1000 l 425 -122 l 286 -122 z "},"]":{"ha":410,"x_min":35,"x_max":326,"o":"m 35 -226 l 35 -106 l 165 -106 l 165 892 l 35 892 l 35 1011 l 326 1011 l 326 -226 l 35 -226 z "},"^":{"ha":701,"x_min":63,"x_max":639,"o":"m 639 564 l 506 564 l 350 888 l 197 564 l 63 564 l 294 1000 l 404 1000 l 639 564 z "},"_":{"ha":522,"x_min":7,"x_max":515,"o":"m 515 -236 l 515 -347 l 7 -347 l 7 -236 l 515 -236 z "},"{":{"ha":451,"x_min":42,"x_max":421,"o":"m 421 860 q 363 851 385 860 q 328 822 340 843 q 311 765 315 801 q 307 675 307 729 l 307 546 q 281 444 307 482 q 219 388 256 406 l 219 383 q 281 311 256 360 q 307 188 307 263 l 307 60 q 312 -14 307 14 q 329 -58 317 -42 q 364 -81 342 -74 q 421 -92 386 -87 l 421 -215 q 235 -153 306 -212 q 164 10 164 -94 l 164 188 q 135 289 164 253 q 42 328 106 325 l 42 440 q 134 478 104 449 q 164 576 164 508 l 164 771 q 181 853 164 815 q 230 919 197 892 q 310 963 263 947 q 421 979 358 979 l 421 860 z "},"|":{"ha":346,"x_min":100,"x_max":246,"o":"m 100 -319 l 100 1042 l 246 1042 l 246 -319 l 100 -319 z "},"}":{"ha":451,"x_min":31,"x_max":410,"o":"m 31 979 q 217 917 146 976 q 288 754 288 858 l 288 576 q 317 475 288 511 q 410 436 346 439 l 410 324 q 317 285 347 315 q 288 188 288 256 l 288 -7 q 271 -90 288 -51 q 222 -156 254 -128 q 141 -199 189 -183 q 31 -215 93 -215 l 31 -96 q 88 -87 65 -96 q 122 -58 110 -79 q 140 -1 135 -37 q 144 89 144 35 l 144 218 q 170 320 144 282 q 232 376 196 358 l 232 381 q 170 453 196 404 q 144 576 144 501 l 144 704 q 140 778 144 750 q 122 822 135 806 q 88 844 110 838 q 31 856 65 851 l 31 979 z "},"~":{"ha":797,"x_min":58,"x_max":739,"o":"m 58 278 q 117 446 58 389 q 264 503 175 503 q 344 489 307 503 q 413 458 381 475 q 476 428 446 442 q 536 414 506 414 q 601 501 601 414 l 739 501 q 694 338 739 400 q 557 276 649 276 q 474 291 514 276 q 398 322 435 306 q 327 353 361 339 q 263 368 293 368 q 213 342 231 368 q 196 278 196 315 l 58 278 z "},"…":{"ha":1219,"x_min":63,"x_max":1192,"o":"m 63 107 q 98 194 63 160 q 182 228 133 228 q 265 194 231 228 q 300 107 300 160 q 265 17 300 50 q 182 -15 231 -15 q 98 17 133 -15 q 63 107 63 50 m 508 107 q 544 194 508 160 q 628 228 579 228 q 711 194 676 228 q 746 107 746 160 q 711 17 746 50 q 628 -15 676 -15 q 544 17 579 -15 q 508 107 508 50 m 954 107 q 990 194 954 160 q 1074 228 1025 228 q 1157 194 1122 228 q 1192 107 1192 160 q 1157 17 1192 50 q 1074 -15 1122 -15 q 990 17 1025 -15 q 954 107 954 50 z "},"–":{"ha":685,"x_min":42,"x_max":643,"o":"m 643 388 l 643 261 l 42 261 l 42 388 l 643 388 z "},"—":{"ha":1258,"x_min":42,"x_max":1217,"o":"m 1217 386 l 1217 261 l 42 261 l 42 386 l 1217 386 z "},"‘":{"ha":329,"x_min":28,"x_max":281,"o":"m 175 819 q 252 775 225 808 q 279 693 279 742 q 248 611 279 646 q 158 576 217 576 q 112 586 135 576 q 70 617 89 596 q 40 671 51 638 q 28 753 28 704 q 44 851 28 804 q 89 937 61 897 q 152 1007 117 976 q 224 1057 188 1038 l 281 979 q 201 914 236 956 q 156 824 165 872 l 175 819 z "},"’":{"ha":329,"x_min":49,"x_max":301,"o":"m 154 814 q 77 858 104 825 q 50 940 50 892 q 81 1022 50 988 q 171 1057 113 1057 q 217 1047 193 1057 q 259 1017 240 1038 q 290 962 278 996 q 301 881 301 928 q 285 783 301 829 q 240 697 268 736 q 177 626 213 657 q 106 576 142 594 l 49 654 q 128 719 93 678 q 174 810 164 761 l 154 814 z "},"÷":{"ha":768,"x_min":56,"x_max":713,"o":"m 279 103 q 288 141 279 122 q 310 174 296 160 q 342 196 324 188 q 382 204 361 204 q 453 174 424 204 q 483 103 483 143 q 453 29 483 58 q 382 0 424 0 q 310 29 340 0 q 279 103 279 58 m 279 578 q 288 616 279 597 q 310 649 296 635 q 342 671 324 663 q 382 679 361 679 q 453 649 424 679 q 483 578 483 618 q 453 504 483 533 q 382 475 424 475 q 310 504 340 475 q 279 578 279 533 m 713 396 l 713 283 l 56 283 l 56 396 l 713 396 z "},"−":{"ha":657,"x_min":56,"x_max":601,"o":"m 601 493 l 601 381 l 56 381 l 56 493 l 601 493 z "},"×":{"ha":639,"x_min":56,"x_max":583,"o":"m 56 240 l 229 414 l 56 589 l 146 679 l 319 506 l 493 678 l 583 588 l 410 414 l 583 242 l 493 151 l 319 324 l 146 150 l 56 240 z "},"$":{"ha":779,"x_min":83,"x_max":693,"o":"m 335 1014 l 467 1014 l 467 861 q 555 840 508 854 q 644 800 601 826 l 590 653 q 501 690 554 674 q 400 706 449 706 q 326 687 356 706 q 297 635 297 668 q 322 583 297 603 q 414 540 347 563 l 478 519 q 638 421 582 485 q 693 263 693 357 q 678 178 693 218 q 633 104 664 138 q 556 48 603 71 q 446 17 510 25 l 446 -144 l 314 -144 l 314 14 q 88 93 186 26 l 156 236 q 256 187 204 203 q 357 171 307 171 q 453 195 428 171 q 479 249 479 219 q 458 300 479 278 q 374 343 436 322 l 303 367 q 219 403 258 381 q 149 456 179 425 q 101 526 118 486 q 83 617 83 565 q 103 712 83 668 q 156 788 122 756 q 235 838 189 819 q 335 860 281 857 l 335 1014 z "},"A":{"ha":906,"x_min":22,"x_max":881,"o":"m 340 875 l 565 875 l 881 0 l 657 0 l 597 188 l 303 188 l 243 0 l 22 0 l 340 875 m 349 340 l 549 340 l 515 446 q 481 556 499 497 q 451 663 464 614 l 449 663 q 417 557 435 614 q 382 446 399 500 l 349 340 z "},"B":{"ha":807,"x_min":92,"x_max":754,"o":"m 421 875 q 644 814 561 875 q 728 644 728 753 q 713 572 728 604 q 675 517 699 540 q 623 479 651 494 q 567 458 594 464 q 638 435 604 451 q 698 394 672 419 q 739 332 724 368 q 754 249 754 296 q 731 149 754 194 q 663 70 707 103 q 555 19 618 38 q 414 0 492 0 l 92 0 l 92 875 l 421 875 m 303 531 l 388 531 q 479 558 447 531 q 511 629 511 585 q 481 694 511 671 q 389 717 450 717 l 303 717 l 303 531 m 303 158 l 385 158 q 495 183 453 158 q 538 268 538 208 q 496 349 538 324 q 386 374 454 374 l 303 374 l 303 158 z "},"C":{"ha":797,"x_min":53,"x_max":761,"o":"m 540 146 q 646 157 603 146 q 718 186 689 168 l 760 35 q 670 1 732 18 q 518 -15 608 -15 q 329 17 415 -15 q 182 108 243 49 q 87 251 121 167 q 53 439 53 335 q 85 624 53 540 q 178 767 118 708 q 326 859 239 826 q 521 892 413 892 q 670 874 613 892 q 761 839 728 857 l 714 685 q 638 717 682 703 q 542 731 594 731 q 438 715 486 731 q 353 664 389 699 q 296 574 317 629 q 275 440 275 519 q 295 311 275 367 q 351 219 315 256 q 435 164 388 182 q 540 146 483 146 z "},"D":{"ha":914,"x_min":92,"x_max":864,"o":"m 404 875 q 593 849 508 875 q 738 769 678 822 q 831 638 799 717 q 864 456 864 560 q 825 253 864 339 q 719 112 786 168 q 561 28 651 56 q 369 0 471 0 l 92 0 l 92 875 l 404 875 m 303 161 l 357 161 q 465 175 413 161 q 556 223 517 189 q 618 314 594 257 q 642 456 642 371 q 571 648 642 582 q 379 714 500 714 l 303 714 l 303 161 z "},"E":{"ha":726,"x_min":92,"x_max":679,"o":"m 92 875 l 675 875 l 675 714 l 303 714 l 303 535 l 639 535 l 639 375 l 303 375 l 303 161 l 679 161 l 679 0 l 92 0 l 92 875 z "},"F":{"ha":696,"x_min":92,"x_max":661,"o":"m 661 875 l 661 714 l 303 714 l 303 500 l 631 500 l 631 340 l 303 340 l 303 0 l 92 0 l 92 875 l 661 875 z "},"G":{"ha":883,"x_min":53,"x_max":817,"o":"m 524 892 q 672 878 607 892 q 786 840 736 864 l 743 701 q 644 735 696 725 q 543 746 592 746 q 439 728 488 746 q 353 672 390 710 q 296 575 317 633 q 275 436 275 517 q 340 210 275 289 q 525 132 404 132 q 578 135 554 132 q 614 143 601 138 l 614 333 l 476 333 l 476 489 l 817 489 l 817 39 q 689 0 763 15 q 524 -15 615 -15 q 338 14 424 -15 q 189 101 253 43 q 89 242 125 158 q 53 436 53 326 q 89 631 53 546 q 189 774 125 717 q 338 862 253 832 q 524 892 424 892 z "},"H":{"ha":910,"x_min":92,"x_max":818,"o":"m 92 0 l 92 875 l 303 875 l 303 535 l 607 535 l 607 875 l 818 875 l 818 0 l 607 0 l 607 371 l 303 371 l 303 0 l 92 0 z "},"I":{"ha":394,"x_min":92,"x_max":303,"o":"m 303 875 l 303 0 l 92 0 l 92 875 l 303 875 z "},"J":{"ha":414,"x_min":-28,"x_max":322,"o":"m 322 875 l 322 160 q 319 58 322 103 q 306 -24 315 13 q 281 -92 297 -61 q 242 -149 265 -122 q 123 -222 193 -201 q -28 -243 53 -243 l -28 -83 q 31 -73 7 -83 q 71 -49 56 -62 q 103 7 96 -28 q 111 86 111 42 l 111 875 l 322 875 z "},"K":{"ha":867,"x_min":92,"x_max":871,"o":"m 92 0 l 92 875 l 303 875 l 303 517 l 581 875 l 843 875 l 528 496 l 871 0 l 613 0 l 374 365 l 303 289 l 303 0 l 92 0 z "},"L":{"ha":656,"x_min":92,"x_max":649,"o":"m 92 875 l 303 875 l 303 164 l 649 164 l 649 0 l 92 0 l 92 875 z "},"M":{"ha":1168,"x_min":89,"x_max":1079,"o":"m 149 875 l 413 875 l 507 568 q 527 503 517 540 q 548 427 538 467 q 567 347 558 388 q 582 272 576 307 l 589 272 q 605 353 594 310 q 626 438 615 397 q 646 514 636 479 q 661 568 656 549 l 753 875 l 1017 875 l 1079 0 l 882 0 l 867 296 q 863 387 864 338 q 860 488 861 436 q 860 589 860 539 q 860 681 860 639 l 856 681 q 834 586 846 635 q 810 490 822 538 q 785 397 797 442 q 760 314 772 351 l 663 0 l 504 0 l 403 313 q 378 397 390 351 q 353 490 365 442 q 331 586 342 538 q 311 681 319 635 l 307 681 q 308 584 308 636 q 306 480 307 532 q 302 380 304 428 q 299 296 300 332 l 283 0 l 89 0 l 149 875 z "},"N":{"ha":931,"x_min":92,"x_max":839,"o":"m 92 875 l 286 875 l 478 582 q 577 420 529 503 q 651 271 625 338 l 654 271 q 646 438 647 354 q 644 606 644 522 l 644 875 l 839 875 l 839 0 l 644 0 l 442 299 q 350 449 392 372 q 279 610 308 525 l 276 610 q 285 442 283 522 q 286 278 286 361 l 286 0 l 92 0 l 92 875 z "},"O":{"ha":986,"x_min":53,"x_max":933,"o":"m 496 892 q 671 860 590 892 q 810 771 751 829 q 901 628 868 713 q 933 436 933 543 q 899 249 933 332 q 806 106 865 165 q 666 16 747 47 q 490 -15 585 -15 q 315 15 396 -15 q 176 103 235 46 q 85 245 118 161 q 53 436 53 329 q 86 624 53 540 q 179 768 119 708 q 320 860 239 828 q 496 892 401 892 m 275 436 q 292 307 275 363 q 340 215 310 251 q 410 161 371 179 q 496 143 450 143 q 580 161 540 143 q 649 215 619 179 q 694 307 678 251 q 711 436 711 363 q 694 569 711 513 q 646 661 676 625 q 576 715 615 697 q 490 733 536 733 q 406 715 446 733 q 338 658 367 696 q 292 565 308 621 q 275 436 275 510 z "},"P":{"ha":796,"x_min":92,"x_max":754,"o":"m 92 875 l 408 875 q 551 857 488 875 q 660 804 615 839 q 730 720 706 769 q 754 607 754 671 q 725 475 754 531 q 647 383 696 419 q 531 328 597 346 q 392 311 465 311 l 303 311 l 303 0 l 92 0 l 92 875 m 303 471 l 379 471 q 439 478 410 471 q 490 499 468 485 q 524 538 511 514 q 538 596 538 561 q 497 686 538 656 q 388 717 456 717 l 303 717 l 303 471 z "},"Q":{"ha":988,"x_min":53,"x_max":960,"o":"m 494 892 q 669 860 589 892 q 808 771 750 829 q 900 628 867 713 q 933 436 933 543 q 863 169 933 282 q 675 -7 792 57 l 521 -93 q 574 -105 547 -96 q 631 -123 601 -114 q 692 -140 660 -132 q 764 -147 725 -147 q 835 -136 801 -147 q 888 -108 869 -125 l 960 -249 q 895 -287 943 -265 q 772 -308 847 -308 q 657 -295 710 -308 q 557 -266 604 -282 q 466 -237 510 -250 q 376 -224 422 -224 q 300 -233 332 -224 q 233 -262 268 -242 l 165 -135 l 394 -3 q 252 48 315 11 q 144 141 189 85 q 76 272 100 197 q 53 436 53 346 q 86 624 53 540 q 178 768 119 708 q 319 860 238 828 q 494 892 400 892 m 275 438 q 292 308 275 364 q 340 214 310 251 q 409 158 369 176 q 493 139 449 139 q 580 158 540 139 q 649 216 619 178 q 694 310 678 254 q 711 438 711 365 q 694 569 711 514 q 647 662 676 625 q 577 716 617 699 q 492 733 538 733 q 408 715 447 733 q 339 659 368 696 q 292 567 310 622 q 275 438 275 511 z "},"R":{"ha":810,"x_min":92,"x_max":789,"o":"m 92 875 l 439 875 q 572 853 514 875 q 667 794 629 832 q 725 707 706 757 q 744 600 744 657 q 728 505 744 546 q 688 433 713 464 q 633 383 663 403 q 579 353 604 364 l 789 0 l 546 0 l 390 315 l 303 315 l 303 0 l 92 0 l 92 875 m 303 475 l 367 475 q 483 504 439 475 q 528 599 528 533 q 492 685 528 653 q 388 717 456 717 l 303 717 l 303 475 z "},"S":{"ha":760,"x_min":56,"x_max":707,"o":"m 388 892 q 546 873 479 892 q 661 828 613 854 l 614 674 q 505 717 560 701 q 400 733 450 733 q 303 710 336 733 q 269 647 269 686 q 301 583 269 603 q 400 540 333 563 l 482 514 q 572 473 531 497 q 644 417 614 449 q 690 344 674 385 q 707 257 707 304 q 686 152 707 201 q 623 65 665 103 q 516 6 581 28 q 364 -15 451 -15 q 208 2 282 -15 q 71 51 133 19 l 118 206 q 235 160 178 176 q 354 143 292 143 q 460 167 428 143 q 493 233 493 192 q 488 261 493 247 q 466 289 482 275 q 422 316 450 303 q 349 343 393 329 l 281 367 q 190 407 232 385 q 119 460 149 429 q 72 531 89 490 q 56 626 56 571 q 77 732 56 683 q 141 816 99 781 q 245 872 183 851 q 388 892 307 892 z "},"T":{"ha":710,"x_min":14,"x_max":697,"o":"m 697 875 l 697 711 l 458 711 l 458 0 l 247 0 l 247 711 l 14 711 l 14 875 l 697 875 z "},"U":{"ha":928,"x_min":92,"x_max":836,"o":"m 92 875 l 303 875 l 303 351 q 343 199 303 253 q 468 144 383 144 q 588 198 551 144 q 625 335 625 251 l 625 875 l 836 875 l 836 353 q 468 -15 836 -15 q 192 76 293 -15 q 92 360 92 168 l 92 875 z "},"V":{"ha":867,"x_min":13,"x_max":858,"o":"m 236 875 l 351 510 q 396 360 372 443 q 438 194 419 278 l 442 194 q 483 360 460 278 q 528 511 506 442 l 642 875 l 858 875 l 557 0 l 322 0 l 13 875 l 236 875 z "},"W":{"ha":1226,"x_min":21,"x_max":1208,"o":"m 236 875 l 314 510 q 342 365 331 435 q 363 218 354 294 l 365 218 q 390 367 376 294 q 419 510 404 439 l 503 875 l 729 875 l 814 510 q 843 367 831 439 q 867 218 856 296 l 869 218 q 893 369 879 296 q 921 510 907 442 l 996 875 l 1208 875 l 996 0 l 763 0 l 675 372 q 643 516 658 443 q 614 664 628 589 l 611 664 q 583 517 599 589 q 553 374 568 444 l 468 0 l 238 0 l 21 875 l 236 875 z "},"X":{"ha":907,"x_min":21,"x_max":886,"o":"m 282 875 l 457 582 l 628 875 l 872 875 l 592 444 l 886 0 l 635 0 l 443 307 l 264 0 l 21 0 l 304 444 l 33 875 l 282 875 z "},"Y":{"ha":846,"x_min":13,"x_max":836,"o":"m 250 875 l 426 553 l 604 875 l 836 875 l 526 360 l 526 0 l 315 0 l 315 360 l 13 875 l 250 875 z "},"Z":{"ha":757,"x_min":35,"x_max":715,"o":"m 701 875 l 701 757 l 297 158 l 715 158 l 715 0 l 35 0 l 35 132 l 431 717 l 49 717 l 49 875 l 701 875 z "},"`":{"ha":301,"x_min":21,"x_max":282,"o":"m 21 1000 l 185 1000 l 282 771 l 168 771 l 21 1000 z "},"a":{"ha":711,"x_min":42,"x_max":642,"o":"m 93 608 q 222 662 150 642 q 368 682 293 682 q 567 622 492 682 q 642 432 642 563 l 642 0 l 485 0 l 467 67 l 461 67 q 384 8 433 31 q 268 -15 335 -15 q 169 1 211 -15 q 99 46 126 18 q 56 112 71 74 q 42 193 42 150 q 67 293 42 251 q 137 361 93 335 q 240 400 181 388 q 365 413 299 413 l 435 413 l 435 449 q 408 506 435 486 q 333 526 382 526 q 251 514 292 526 q 163 474 211 501 l 93 608 m 436 288 l 390 286 q 325 278 351 285 q 283 260 299 271 q 260 235 267 250 q 253 206 253 221 q 278 147 253 163 q 338 131 304 131 q 398 150 371 131 q 436 193 425 169 l 436 288 z "},"b":{"ha":801,"x_min":83,"x_max":756,"o":"m 756 331 q 731 186 756 250 q 665 77 707 122 q 565 8 622 32 q 439 -15 507 -15 q 328 5 374 -15 q 250 61 282 25 l 244 61 l 232 0 l 83 0 l 83 993 l 288 993 l 288 621 q 363 665 319 647 q 458 682 406 682 q 676 590 597 682 q 756 331 756 497 m 544 325 q 506 476 544 426 q 396 526 467 526 q 333 509 363 526 q 289 475 303 492 l 289 175 q 329 146 304 157 q 382 135 354 135 q 443 146 414 135 q 495 181 472 157 q 531 240 518 204 q 544 325 544 276 z "},"c":{"ha":650,"x_min":46,"x_max":608,"o":"m 440 135 q 519 147 485 135 q 571 168 553 158 l 608 29 q 529 0 585 15 q 407 -15 474 -15 q 263 7 329 -15 q 149 73 197 29 q 74 181 101 117 q 46 331 46 246 q 72 473 46 408 q 147 584 99 538 q 263 656 196 631 q 411 682 329 682 q 505 672 454 682 q 608 635 556 663 l 565 494 q 503 522 538 511 q 435 533 469 533 q 304 484 354 533 q 254 336 254 435 q 271 242 254 281 q 314 180 288 204 q 374 145 340 156 q 440 135 407 135 z "},"d":{"ha":794,"x_min":46,"x_max":711,"o":"m 506 993 l 711 993 l 711 0 l 569 0 l 549 72 l 542 72 q 474 13 522 42 q 349 -15 426 -15 q 228 9 283 -15 q 132 78 172 33 q 69 188 92 124 q 46 333 46 253 q 67 477 46 413 q 127 587 88 542 q 225 657 167 632 q 357 682 283 682 q 444 669 403 682 q 506 636 485 656 l 506 993 m 506 486 q 467 518 493 503 q 408 533 440 533 q 349 523 376 533 q 299 489 321 513 q 265 428 278 465 q 253 338 253 392 q 294 184 253 233 q 400 135 335 135 q 467 156 440 135 q 506 200 494 176 l 506 486 z "},"e":{"ha":728,"x_min":44,"x_max":682,"o":"m 682 274 l 251 274 l 251 268 q 306 167 251 199 q 442 135 360 135 q 542 146 499 135 q 614 172 585 157 l 651 31 q 556 -1 614 13 q 415 -15 499 -15 q 273 5 340 -15 q 155 67 206 25 q 74 172 104 108 q 44 325 44 236 q 69 470 44 404 q 138 583 93 536 q 244 656 182 631 q 381 682 306 682 q 600 599 518 682 q 682 361 682 515 l 682 274 m 472 414 q 467 460 472 438 q 449 499 461 482 q 419 527 438 517 q 374 538 400 538 q 293 503 325 538 q 256 411 261 469 l 472 414 z "},"f":{"ha":531,"x_min":21,"x_max":551,"o":"m 358 993 q 463 979 413 993 q 551 943 514 965 l 511 811 q 466 830 489 822 q 415 838 443 838 q 349 813 371 838 q 328 726 328 788 l 328 667 l 485 667 l 485 519 l 328 519 l 328 0 l 124 0 l 124 519 l 21 519 l 21 667 l 124 667 l 124 765 q 189 935 124 878 q 358 993 254 993 z "},"g":{"ha":800,"x_min":33,"x_max":761,"o":"m 74 438 q 96 537 74 492 q 158 615 118 582 q 251 665 197 647 q 368 682 304 682 q 422 678 392 682 q 478 667 453 674 l 761 667 l 761 540 l 697 540 l 619 553 q 645 500 635 532 q 656 436 656 468 q 636 340 656 383 q 579 265 617 297 q 488 216 542 233 q 365 199 433 199 q 336 200 350 199 q 308 204 322 201 q 290 189 299 199 q 282 164 282 179 q 295 135 282 146 q 349 124 308 124 l 489 124 q 589 113 543 124 q 667 76 635 101 q 718 12 700 51 q 736 -83 736 -28 q 710 -183 736 -137 q 635 -262 683 -229 q 519 -315 588 -296 q 367 -333 450 -333 q 122 -279 211 -333 q 33 -125 33 -225 q 63 -47 33 -81 q 147 7 93 -12 q 110 45 131 18 q 89 113 89 72 q 117 194 89 160 q 189 249 146 228 q 151 276 171 258 q 113 317 131 293 q 85 370 96 340 q 74 438 74 400 m 261 -29 q 232 -54 244 -37 q 219 -96 219 -71 q 252 -156 219 -131 q 372 -181 285 -181 q 494 -153 454 -181 q 533 -90 533 -126 q 511 -44 533 -58 q 436 -29 489 -29 l 261 -29 m 456 440 q 430 515 456 489 q 365 540 404 540 q 300 515 325 540 q 275 440 275 489 q 301 366 275 392 q 365 340 326 340 q 431 366 406 340 q 456 440 456 392 z "},"h":{"ha":807,"x_min":83,"x_max":725,"o":"m 289 0 l 83 0 l 83 993 l 289 993 l 289 614 q 378 663 326 643 q 488 682 429 682 q 593 664 549 682 q 667 613 638 646 q 710 536 696 581 q 725 438 725 492 l 725 0 l 519 0 l 519 404 q 492 499 519 471 q 417 526 465 526 q 349 511 383 526 q 289 471 314 496 l 289 0 z "},"i":{"ha":397,"x_min":90,"x_max":307,"o":"m 96 0 l 96 667 l 301 667 l 301 0 l 96 0 m 199 797 q 118 827 146 797 q 90 899 90 857 q 119 970 90 940 q 199 1000 147 1000 q 278 971 250 1000 q 307 899 307 942 q 279 826 307 856 q 199 797 251 797 z "},"j":{"ha":392,"x_min":-62,"x_max":303,"o":"m 90 667 l 296 667 l 296 92 q 283 -54 296 14 q 238 -180 269 -122 q 155 -283 207 -237 q 24 -361 103 -328 l -62 -224 q 6 -182 -24 -204 q 53 -126 35 -160 q 81 -42 72 -92 q 90 83 90 8 l 90 667 m 194 797 q 114 827 142 797 q 86 899 86 857 q 115 970 86 940 q 194 1000 143 1000 q 274 971 246 1000 q 303 899 303 942 q 275 826 303 856 q 194 797 247 797 z "},"k":{"ha":761,"x_min":83,"x_max":756,"o":"m 288 217 l 288 0 l 83 0 l 83 993 l 288 993 l 288 414 l 496 667 l 744 667 l 493 386 l 756 0 l 514 0 l 338 268 l 288 217 z "},"l":{"ha":374,"x_min":85,"x_max":288,"o":"m 85 0 l 85 993 l 288 993 l 288 0 l 85 0 z "},"m":{"ha":1200,"x_min":81,"x_max":1119,"o":"m 286 0 l 81 0 l 81 667 l 240 667 l 264 583 q 361 656 308 629 q 479 682 414 682 q 675 581 622 682 q 776 654 719 626 q 896 682 832 682 q 1061 624 1003 682 q 1119 456 1119 567 l 1119 0 l 914 0 l 914 435 q 892 501 914 476 q 832 526 869 526 q 763 510 799 526 q 703 461 726 493 l 703 0 l 497 0 l 497 435 q 475 501 497 476 q 415 526 453 526 q 346 507 382 526 q 286 456 310 488 l 286 0 z "},"n":{"ha":797,"x_min":81,"x_max":717,"o":"m 286 0 l 81 0 l 81 667 l 240 667 l 264 583 q 364 656 308 629 q 485 682 419 682 q 657 621 597 682 q 717 442 717 560 l 717 0 l 511 0 l 511 421 q 488 498 511 469 q 421 526 465 526 q 351 507 388 526 q 286 456 314 488 l 286 0 z "},"o":{"ha":786,"x_min":46,"x_max":740,"o":"m 740 338 q 713 190 740 256 q 639 79 686 125 q 528 9 592 33 q 390 -15 464 -15 q 253 8 317 -15 q 144 74 190 31 q 72 180 99 117 q 46 324 46 243 q 73 475 46 408 q 147 588 100 542 q 258 658 194 633 q 396 682 322 682 q 533 660 469 682 q 642 594 596 638 q 714 486 688 550 q 740 338 740 422 m 529 331 q 518 423 529 385 q 488 485 507 461 q 443 521 468 510 q 392 532 418 532 q 341 522 365 532 q 298 489 317 513 q 268 427 279 465 q 257 331 257 389 q 299 182 257 229 q 394 135 340 135 q 445 145 421 135 q 488 178 469 156 q 518 239 507 201 q 529 331 529 276 z "},"p":{"ha":792,"x_min":81,"x_max":746,"o":"m 407 -15 q 339 -8 372 -15 q 285 11 306 0 l 285 -319 l 81 -319 l 81 667 l 233 667 l 253 596 q 347 659 293 636 q 464 682 400 682 q 581 658 528 682 q 669 591 633 635 q 726 485 706 547 q 746 346 746 422 q 719 192 746 260 q 647 79 693 125 q 540 9 601 33 q 407 -15 478 -15 m 406 529 q 332 510 364 529 q 285 471 300 490 l 285 165 q 381 135 319 135 q 436 146 408 135 q 485 181 464 157 q 521 244 507 206 q 535 340 535 283 q 501 474 535 419 q 406 529 468 529 z "},"q":{"ha":794,"x_min":46,"x_max":711,"o":"m 506 29 q 438 -3 481 8 q 354 -15 394 -15 q 224 10 281 -15 q 127 82 167 36 q 67 192 88 128 q 46 333 46 256 q 67 472 46 408 q 128 583 88 536 q 226 656 168 629 q 357 682 283 682 q 458 665 408 682 q 543 613 508 647 l 554 667 l 711 667 l 711 -319 l 506 -319 l 506 29 m 506 479 q 463 516 490 499 q 396 533 436 533 q 341 522 367 533 q 295 488 315 511 q 264 427 275 464 q 253 338 253 390 q 297 185 253 236 q 401 135 340 135 q 464 148 438 135 q 506 179 490 161 l 506 479 z "},"r":{"ha":550,"x_min":81,"x_max":564,"o":"m 81 0 l 81 667 l 242 667 l 263 550 q 293 599 275 575 q 336 642 311 624 q 394 671 361 660 q 467 682 426 682 q 523 674 497 682 q 564 657 549 667 l 531 497 q 492 513 515 506 q 433 519 468 519 q 327 478 369 519 q 285 333 285 436 l 285 0 l 81 0 z "},"s":{"ha":617,"x_min":49,"x_max":569,"o":"m 492 496 q 413 524 454 514 q 332 535 371 535 q 274 522 296 535 q 251 488 251 510 q 273 448 251 464 q 358 414 294 432 l 400 401 q 526 328 483 376 q 569 206 569 281 q 549 115 569 156 q 490 44 528 74 q 398 0 451 15 q 279 -15 344 -15 q 153 -3 208 -15 q 51 33 99 10 l 96 182 q 180 148 136 161 q 269 135 224 135 q 344 150 322 135 q 365 186 365 165 q 360 208 365 199 q 343 225 356 217 q 308 241 331 233 q 249 260 285 249 l 206 272 q 86 345 124 299 q 49 471 49 392 q 67 555 49 517 q 119 622 85 593 q 202 666 153 650 q 315 682 251 682 q 434 670 379 682 q 533 638 489 658 l 492 496 z "},"t":{"ha":539,"x_min":14,"x_max":528,"o":"m 493 519 l 322 519 l 322 238 q 342 174 322 192 q 399 156 363 156 q 454 161 426 156 q 497 176 482 167 l 528 36 q 456 12 504 24 q 354 0 408 0 q 172 50 225 0 q 118 201 118 100 l 118 519 l 14 519 l 14 667 l 118 667 l 118 869 l 322 869 l 322 667 l 493 667 l 493 519 z "},"u":{"ha":790,"x_min":81,"x_max":710,"o":"m 504 667 l 710 667 l 710 0 l 558 0 l 538 72 l 532 72 q 499 43 518 58 q 452 15 479 28 q 390 -7 425 1 q 311 -15 356 -15 q 142 44 203 -15 q 81 221 81 104 l 81 667 l 286 667 l 286 238 q 312 162 286 186 q 378 138 338 138 q 458 158 426 138 q 504 200 489 178 l 504 667 z "},"v":{"ha":724,"x_min":13,"x_max":713,"o":"m 494 667 l 713 667 l 479 0 l 235 0 l 13 667 l 232 667 l 313 375 l 358 143 l 364 143 l 410 375 l 494 667 z "},"w":{"ha":1076,"x_min":13,"x_max":1065,"o":"m 13 667 l 226 667 l 301 335 l 326 151 l 332 151 l 361 335 l 433 667 l 649 667 l 721 335 l 750 151 l 756 151 l 783 335 l 857 667 l 1065 667 l 888 0 l 646 0 l 568 344 l 540 504 l 511 344 l 435 0 l 192 0 l 13 667 z "},"x":{"ha":743,"x_min":13,"x_max":732,"o":"m 496 342 l 732 0 l 496 0 l 440 83 l 367 215 l 299 85 l 246 0 l 13 0 l 246 342 l 26 667 l 256 667 l 311 581 l 376 454 l 438 581 l 489 667 l 714 667 l 496 342 z "},"y":{"ha":750,"x_min":10,"x_max":742,"o":"m 10 667 l 235 667 l 344 369 l 389 207 l 394 207 l 436 372 l 532 667 l 742 667 l 501 -12 q 456 -124 482 -69 q 391 -225 429 -178 q 299 -311 353 -272 q 168 -375 244 -350 l 83 -215 q 219 -132 165 -186 q 290 -7 272 -78 l 293 4 l 10 667 z "},"z":{"ha":586,"x_min":28,"x_max":558,"o":"m 551 540 l 254 147 l 558 147 l 558 0 l 28 0 l 28 131 l 325 519 l 44 519 l 44 667 l 551 667 l 551 540 z "},"€":{"ha":794,"x_min":7,"x_max":754,"o":"m 533 146 q 639 157 596 146 q 711 186 682 168 l 753 35 q 663 1 725 18 q 511 -15 601 -15 q 249 63 357 -15 q 104 289 142 140 l 7 289 l 7 388 l 89 388 q 88 413 88 400 q 88 439 88 425 l 88 457 l 7 457 l 7 556 l 97 556 q 235 804 126 717 q 514 892 343 892 q 663 874 606 892 q 754 839 721 857 l 707 685 q 631 717 675 703 q 535 731 588 731 q 463 722 497 731 q 401 692 429 713 q 353 639 374 672 q 321 556 332 606 l 640 556 l 640 457 l 310 457 l 310 440 q 310 413 310 425 q 311 388 310 400 l 640 388 l 640 289 l 332 289 q 413 179 360 213 q 533 146 467 146 z "},"‚":{"ha":342,"x_min":49,"x_max":314,"o":"m 157 -14 q 78 27 108 -4 q 49 107 49 58 q 81 191 49 154 q 172 228 114 228 q 219 218 194 228 q 265 187 244 208 q 300 131 286 165 q 314 50 314 97 q 297 -48 314 -1 q 253 -134 281 -94 q 190 -204 225 -174 q 118 -253 154 -235 l 61 -175 q 141 -110 106 -151 q 186 -19 176 -68 l 157 -14 z "},"ƒ":{"ha":843,"x_min":38,"x_max":781,"o":"m 426 35 q 380 -118 414 -57 q 301 -218 346 -179 q 203 -276 256 -257 q 104 -300 151 -294 l 38 -131 q 163 -72 115 -112 q 221 50 210 -31 l 289 521 l 207 521 l 207 667 l 311 667 l 325 765 q 422 969 344 896 q 625 1042 499 1042 q 713 1029 669 1042 q 781 1001 757 1017 l 735 864 q 644 886 690 886 q 565 853 592 886 q 528 749 538 819 l 517 667 l 679 667 l 679 519 l 494 519 l 426 35 z "},"„":{"ha":703,"x_min":49,"x_max":675,"o":"m 157 -14 q 78 27 108 -4 q 49 107 49 58 q 81 191 49 154 q 172 228 114 228 q 219 218 194 228 q 265 187 244 208 q 300 131 286 165 q 314 50 314 97 q 297 -48 314 -1 q 253 -134 281 -94 q 190 -204 225 -174 q 118 -253 154 -235 l 61 -175 q 141 -110 106 -151 q 186 -19 176 -68 l 157 -14 m 518 -14 q 440 27 469 -4 q 410 107 410 58 q 442 191 410 154 q 533 228 475 228 q 581 218 556 228 q 626 187 606 208 q 661 131 647 165 q 675 50 675 97 q 658 -48 675 -1 q 614 -134 642 -94 q 551 -204 586 -174 q 479 -253 515 -235 l 422 -175 q 502 -110 467 -151 q 547 -19 538 -68 l 518 -14 z "},"†":{"ha":599,"x_min":42,"x_max":557,"o":"m 557 667 l 557 508 l 403 508 l 403 -56 l 197 -56 l 197 508 l 42 508 l 42 667 l 197 667 l 197 875 l 403 875 l 403 667 l 557 667 z "},"‡":{"ha":599,"x_min":42,"x_max":557,"o":"m 557 297 l 557 139 l 403 139 l 403 -56 l 197 -56 l 197 139 l 42 139 l 42 297 l 197 297 l 197 508 l 42 508 l 42 667 l 197 667 l 197 875 l 403 875 l 403 667 l 557 667 l 557 508 l 403 508 l 403 297 l 557 297 z "},"ˆ":{"ha":522,"x_min":28,"x_max":494,"o":"m 494 758 l 347 758 l 264 861 l 181 758 l 28 758 l 208 958 l 318 958 l 494 758 z "},"‰":{"ha":1692,"x_min":38,"x_max":1654,"o":"m 197 0 l 804 1042 l 922 1042 l 315 0 l 197 0 m 1071 251 q 1056 150 1071 199 q 1010 65 1040 101 q 933 6 979 28 q 828 -15 888 -15 q 725 6 769 -15 q 651 65 681 28 q 605 150 621 101 q 589 251 589 199 q 606 352 589 304 q 653 437 622 400 q 730 495 685 474 q 832 517 775 517 q 933 495 889 517 q 1008 437 978 474 q 1055 352 1039 400 q 1071 251 1071 304 m 915 251 q 911 306 915 279 q 897 355 907 333 q 872 390 888 376 q 832 403 856 403 q 792 390 808 403 q 765 357 776 378 q 749 308 754 336 q 744 251 744 281 q 749 193 744 221 q 763 144 753 165 q 789 111 774 124 q 828 99 804 99 q 894 142 872 99 q 915 251 915 186 m 519 776 q 504 675 519 724 q 458 590 489 626 q 382 531 428 553 q 276 510 336 510 q 174 531 218 510 q 99 590 129 553 q 53 675 69 626 q 38 776 38 724 q 54 877 38 829 q 102 962 71 925 q 178 1020 133 999 q 281 1042 224 1042 q 382 1020 338 1042 q 457 962 426 999 q 503 877 488 925 q 519 776 519 829 m 364 776 q 360 826 364 801 q 346 871 356 851 q 320 902 336 890 q 281 914 304 914 q 214 872 235 914 q 193 776 193 831 q 197 718 193 746 q 212 669 201 690 q 238 636 222 649 q 276 624 253 624 q 342 667 321 624 q 364 776 364 711 m 1654 251 q 1639 150 1654 199 q 1593 65 1624 101 q 1517 6 1563 28 q 1411 -15 1471 -15 q 1308 6 1353 -15 q 1234 65 1264 28 q 1188 150 1204 101 q 1172 251 1172 199 q 1189 352 1172 304 q 1237 437 1206 400 q 1313 495 1268 474 q 1415 517 1358 517 q 1517 495 1472 517 q 1592 437 1561 474 q 1638 352 1622 400 q 1654 251 1654 304 m 1499 251 q 1494 306 1499 279 q 1481 355 1490 333 q 1455 390 1471 376 q 1415 403 1439 403 q 1376 390 1392 403 q 1349 357 1360 378 q 1333 308 1338 336 q 1328 251 1328 281 q 1332 193 1328 221 q 1347 144 1336 165 q 1372 111 1357 124 q 1411 99 1388 99 q 1477 142 1456 99 q 1499 251 1499 186 z "},"Š":{"ha":760,"x_min":56,"x_max":707,"o":"m 388 892 q 546 873 479 892 q 661 828 613 854 l 614 674 q 505 717 560 701 q 400 733 450 733 q 303 710 336 733 q 269 647 269 686 q 301 583 269 603 q 400 540 333 563 l 482 514 q 573 474 532 499 q 644 417 614 450 q 690 344 674 385 q 707 257 707 304 q 686 152 707 201 q 623 65 665 103 q 516 6 581 28 q 364 -15 451 -15 q 208 2 282 -15 q 71 51 133 19 l 118 206 q 235 160 178 176 q 354 143 292 143 q 460 167 428 143 q 493 233 493 192 q 487 260 493 247 q 465 287 481 274 q 421 314 449 300 q 349 343 393 328 l 281 367 q 190 406 231 383 q 119 458 149 428 q 72 530 89 489 q 56 626 56 571 q 77 732 56 683 q 141 816 99 781 q 245 872 183 851 q 388 892 307 892 m 150 1131 l 303 1131 l 386 1042 l 469 1131 l 617 1131 l 461 958 l 310 958 l 150 1131 z "},"‹":{"ha":407,"x_min":36,"x_max":375,"o":"m 375 551 l 214 329 l 375 106 l 214 106 l 36 329 l 214 551 l 375 551 z "},"Œ":{"ha":1238,"x_min":53,"x_max":1190,"o":"m 490 -15 q 310 15 390 -15 q 172 103 229 46 q 83 245 114 161 q 53 436 53 329 q 85 624 53 540 q 174 768 117 708 q 314 860 232 828 q 496 892 396 892 q 642 875 572 892 l 1186 875 l 1186 714 l 814 714 l 814 535 l 1150 535 l 1150 375 l 814 375 l 814 161 l 1190 161 l 1190 0 l 636 0 q 565 -12 601 -8 q 490 -15 529 -15 m 490 733 q 406 715 446 733 q 338 658 367 696 q 292 565 308 621 q 275 436 275 510 q 292 307 275 363 q 340 215 310 251 q 410 161 371 179 q 496 143 450 143 q 552 148 525 143 q 603 167 579 153 l 603 707 q 490 733 554 733 z "},"Ž":{"ha":757,"x_min":35,"x_max":715,"o":"m 701 875 l 701 757 l 297 158 l 715 158 l 715 0 l 35 0 l 35 132 l 431 717 l 49 717 l 49 875 l 701 875 m 143 1131 l 296 1131 l 379 1042 l 463 1131 l 610 1131 l 454 958 l 303 958 l 143 1131 z "},"“":{"ha":676,"x_min":28,"x_max":628,"o":"m 175 819 q 252 775 225 808 q 279 693 279 742 q 249 611 279 646 q 161 576 219 576 q 114 586 138 576 q 72 617 90 596 q 40 671 53 638 q 28 753 28 704 q 44 851 28 804 q 89 937 61 897 q 152 1007 117 976 q 224 1057 188 1038 l 281 979 q 201 914 236 956 q 156 824 165 872 l 175 819 m 522 819 q 599 775 572 808 q 626 693 626 742 q 597 611 626 646 q 508 576 567 576 q 461 586 485 576 q 419 617 438 596 q 388 671 400 638 q 375 753 375 704 q 392 851 375 804 q 436 937 408 897 q 499 1007 464 976 q 571 1057 535 1038 l 628 979 q 548 914 583 956 q 503 824 513 872 l 522 819 z "},"”":{"ha":676,"x_min":49,"x_max":649,"o":"m 154 814 q 77 858 104 825 q 50 940 50 892 q 80 1022 50 988 q 168 1057 110 1057 q 215 1047 190 1057 q 258 1017 239 1038 q 289 962 276 996 q 301 881 301 928 q 285 783 301 829 q 240 697 268 736 q 177 626 213 657 q 106 576 142 594 l 49 654 q 128 719 93 678 q 174 810 164 761 l 154 814 m 501 814 q 424 858 451 825 q 397 940 397 892 q 427 1022 397 988 q 515 1057 457 1057 q 562 1047 538 1057 q 605 1017 586 1038 q 636 962 624 996 q 649 881 649 928 q 632 783 649 829 q 588 697 615 736 q 524 626 560 657 q 453 576 489 594 l 396 654 q 476 719 440 678 q 521 810 511 761 l 501 814 z "},"•":{"ha":483,"x_min":54,"x_max":429,"o":"m 54 383 q 69 458 54 424 q 108 517 83 492 q 167 556 133 542 q 242 571 201 571 q 315 556 281 571 q 375 517 350 542 q 415 457 400 492 q 429 383 429 422 q 415 309 429 343 q 375 250 400 275 q 316 210 350 225 q 242 196 282 196 q 167 210 201 196 q 108 250 133 225 q 69 309 83 275 q 54 383 54 343 z "},"˜":{"ha":561,"x_min":56,"x_max":506,"o":"m 56 758 q 91 901 56 851 q 188 950 126 950 q 240 940 214 950 q 288 917 265 929 q 328 895 310 906 q 363 885 347 885 q 398 908 390 885 q 407 958 406 931 l 504 958 q 471 815 506 861 q 374 769 436 769 q 314 779 340 769 q 266 801 288 789 q 227 824 244 814 q 194 833 210 833 q 163 813 172 833 q 153 758 154 792 l 56 758 z "},"™":{"ha":1031,"x_min":56,"x_max":996,"o":"m 431 875 l 431 788 l 299 788 l 299 381 l 185 381 l 185 788 l 56 788 l 56 875 l 431 875 m 501 875 l 647 875 l 690 717 q 701 676 696 699 q 712 628 707 653 q 721 578 717 603 q 728 532 725 553 l 732 532 q 747 622 738 572 q 769 718 757 672 l 810 875 l 956 875 l 996 381 l 888 381 l 879 549 q 876 594 878 567 q 874 651 875 622 q 873 708 874 681 q 872 754 872 735 l 871 754 q 858 699 865 731 q 842 635 850 667 q 826 577 833 604 q 815 538 819 550 l 771 381 l 686 381 l 639 538 q 628 575 635 550 q 614 631 621 600 q 599 694 607 661 q 588 754 592 726 l 585 754 q 584 701 585 729 q 583 644 583 672 q 581 590 582 615 q 578 549 579 565 l 568 381 l 463 381 l 501 875 z "},"š":{"ha":617,"x_min":49,"x_max":569,"o":"m 492 496 q 413 524 454 514 q 332 535 371 535 q 274 522 296 535 q 251 488 251 510 q 273 448 251 464 q 358 414 294 432 l 400 401 q 526 328 483 376 q 569 206 569 281 q 549 115 569 156 q 490 44 528 74 q 398 0 451 15 q 279 -15 344 -15 q 153 -3 208 -15 q 51 33 99 10 l 96 182 q 180 148 136 161 q 269 135 224 135 q 344 150 322 135 q 365 186 365 165 q 360 208 365 199 q 343 225 356 217 q 308 241 331 233 q 249 260 285 249 l 206 272 q 86 345 124 299 q 49 471 49 392 q 67 555 49 517 q 119 622 85 593 q 202 666 153 650 q 315 682 251 682 q 434 670 379 682 q 533 638 489 658 l 492 496 m 67 958 l 214 958 l 297 856 l 381 958 l 533 958 l 353 758 l 243 758 l 67 958 z "},"›":{"ha":407,"x_min":32,"x_max":371,"o":"m 32 106 l 193 328 l 32 551 l 193 551 l 371 328 l 193 106 l 32 106 z "},"œ":{"ha":1176,"x_min":54,"x_max":1165,"o":"m 1165 274 l 735 274 l 735 268 q 789 167 735 199 q 925 135 843 135 q 1025 146 982 135 q 1097 172 1068 157 l 1135 31 q 1040 -1 1097 13 q 899 -15 982 -15 q 746 13 817 -15 q 633 97 675 42 q 533 15 593 44 q 397 -15 472 -15 q 260 8 324 -15 q 151 74 197 31 q 80 180 106 117 q 54 324 54 243 q 81 475 54 408 q 153 588 107 542 q 263 658 200 633 q 400 682 326 682 q 538 652 475 682 q 640 569 601 622 q 735 652 676 622 q 864 682 793 682 q 1083 599 1001 682 q 1165 361 1165 515 l 1165 274 m 538 331 q 526 423 538 385 q 496 485 515 461 q 451 521 476 510 q 400 532 426 532 q 349 522 374 532 q 306 489 325 513 q 276 427 288 465 q 265 331 265 389 q 307 182 265 229 q 403 135 349 135 q 453 145 429 135 q 497 178 478 156 q 526 239 515 201 q 538 331 538 276 m 956 414 q 950 460 956 438 q 933 499 944 482 q 902 527 921 517 q 857 538 883 538 q 776 503 808 538 q 739 411 744 469 l 956 414 z "},"ž":{"ha":586,"x_min":28,"x_max":558,"o":"m 551 540 l 254 147 l 558 147 l 558 0 l 28 0 l 28 131 l 325 519 l 44 519 l 44 667 l 551 667 l 551 540 m 74 958 l 221 958 l 304 856 l 388 958 l 540 958 l 360 758 l 250 758 l 74 958 z "},"Ÿ":{"ha":846,"x_min":13,"x_max":836,"o":"m 250 875 l 426 553 l 604 875 l 836 875 l 526 360 l 526 0 l 315 0 l 315 360 l 13 875 l 250 875 m 192 1039 q 219 1104 192 1078 q 286 1131 246 1131 q 353 1104 326 1131 q 379 1039 379 1078 q 353 971 379 999 q 286 943 326 943 q 219 971 246 943 q 192 1039 192 999 m 476 1039 q 503 1104 476 1078 q 571 1131 531 1131 q 638 1104 611 1131 q 664 1039 664 1078 q 638 971 664 999 q 571 943 611 943 q 503 971 531 943 q 476 1039 476 999 z "},"¡":{"ha":371,"x_min":74,"x_max":297,"o":"m 106 347 l 267 347 l 292 -321 l 78 -321 l 106 347 m 74 567 q 107 649 74 618 q 185 681 140 681 q 263 649 229 681 q 297 567 297 618 q 288 522 297 543 q 263 486 279 501 q 227 463 247 471 q 185 454 207 454 q 142 463 163 454 q 107 486 122 471 q 83 522 92 501 q 74 567 74 543 z "},"¢":{"ha":664,"x_min":56,"x_max":618,"o":"m 450 232 q 528 242 494 232 q 579 263 561 251 l 618 126 q 572 106 603 117 q 501 89 542 96 l 501 -32 l 342 -32 l 342 88 q 226 124 279 97 q 135 194 174 151 q 76 295 97 236 q 56 428 56 354 q 76 554 56 496 q 133 657 96 613 q 224 731 171 701 q 342 772 276 761 l 342 892 l 501 892 l 501 772 q 558 757 529 767 q 618 732 588 747 l 576 596 q 514 621 549 611 q 444 631 479 631 q 314 581 364 631 q 264 433 264 532 q 281 340 264 378 q 324 277 297 301 q 383 242 350 253 q 450 232 417 232 z "},"£":{"ha":740,"x_min":69,"x_max":674,"o":"m 111 0 l 69 125 q 180 218 146 161 q 196 354 214 275 l 78 354 l 78 497 l 179 497 q 169 556 174 524 q 164 619 164 588 q 186 731 164 681 q 248 817 208 782 q 343 872 288 853 q 467 892 399 892 q 523 888 494 892 q 576 878 551 885 q 622 865 601 872 q 654 849 642 857 l 613 704 q 553 728 586 718 q 481 738 521 738 q 431 726 453 738 q 393 695 408 714 q 369 653 378 676 q 361 604 361 629 q 365 547 361 568 q 375 497 368 525 l 578 497 l 578 354 l 392 354 q 386 243 397 290 q 339 164 375 196 l 340 158 l 674 158 l 674 0 l 111 0 z "},"¤":{"ha":731,"x_min":42,"x_max":689,"o":"m 133 78 l 42 171 l 156 281 q 127 347 136 311 q 118 424 118 383 q 154 563 118 507 l 42 674 l 135 765 l 244 650 q 303 674 271 665 q 367 682 335 682 q 431 674 400 682 q 488 650 461 667 l 596 765 l 689 674 l 572 563 q 611 424 611 500 q 600 344 611 382 q 572 279 589 307 l 689 169 l 596 78 l 483 193 q 363 163 431 163 q 299 172 331 163 q 244 196 267 181 l 133 78 m 464 424 q 439 527 464 490 q 365 564 414 564 q 292 529 318 564 q 265 424 265 494 q 292 318 265 356 q 365 281 319 281 q 435 313 407 281 q 464 424 464 346 z "},"¥":{"ha":846,"x_min":26,"x_max":822,"o":"m 781 333 l 781 219 l 526 219 l 526 0 l 315 0 l 315 219 l 58 219 l 58 333 l 315 333 l 315 365 l 261 456 l 58 456 l 58 569 l 206 569 l 26 875 l 250 875 l 426 525 l 604 875 l 822 875 l 639 569 l 781 569 l 781 456 l 581 456 l 526 365 l 526 333 l 781 333 z "},"¦":{"ha":368,"x_min":111,"x_max":257,"o":"m 111 528 l 111 1042 l 257 1042 l 257 528 l 111 528 m 111 -250 l 111 261 l 257 261 l 257 -250 l 111 -250 z "},"§":{"ha":715,"x_min":49,"x_max":667,"o":"m 96 106 q 194 65 142 78 q 297 51 246 51 q 372 71 350 51 q 393 117 393 90 q 366 161 393 144 q 274 199 339 178 l 225 214 q 49 408 49 269 q 76 514 49 468 q 138 588 104 560 q 104 693 104 629 q 123 777 104 739 q 178 843 142 815 q 266 887 214 871 q 385 903 318 903 q 515 889 453 903 q 617 851 576 875 l 575 710 q 489 744 535 733 q 401 756 443 756 q 333 740 358 756 q 307 697 307 725 q 313 672 307 683 q 333 651 318 661 q 374 631 349 642 q 440 608 400 621 l 489 593 q 620 517 574 565 q 667 393 667 469 q 658 336 667 363 q 637 288 650 310 q 607 249 624 265 q 575 221 590 232 q 597 122 597 181 q 577 31 597 72 q 520 -39 557 -10 q 433 -83 483 -68 q 321 -99 382 -99 q 51 -43 157 -99 l 96 106 m 490 363 q 485 391 490 379 q 467 414 481 403 q 431 436 454 425 q 374 460 408 447 l 301 486 q 274 496 289 490 q 250 507 258 501 q 231 481 239 496 q 224 449 224 465 q 251 396 224 417 q 336 356 278 375 l 408 333 q 439 323 424 328 q 467 311 454 318 q 490 363 490 335 z "},"¨":{"ha":567,"x_min":42,"x_max":525,"o":"m 42 861 q 70 929 42 900 q 139 958 99 958 q 208 929 181 958 q 235 861 235 900 q 208 791 235 819 q 139 763 181 763 q 70 791 99 763 q 42 861 42 819 m 332 861 q 360 929 332 900 q 429 958 389 958 q 498 929 471 958 q 525 861 525 900 q 498 791 525 819 q 429 763 471 763 q 360 791 389 763 q 332 861 332 819 z "},"©":{"ha":979,"x_min":50,"x_max":929,"o":"m 525 271 q 581 276 554 271 q 635 297 607 282 l 658 215 q 590 192 626 200 q 518 185 554 185 q 420 200 465 185 q 340 246 375 215 q 286 323 306 276 q 267 431 267 369 q 285 533 267 488 q 336 610 303 578 q 415 659 369 642 q 517 676 461 676 q 586 671 553 676 q 654 649 619 665 l 631 565 q 576 585 603 579 q 525 590 550 590 q 420 549 460 590 q 381 433 381 508 q 393 356 381 388 q 426 306 406 325 q 473 279 447 288 q 525 271 499 271 m 492 881 q 660 852 581 881 q 799 768 739 824 q 894 628 858 713 q 929 435 929 544 q 894 243 929 326 q 798 103 858 160 q 658 17 738 46 q 489 -12 578 -12 q 322 16 401 -12 q 181 101 242 44 q 85 240 121 157 q 50 435 50 324 q 86 626 50 543 q 183 766 122 710 q 324 851 243 822 q 492 881 404 881 m 492 813 q 353 788 418 813 q 238 716 288 764 q 160 598 189 668 q 131 435 131 528 q 159 268 131 339 q 237 150 188 197 q 351 79 286 103 q 489 56 415 56 q 628 80 563 56 q 742 152 693 104 q 820 271 792 200 q 849 435 849 342 q 820 600 849 529 q 743 718 792 671 q 630 789 694 765 q 492 813 565 813 z "},"ª":{"ha":500,"x_min":42,"x_max":431,"o":"m 75 776 q 158 810 111 797 q 253 824 204 824 q 383 785 335 824 q 431 661 431 746 l 431 381 l 329 381 l 317 424 l 314 424 q 263 385 294 400 q 189 371 231 371 q 78 410 114 371 q 42 506 42 449 q 58 572 42 544 q 103 616 75 599 q 170 641 132 633 q 251 649 208 649 l 297 649 l 297 672 q 280 709 297 696 q 231 722 263 722 q 177 715 203 722 q 119 689 151 707 l 75 776 m 297 568 l 268 567 q 197 550 217 565 q 178 514 178 535 q 194 476 178 486 q 233 465 211 465 q 273 478 256 465 q 297 506 290 490 l 297 568 z "},"«":{"ha":713,"x_min":36,"x_max":681,"o":"m 519 106 l 342 329 l 519 551 l 681 551 l 519 329 l 681 106 l 519 106 m 214 106 l 36 329 l 214 551 l 375 551 l 214 329 l 375 106 l 214 106 z "},"®":{"ha":733,"x_min":50,"x_max":683,"o":"m 240 814 l 385 814 q 474 783 443 814 q 506 706 506 753 q 484 641 506 665 q 438 604 463 617 q 484 531 460 569 q 529 458 508 493 l 444 458 l 367 590 l 311 590 l 311 458 l 240 458 l 240 814 m 311 646 l 361 646 q 412 659 392 646 q 432 704 432 672 q 415 745 432 733 q 369 757 399 757 l 311 757 l 311 646 m 683 644 q 660 505 683 565 q 596 403 638 444 q 496 341 554 363 q 368 319 438 319 q 240 340 299 319 q 140 401 182 361 q 74 500 97 442 q 50 633 50 558 q 73 772 50 713 q 138 873 96 832 q 238 935 179 914 q 365 956 296 956 q 493 935 435 956 q 594 874 551 914 q 660 777 636 835 q 683 644 683 719 m 621 639 q 600 756 621 706 q 544 838 579 806 q 463 885 510 869 q 365 901 417 901 q 267 887 313 901 q 187 840 221 872 q 133 759 153 808 q 113 639 113 710 q 131 521 113 571 q 184 438 150 471 q 265 388 218 404 q 368 372 311 372 q 465 388 419 372 q 546 435 511 403 q 601 519 581 468 q 621 639 621 569 z "},"°":{"ha":560,"x_min":42,"x_max":518,"o":"m 518 650 q 455 474 518 539 q 278 408 392 408 q 106 474 171 408 q 42 650 42 539 q 59 749 42 704 q 108 825 76 793 q 183 874 139 857 q 282 892 228 892 q 378 874 335 892 q 452 825 421 857 q 501 749 483 793 q 518 650 518 704 m 397 650 q 371 752 397 713 q 282 792 344 792 q 192 754 222 792 q 163 650 163 717 q 191 547 163 586 q 278 508 219 508 q 364 542 331 508 q 397 650 397 576 z "},"±":{"ha":693,"x_min":56,"x_max":638,"o":"m 575 126 l 575 0 l 76 0 l 76 126 l 575 126 m 638 536 l 638 410 l 414 410 l 414 196 l 279 196 l 279 410 l 56 410 l 56 536 l 279 536 l 279 750 l 414 750 l 414 536 l 638 536 z "},"´":{"ha":351,"x_min":42,"x_max":338,"o":"m 183 758 l 42 758 l 139 972 l 338 972 l 183 758 z "},"¶":{"ha":850,"x_min":49,"x_max":767,"o":"m 626 -246 l 626 757 l 500 757 l 500 -246 l 358 -246 l 358 314 q 126 391 203 314 q 49 600 49 468 q 73 728 49 674 q 142 819 97 783 q 247 874 186 856 q 383 892 308 892 l 767 892 l 767 -246 l 626 -246 z "},"¸":{"ha":397,"x_min":78,"x_max":358,"o":"m 283 0 l 253 -65 q 328 -96 299 -69 q 358 -162 358 -122 q 312 -249 358 -221 q 194 -278 265 -278 q 128 -271 158 -278 q 78 -257 97 -264 l 103 -175 q 136 -185 121 -182 q 171 -187 151 -187 q 211 -179 196 -187 q 226 -151 226 -171 q 205 -119 226 -131 q 128 -108 183 -108 l 174 0 l 283 0 z "},"º":{"ha":17,"x_min":0,"x_max":0,"o":""},"»":{"ha":713,"x_min":32,"x_max":676,"o":"m 32 106 l 193 328 l 32 551 l 193 551 l 371 328 l 193 106 l 32 106 m 338 106 l 499 328 l 338 551 l 499 551 l 676 328 l 499 106 l 338 106 z "},"¿":{"ha":597,"x_min":53,"x_max":551,"o":"m 328 -342 q 210 -324 261 -342 q 124 -274 160 -306 q 71 -199 89 -243 q 53 -106 53 -156 q 61 -36 53 -68 q 86 25 69 -4 q 128 83 103 54 q 185 146 153 113 q 236 197 215 176 q 269 232 257 217 q 287 260 282 247 q 292 292 292 274 q 285 332 292 314 l 451 353 q 460 319 456 339 q 464 276 464 299 q 437 179 464 219 q 364 90 410 139 q 317 38 336 61 q 285 -5 297 15 q 267 -46 272 -25 q 261 -92 261 -67 q 288 -155 261 -129 q 358 -181 314 -181 q 421 -171 393 -181 q 481 -137 449 -161 l 551 -274 q 452 -323 508 -304 q 328 -342 396 -342 m 467 553 q 458 508 467 529 q 433 472 449 488 q 397 449 417 457 q 354 440 376 440 q 312 449 332 440 q 276 472 292 457 q 252 508 261 488 q 243 553 243 529 q 276 635 243 604 q 354 667 310 667 q 433 635 399 667 q 467 553 467 604 z "},"À":{"ha":906,"x_min":22,"x_max":881,"o":"m 208 1131 l 428 1131 l 539 958 l 369 958 l 208 1131 m 340 875 l 565 875 l 881 0 l 657 0 l 597 188 l 303 188 l 243 0 l 22 0 l 340 875 m 349 340 l 549 340 l 515 446 q 481 556 499 497 q 451 663 464 614 l 449 663 q 417 557 435 614 q 382 446 399 500 l 349 340 z "},"Á":{"ha":906,"x_min":22,"x_max":881,"o":"m 538 958 l 368 958 l 479 1131 l 699 1131 l 538 958 m 340 875 l 565 875 l 881 0 l 657 0 l 597 188 l 303 188 l 243 0 l 22 0 l 340 875 m 349 340 l 549 340 l 515 446 q 481 556 499 497 q 451 663 464 614 l 449 663 q 417 557 435 614 q 382 446 399 500 l 349 340 z "},"Â":{"ha":906,"x_min":22,"x_max":881,"o":"m 374 1131 l 525 1131 l 685 958 l 532 958 l 449 1047 l 365 958 l 218 958 l 374 1131 m 340 875 l 565 875 l 881 0 l 657 0 l 597 188 l 303 188 l 243 0 l 22 0 l 340 875 m 349 340 l 549 340 l 515 446 q 481 556 499 497 q 451 663 464 614 l 449 663 q 417 557 435 614 q 382 446 399 500 l 349 340 z "},"Ã":{"ha":906,"x_min":22,"x_max":881,"o":"m 238 958 q 246 1024 238 993 q 271 1077 254 1054 q 311 1113 288 1100 q 365 1126 335 1126 q 410 1119 390 1126 q 449 1103 431 1113 q 483 1088 467 1094 q 519 1081 500 1081 q 549 1094 539 1081 q 561 1131 560 1107 l 658 1131 q 625 1010 658 1054 q 536 965 592 965 q 487 972 510 965 q 444 988 464 979 q 406 1003 424 996 q 375 1010 389 1010 q 344 994 353 1010 q 335 958 336 979 l 238 958 m 340 875 l 565 875 l 881 0 l 657 0 l 597 188 l 303 188 l 243 0 l 22 0 l 340 875 m 349 340 l 549 340 l 515 446 q 481 556 499 497 q 451 663 464 614 l 449 663 q 417 557 435 614 q 382 446 399 500 l 349 340 z "},"Ä":{"ha":906,"x_min":22,"x_max":881,"o":"m 214 1039 q 241 1104 214 1078 q 308 1131 268 1131 q 375 1104 349 1131 q 401 1039 401 1078 q 375 971 401 999 q 308 943 349 943 q 241 971 268 943 q 214 1039 214 999 m 499 1039 q 526 1104 499 1078 q 593 1131 553 1131 q 660 1104 633 1131 q 686 1039 686 1078 q 660 971 686 999 q 593 943 633 943 q 526 971 553 943 q 499 1039 499 999 m 340 875 l 565 875 l 881 0 l 657 0 l 597 188 l 303 188 l 243 0 l 22 0 l 340 875 m 349 340 l 549 340 l 515 446 q 481 556 499 497 q 451 663 464 614 l 449 663 q 417 557 435 614 q 382 446 399 500 l 349 340 z "},"Å":{"ha":906,"x_min":22,"x_max":881,"o":"m 300 1060 q 342 1156 300 1124 q 449 1189 383 1189 q 556 1156 514 1189 q 597 1060 597 1124 q 585 1003 597 1028 q 553 963 574 979 q 506 939 533 947 q 449 931 479 931 q 343 964 386 931 q 300 1060 300 997 m 396 1060 q 410 1015 396 1031 q 449 999 425 999 q 487 1015 472 999 q 501 1060 501 1031 q 487 1105 501 1089 q 449 1121 472 1121 q 410 1105 425 1121 q 396 1060 396 1089 m 340 875 l 565 875 l 881 0 l 657 0 l 597 188 l 303 188 l 243 0 l 22 0 l 340 875 m 349 340 l 549 340 l 515 446 q 481 556 499 497 q 451 663 464 614 l 449 663 q 417 557 435 614 q 382 446 399 500 l 349 340 z "},"Æ":{"ha":1176,"x_min":22,"x_max":1129,"o":"m 458 875 l 1125 875 l 1125 714 l 794 714 l 794 535 l 1089 535 l 1089 375 l 794 375 l 794 161 l 1129 161 l 1129 0 l 583 0 l 583 194 l 351 194 l 257 0 l 22 0 l 458 875 m 583 725 l 418 354 l 583 354 l 583 725 z "},"Ç":{"ha":797,"x_min":53,"x_max":761,"o":"m 540 146 q 646 157 603 146 q 718 186 689 168 l 760 35 q 675 3 732 19 q 535 -15 618 -12 l 519 -65 q 595 -99 565 -69 q 625 -169 625 -129 q 578 -267 625 -235 q 461 -299 532 -299 q 394 -292 425 -299 q 344 -278 364 -286 l 369 -196 q 401 -206 386 -203 q 438 -208 415 -208 q 478 -197 463 -208 q 493 -158 493 -185 q 472 -123 493 -137 q 394 -108 451 -108 l 428 -8 q 274 42 343 4 q 156 136 204 79 q 80 270 107 193 q 53 439 53 347 q 85 624 53 540 q 178 767 118 708 q 326 859 239 826 q 521 892 413 892 q 670 874 613 892 q 761 839 728 857 l 714 685 q 638 717 682 703 q 542 731 594 731 q 438 715 486 731 q 353 664 389 699 q 296 574 317 629 q 275 440 275 519 q 295 311 275 367 q 351 219 315 256 q 435 164 388 182 q 540 146 483 146 z "},"È":{"ha":726,"x_min":92,"x_max":679,"o":"m 92 875 l 675 875 l 675 714 l 303 714 l 303 535 l 639 535 l 639 375 l 303 375 l 303 161 l 679 161 l 679 0 l 92 0 l 92 875 m 222 1131 l 442 1131 l 553 958 l 383 958 l 222 1131 z "},"É":{"ha":726,"x_min":92,"x_max":679,"o":"m 92 875 l 675 875 l 675 714 l 303 714 l 303 535 l 639 535 l 639 375 l 303 375 l 303 161 l 679 161 l 679 0 l 92 0 l 92 875 m 392 958 l 222 958 l 333 1131 l 553 1131 l 392 958 z "},"Ê":{"ha":726,"x_min":92,"x_max":679,"o":"m 92 875 l 675 875 l 675 714 l 303 714 l 303 535 l 639 535 l 639 375 l 303 375 l 303 161 l 679 161 l 679 0 l 92 0 l 92 875 m 299 1131 l 450 1131 l 610 958 l 457 958 l 374 1047 l 290 958 l 143 958 l 299 1131 z "},"Ë":{"ha":726,"x_min":92,"x_max":679,"o":"m 92 875 l 675 875 l 675 714 l 303 714 l 303 535 l 639 535 l 639 375 l 303 375 l 303 161 l 679 161 l 679 0 l 92 0 l 92 875 m 144 1039 q 172 1104 144 1078 q 239 1131 199 1131 q 306 1104 279 1131 q 332 1039 332 1078 q 306 971 332 999 q 239 943 279 943 q 172 971 199 943 q 144 1039 144 999 m 429 1039 q 456 1104 429 1078 q 524 1131 483 1131 q 590 1104 564 1131 q 617 1039 617 1078 q 590 971 617 999 q 524 943 564 943 q 456 971 483 943 q 429 1039 429 999 z "},"Ì":{"ha":394,"x_min":-56,"x_max":303,"o":"m 303 875 l 303 0 l 92 0 l 92 875 l 303 875 m -56 1131 l 164 1131 l 275 958 l 106 958 l -56 1131 z "},"Í":{"ha":394,"x_min":92,"x_max":450,"o":"m 303 875 l 303 0 l 92 0 l 92 875 l 303 875 m 289 958 l 119 958 l 231 1131 l 450 1131 l 289 958 z "},"Î":{"ha":394,"x_min":-31,"x_max":436,"o":"m 303 875 l 303 0 l 92 0 l 92 875 l 303 875 m 125 1131 l 276 1131 l 436 958 l 283 958 l 200 1047 l 117 958 l -31 958 l 125 1131 z "},"Ï":{"ha":394,"x_min":-40,"x_max":432,"o":"m 303 875 l 303 0 l 92 0 l 92 875 l 303 875 m -40 1039 q -13 1104 -40 1078 q 54 1131 14 1131 q 121 1104 94 1131 q 147 1039 147 1078 q 121 971 147 999 q 54 943 94 943 q -13 971 14 943 q -40 1039 -40 999 m 244 1039 q 272 1104 244 1078 q 339 1131 299 1131 q 406 1104 379 1131 q 432 1039 432 1078 q 406 971 432 999 q 339 943 379 943 q 272 971 299 943 q 244 1039 244 999 z "},"Ð":{"ha":969,"x_min":28,"x_max":919,"o":"m 460 875 q 649 849 564 875 q 794 769 733 822 q 887 638 854 717 q 919 456 919 560 q 881 253 919 339 q 774 112 842 168 q 617 28 707 56 q 425 0 526 0 l 147 0 l 147 372 l 28 372 l 28 514 l 147 514 l 147 875 l 460 875 m 514 514 l 514 372 l 358 372 l 358 161 l 413 161 q 520 175 468 161 q 611 223 572 189 q 674 314 650 257 q 697 456 697 371 q 626 648 697 582 q 435 714 556 714 l 358 714 l 358 514 l 514 514 z "},"Ñ":{"ha":958,"x_min":92,"x_max":867,"o":"m 92 875 l 397 875 l 583 424 l 667 174 l 672 174 l 658 453 l 658 875 l 867 875 l 867 0 l 561 0 l 382 435 l 292 707 l 286 707 l 300 403 l 300 0 l 92 0 l 92 875 m 292 958 q 300 1024 292 993 q 325 1077 308 1054 q 365 1113 342 1100 q 419 1126 389 1126 q 465 1119 444 1126 q 503 1103 485 1113 q 538 1088 521 1094 q 574 1081 554 1081 q 603 1094 593 1081 q 615 1131 614 1107 l 713 1131 q 679 1010 713 1054 q 590 965 646 965 q 541 972 564 965 q 498 988 518 979 q 460 1003 478 996 q 429 1010 443 1010 q 399 994 407 1010 q 389 958 390 979 l 292 958 z "},"Ò":{"ha":986,"x_min":53,"x_max":933,"o":"m 496 892 q 671 860 590 892 q 810 771 751 829 q 901 628 868 713 q 933 436 933 543 q 899 249 933 332 q 806 106 865 165 q 666 16 747 47 q 490 -15 585 -15 q 315 15 396 -15 q 176 103 235 46 q 85 245 118 161 q 53 436 53 329 q 86 624 53 540 q 179 768 119 708 q 320 860 239 828 q 496 892 401 892 m 275 436 q 292 307 275 363 q 340 215 310 251 q 410 161 371 179 q 496 143 450 143 q 580 161 540 143 q 649 215 619 179 q 694 307 678 251 q 711 436 711 363 q 694 569 711 513 q 646 661 676 625 q 576 715 615 697 q 490 733 536 733 q 406 715 446 733 q 338 658 367 696 q 292 565 308 621 q 275 436 275 510 m 332 1131 l 551 1131 l 663 958 l 493 958 l 332 1131 z "},"Ó":{"ha":986,"x_min":53,"x_max":933,"o":"m 496 892 q 671 860 590 892 q 810 771 751 829 q 901 628 868 713 q 933 436 933 543 q 899 249 933 332 q 806 106 865 165 q 666 16 747 47 q 490 -15 585 -15 q 315 15 396 -15 q 176 103 235 46 q 85 245 118 161 q 53 436 53 329 q 86 624 53 540 q 179 768 119 708 q 320 860 239 828 q 496 892 401 892 m 275 436 q 292 307 275 363 q 340 215 310 251 q 410 161 371 179 q 496 143 450 143 q 580 161 540 143 q 649 215 619 179 q 694 307 678 251 q 711 436 711 363 q 694 569 711 513 q 646 661 676 625 q 576 715 615 697 q 490 733 536 733 q 406 715 446 733 q 338 658 367 696 q 292 565 308 621 q 275 436 275 510 m 496 958 l 326 958 l 438 1131 l 657 1131 l 496 958 z "},"Ô":{"ha":986,"x_min":53,"x_max":933,"o":"m 496 892 q 671 860 590 892 q 810 771 751 829 q 901 628 868 713 q 933 436 933 543 q 899 249 933 332 q 806 106 865 165 q 666 16 747 47 q 490 -15 585 -15 q 315 15 396 -15 q 176 103 235 46 q 85 245 118 161 q 53 436 53 329 q 86 624 53 540 q 179 768 119 708 q 320 860 239 828 q 496 892 401 892 m 275 436 q 292 307 275 363 q 340 215 310 251 q 410 161 371 179 q 496 143 450 143 q 580 161 540 143 q 649 215 619 179 q 694 307 678 251 q 711 436 711 363 q 694 569 711 513 q 646 661 676 625 q 576 715 615 697 q 490 733 536 733 q 406 715 446 733 q 338 658 367 696 q 292 565 308 621 q 275 436 275 510 m 422 1131 l 574 1131 l 733 958 l 581 958 l 497 1047 l 414 958 l 267 958 l 422 1131 z "},"Õ":{"ha":986,"x_min":53,"x_max":933,"o":"m 496 892 q 671 860 590 892 q 810 771 751 829 q 901 628 868 713 q 933 436 933 543 q 899 249 933 332 q 806 106 865 165 q 666 16 747 47 q 490 -15 585 -15 q 315 15 396 -15 q 176 103 235 46 q 85 245 118 161 q 53 436 53 329 q 86 624 53 540 q 179 768 119 708 q 320 860 239 828 q 496 892 401 892 m 275 436 q 292 307 275 363 q 340 215 310 251 q 410 161 371 179 q 496 143 450 143 q 580 161 540 143 q 649 215 619 179 q 694 307 678 251 q 711 436 711 363 q 694 569 711 513 q 646 661 676 625 q 576 715 615 697 q 490 733 536 733 q 406 715 446 733 q 338 658 367 696 q 292 565 308 621 q 275 436 275 510 m 279 958 q 288 1024 279 993 q 313 1077 296 1054 q 353 1113 329 1100 q 407 1126 376 1126 q 452 1119 432 1126 q 490 1103 472 1113 q 525 1088 508 1094 q 561 1081 542 1081 q 591 1094 581 1081 q 603 1131 601 1107 l 700 1131 q 667 1010 700 1054 q 578 965 633 965 q 528 972 551 965 q 485 988 506 979 q 448 1003 465 996 q 417 1010 431 1010 q 386 994 394 1010 q 376 958 378 979 l 279 958 z "},"Ö":{"ha":986,"x_min":53,"x_max":933,"o":"m 496 892 q 671 860 590 892 q 810 771 751 829 q 901 628 868 713 q 933 436 933 543 q 899 249 933 332 q 806 106 865 165 q 666 16 747 47 q 490 -15 585 -15 q 315 15 396 -15 q 176 103 235 46 q 85 245 118 161 q 53 436 53 329 q 86 624 53 540 q 179 768 119 708 q 320 860 239 828 q 496 892 401 892 m 275 436 q 292 307 275 363 q 340 215 310 251 q 410 161 371 179 q 496 143 450 143 q 580 161 540 143 q 649 215 619 179 q 694 307 678 251 q 711 436 711 363 q 694 569 711 513 q 646 661 676 625 q 576 715 615 697 q 490 733 536 733 q 406 715 446 733 q 338 658 367 696 q 292 565 308 621 q 275 436 275 510 m 260 1039 q 287 1104 260 1078 q 354 1131 314 1131 q 421 1104 394 1131 q 447 1039 447 1078 q 421 971 447 999 q 354 943 394 943 q 287 971 314 943 q 260 1039 260 999 m 544 1039 q 572 1104 544 1078 q 639 1131 599 1131 q 706 1104 679 1131 q 732 1039 732 1078 q 706 971 732 999 q 639 943 679 943 q 572 971 599 943 q 544 1039 544 999 z "},"Ø":{"ha":986,"x_min":53,"x_max":933,"o":"m 726 1050 l 824 1007 l 740 825 q 881 671 829 769 q 933 436 933 572 q 899 249 933 332 q 806 106 865 165 q 666 16 747 47 q 490 -15 585 -15 q 364 0 422 -15 l 263 -228 l 164 -183 l 265 38 q 110 192 168 90 q 53 436 53 293 q 86 624 53 540 q 179 768 119 708 q 320 860 239 828 q 496 892 401 892 q 572 886 535 892 q 643 869 610 881 l 726 1050 m 275 436 q 293 290 275 347 q 342 200 311 232 l 571 721 q 490 733 533 733 q 406 715 446 733 q 338 658 367 696 q 292 565 308 621 q 275 436 275 510 m 496 143 q 580 161 540 143 q 649 215 619 179 q 694 307 678 251 q 711 436 711 363 q 697 566 711 513 q 660 654 683 619 l 436 149 q 496 143 463 143 z "},"Ù":{"ha":928,"x_min":92,"x_max":836,"o":"m 92 875 l 303 875 l 303 351 q 343 199 303 253 q 468 144 383 144 q 588 198 551 144 q 625 335 625 251 l 625 875 l 836 875 l 836 353 q 468 -15 836 -15 q 192 76 293 -15 q 92 360 92 168 l 92 875 m 307 1131 l 526 1131 l 638 958 l 468 958 l 307 1131 z "},"Ú":{"ha":928,"x_min":92,"x_max":836,"o":"m 92 875 l 303 875 l 303 351 q 343 199 303 253 q 468 144 383 144 q 588 198 551 144 q 625 335 625 251 l 625 875 l 836 875 l 836 353 q 468 -15 836 -15 q 192 76 293 -15 q 92 360 92 168 l 92 875 m 468 958 l 299 958 l 410 1131 l 629 1131 l 468 958 z "},"Û":{"ha":928,"x_min":92,"x_max":836,"o":"m 92 875 l 303 875 l 303 351 q 343 199 303 253 q 468 144 383 144 q 588 198 551 144 q 625 335 625 251 l 625 875 l 836 875 l 836 353 q 468 -15 836 -15 q 192 76 293 -15 q 92 360 92 168 l 92 875 m 393 1131 l 544 1131 l 704 958 l 551 958 l 468 1047 l 385 958 l 238 958 l 393 1131 z "},"Ü":{"ha":928,"x_min":92,"x_max":836,"o":"m 92 875 l 303 875 l 303 351 q 343 199 303 253 q 468 144 383 144 q 588 198 551 144 q 625 335 625 251 l 625 875 l 836 875 l 836 353 q 468 -15 836 -15 q 192 76 293 -15 q 92 360 92 168 l 92 875 m 232 1039 q 259 1104 232 1078 q 326 1131 286 1131 q 393 1104 367 1131 q 419 1039 419 1078 q 393 971 419 999 q 326 943 367 943 q 259 971 286 943 q 232 1039 232 999 m 517 1039 q 544 1104 517 1078 q 611 1131 571 1131 q 678 1104 651 1131 q 704 1039 704 1078 q 678 971 704 999 q 611 943 651 943 q 544 971 571 943 q 517 1039 517 999 z "},"Ý":{"ha":846,"x_min":13,"x_max":836,"o":"m 250 875 l 426 553 l 604 875 l 836 875 l 526 360 l 526 0 l 315 0 l 315 360 l 13 875 l 250 875 m 457 958 l 288 958 l 399 1131 l 618 1131 l 457 958 z "},"Þ":{"ha":769,"x_min":92,"x_max":726,"o":"m 92 875 l 294 875 l 294 707 q 355 719 325 717 q 415 722 385 722 q 541 702 483 722 q 640 644 599 682 q 703 555 681 607 q 726 439 726 503 q 700 305 726 361 q 627 213 674 249 q 517 158 581 176 q 379 140 454 140 q 338 142 363 140 q 294 147 314 144 l 294 0 l 92 0 l 92 875 m 294 303 q 328 294 311 296 q 368 293 344 293 q 477 329 436 293 q 518 433 518 365 q 480 537 518 503 q 379 571 442 571 q 294 556 332 571 l 294 303 z "},"ß":{"ha":867,"x_min":92,"x_max":817,"o":"m 92 0 l 92 653 q 111 793 92 729 q 173 903 131 857 q 282 974 215 949 q 443 1000 349 1000 q 560 983 504 1000 q 658 934 615 965 q 725 857 700 903 q 750 756 750 811 q 742 692 750 719 q 722 639 735 664 q 628 599 656 624 q 600 536 600 575 q 624 467 600 497 q 685 410 647 438 q 783 314 749 361 q 817 199 817 267 q 745 45 817 106 q 531 -15 674 -15 q 485 -13 510 -15 q 435 -6 460 -11 q 388 5 410 -1 q 353 19 367 11 l 394 160 q 517 135 453 135 q 588 158 564 135 q 611 210 611 181 q 605 242 611 228 q 586 271 599 257 q 555 299 574 285 q 511 331 536 313 q 426 414 457 369 q 396 528 396 458 q 430 632 396 586 q 528 694 464 678 q 533 716 531 703 q 536 749 536 729 q 505 821 536 794 q 432 847 474 847 q 331 800 368 847 q 294 633 294 753 l 294 0 l 92 0 z "},"à":{"ha":711,"x_min":42,"x_max":642,"o":"m 93 608 q 222 662 150 642 q 368 682 293 682 q 567 622 492 682 q 642 432 642 563 l 642 0 l 485 0 l 467 67 l 461 67 q 384 8 433 31 q 268 -15 335 -15 q 169 1 211 -15 q 99 46 126 18 q 56 112 71 74 q 42 193 42 150 q 67 293 42 251 q 137 361 93 335 q 240 400 181 388 q 365 413 299 413 l 435 413 l 435 449 q 408 506 435 486 q 333 526 382 526 q 251 514 292 526 q 163 474 211 501 l 93 608 m 436 288 l 390 286 q 325 278 351 285 q 283 260 299 271 q 260 235 267 250 q 253 206 253 221 q 278 147 253 163 q 338 131 304 131 q 398 150 371 131 q 436 193 425 169 l 436 288 m 186 972 l 385 972 l 482 758 l 340 758 l 186 972 z "},"á":{"ha":711,"x_min":42,"x_max":642,"o":"m 93 608 q 222 662 150 642 q 368 682 293 682 q 567 622 492 682 q 642 432 642 563 l 642 0 l 485 0 l 467 67 l 461 67 q 384 8 433 31 q 268 -15 335 -15 q 169 1 211 -15 q 99 46 126 18 q 56 112 71 74 q 42 193 42 150 q 67 293 42 251 q 137 361 93 335 q 240 400 181 388 q 365 413 299 413 l 435 413 l 435 449 q 408 506 435 486 q 333 526 382 526 q 251 514 292 526 q 163 474 211 501 l 93 608 m 436 288 l 390 286 q 325 278 351 285 q 283 260 299 271 q 260 235 267 250 q 253 206 253 221 q 278 147 253 163 q 338 131 304 131 q 398 150 371 131 q 436 193 425 169 l 436 288 m 413 758 l 271 758 l 368 972 l 567 972 l 413 758 z "},"â":{"ha":711,"x_min":42,"x_max":642,"o":"m 93 608 q 222 662 150 642 q 368 682 293 682 q 567 622 492 682 q 642 432 642 563 l 642 0 l 485 0 l 467 67 l 461 67 q 384 8 433 31 q 268 -15 335 -15 q 169 1 211 -15 q 99 46 126 18 q 56 112 71 74 q 42 193 42 150 q 67 293 42 251 q 137 361 93 335 q 240 400 181 388 q 365 413 299 413 l 435 413 l 435 449 q 408 506 435 486 q 333 526 382 526 q 251 514 292 526 q 163 474 211 501 l 93 608 m 436 288 l 390 286 q 325 278 351 285 q 283 260 299 271 q 260 235 267 250 q 253 206 253 221 q 278 147 253 163 q 338 131 304 131 q 398 150 371 131 q 436 193 425 169 l 436 288 m 597 758 l 450 758 l 367 861 l 283 758 l 131 758 l 311 958 l 421 958 l 597 758 z "},"ã":{"ha":711,"x_min":42,"x_max":642,"o":"m 93 608 q 222 662 150 642 q 368 682 293 682 q 567 622 492 682 q 642 432 642 563 l 642 0 l 485 0 l 467 67 l 461 67 q 384 8 433 31 q 268 -15 335 -15 q 169 1 211 -15 q 99 46 126 18 q 56 112 71 74 q 42 193 42 150 q 67 293 42 251 q 137 361 93 335 q 240 400 181 388 q 365 413 299 413 l 435 413 l 435 449 q 408 506 435 486 q 333 526 382 526 q 251 514 292 526 q 163 474 211 501 l 93 608 m 436 288 l 390 286 q 325 278 351 285 q 283 260 299 271 q 260 235 267 250 q 253 206 253 221 q 278 147 253 163 q 338 131 304 131 q 398 150 371 131 q 436 193 425 169 l 436 288 m 117 758 q 152 901 117 851 q 249 950 188 950 q 301 940 275 950 q 349 917 326 929 q 390 895 371 906 q 424 885 408 885 q 459 908 451 885 q 468 958 467 931 l 565 958 q 532 815 567 861 q 435 769 497 769 q 375 779 401 769 q 327 801 349 789 q 288 824 306 814 q 256 833 271 833 q 224 813 233 833 q 214 758 215 792 l 117 758 z "},"ä":{"ha":711,"x_min":42,"x_max":642,"o":"m 93 608 q 222 662 150 642 q 368 682 293 682 q 567 622 492 682 q 642 432 642 563 l 642 0 l 485 0 l 467 67 l 461 67 q 384 8 433 31 q 268 -15 335 -15 q 169 1 211 -15 q 99 46 126 18 q 56 112 71 74 q 42 193 42 150 q 67 293 42 251 q 137 361 93 335 q 240 400 181 388 q 365 413 299 413 l 435 413 l 435 449 q 408 506 435 486 q 333 526 382 526 q 251 514 292 526 q 163 474 211 501 l 93 608 m 436 288 l 390 286 q 325 278 351 285 q 283 260 299 271 q 260 235 267 250 q 253 206 253 221 q 278 147 253 163 q 338 131 304 131 q 398 150 371 131 q 436 193 425 169 l 436 288 m 122 861 q 151 929 122 900 q 219 958 179 958 q 288 929 261 958 q 315 861 315 900 q 288 791 315 819 q 219 763 261 763 q 151 791 179 763 q 122 861 122 819 m 413 861 q 441 929 413 900 q 510 958 469 958 q 578 929 551 958 q 606 861 606 900 q 578 791 606 819 q 510 763 551 763 q 441 791 469 763 q 413 861 413 819 z "},"å":{"ha":711,"x_min":42,"x_max":642,"o":"m 93 608 q 222 662 150 642 q 368 682 293 682 q 567 622 492 682 q 642 432 642 563 l 642 0 l 485 0 l 467 67 l 461 67 q 384 8 433 31 q 268 -15 335 -15 q 169 1 211 -15 q 99 46 126 18 q 56 112 71 74 q 42 193 42 150 q 67 293 42 251 q 137 361 93 335 q 240 400 181 388 q 365 413 299 413 l 435 413 l 435 449 q 408 506 435 486 q 333 526 382 526 q 251 514 292 526 q 163 474 211 501 l 93 608 m 436 288 l 390 286 q 325 278 351 285 q 283 260 299 271 q 260 235 267 250 q 253 206 253 221 q 278 147 253 163 q 338 131 304 131 q 398 150 371 131 q 436 193 425 169 l 436 288 m 224 865 q 236 923 224 899 q 269 963 249 947 q 317 987 290 979 q 372 994 344 994 q 428 987 401 994 q 476 963 456 979 q 508 923 496 947 q 521 865 521 899 q 508 808 521 832 q 474 767 494 783 q 426 744 453 751 q 372 736 399 736 q 318 744 344 736 q 271 769 292 753 q 237 810 250 786 q 224 865 224 835 m 314 865 q 331 818 314 833 q 372 803 349 803 q 413 818 396 803 q 431 865 431 833 q 413 913 431 897 q 372 928 394 928 q 332 913 350 928 q 314 865 314 897 z "},"æ":{"ha":1110,"x_min":42,"x_max":1064,"o":"m 1064 288 l 633 288 l 633 282 q 688 169 633 204 q 824 135 742 135 q 924 146 881 135 q 996 172 967 157 l 1033 31 q 944 -1 997 13 q 811 -15 890 -15 q 650 10 724 -15 q 524 90 576 36 l 518 90 q 423 15 479 44 q 275 -15 367 -15 q 173 1 217 -15 q 100 46 129 18 q 56 112 71 74 q 42 193 42 150 q 67 293 42 251 q 137 361 93 335 q 240 400 181 388 q 365 413 299 413 l 449 413 l 449 449 q 418 506 449 486 q 333 526 388 526 q 251 514 292 526 q 163 474 211 501 l 93 608 q 218 662 150 642 q 361 682 286 682 q 478 660 424 682 q 561 597 532 638 l 564 597 q 645 659 593 636 q 763 682 697 682 q 982 599 900 682 q 1064 361 1064 515 l 1064 288 m 253 206 q 278 147 253 163 q 338 131 304 131 q 408 151 374 131 q 458 200 443 172 q 442 288 446 239 l 390 286 q 325 278 351 285 q 283 260 299 271 q 260 235 267 250 q 253 206 253 221 m 854 414 q 849 460 854 438 q 831 499 843 482 q 801 527 819 517 q 756 538 782 538 q 675 503 707 538 q 638 411 643 469 l 854 414 z "},"ç":{"ha":658,"x_min":54,"x_max":617,"o":"m 449 135 q 527 147 493 135 q 579 168 561 158 l 617 29 q 543 1 594 15 q 429 -15 492 -12 l 406 -65 q 481 -96 451 -69 q 511 -162 511 -122 q 465 -249 511 -221 q 347 -278 418 -278 q 281 -271 311 -278 q 231 -257 250 -264 l 256 -175 q 289 -185 274 -182 q 324 -187 304 -187 q 364 -179 349 -187 q 379 -151 379 -171 q 358 -119 379 -131 q 281 -108 336 -108 l 324 -6 q 215 33 264 6 q 130 102 165 60 q 74 202 94 144 q 54 331 54 260 q 81 473 54 408 q 156 584 107 538 q 271 656 204 631 q 419 682 338 682 q 513 672 463 682 q 617 635 564 663 l 574 494 q 512 522 546 511 q 443 533 478 533 q 313 484 363 533 q 263 336 263 435 q 279 242 263 281 q 322 180 296 204 q 382 145 349 156 q 449 135 415 135 z "},"è":{"ha":728,"x_min":44,"x_max":682,"o":"m 682 288 l 251 288 l 251 282 q 306 169 251 204 q 442 135 360 135 q 542 146 499 135 q 614 172 585 157 l 651 31 q 556 -1 614 13 q 415 -15 499 -15 q 273 5 340 -15 q 155 67 206 25 q 74 172 104 108 q 44 325 44 236 q 69 470 44 404 q 138 583 93 536 q 244 656 182 631 q 381 682 306 682 q 600 599 518 682 q 682 361 682 515 l 682 288 m 472 414 q 467 460 472 438 q 449 499 461 482 q 419 527 438 517 q 374 538 400 538 q 293 503 325 538 q 256 411 261 469 l 472 414 m 231 972 l 429 972 l 526 758 l 385 758 l 231 972 z "},"é":{"ha":728,"x_min":44,"x_max":682,"o":"m 682 288 l 251 288 l 251 282 q 306 169 251 204 q 442 135 360 135 q 542 146 499 135 q 614 172 585 157 l 651 31 q 556 -1 614 13 q 415 -15 499 -15 q 273 5 340 -15 q 155 67 206 25 q 74 172 104 108 q 44 325 44 236 q 69 470 44 404 q 138 583 93 536 q 244 656 182 631 q 381 682 306 682 q 600 599 518 682 q 682 361 682 515 l 682 288 m 472 414 q 467 460 472 438 q 449 499 461 482 q 419 527 438 517 q 374 538 400 538 q 293 503 325 538 q 256 411 261 469 l 472 414 m 385 758 l 243 758 l 340 972 l 539 972 l 385 758 z "},"ê":{"ha":728,"x_min":44,"x_max":682,"o":"m 682 288 l 251 288 l 251 282 q 306 169 251 204 q 442 135 360 135 q 542 146 499 135 q 614 172 585 157 l 651 31 q 556 -1 614 13 q 415 -15 499 -15 q 273 5 340 -15 q 155 67 206 25 q 74 172 104 108 q 44 325 44 236 q 69 470 44 404 q 138 583 93 536 q 244 656 182 631 q 381 682 306 682 q 600 599 518 682 q 682 361 682 515 l 682 288 m 472 414 q 467 460 472 438 q 449 499 461 482 q 419 527 438 517 q 374 538 400 538 q 293 503 325 538 q 256 411 261 469 l 472 414 m 610 758 l 463 758 l 379 861 l 296 758 l 143 758 l 324 958 l 433 958 l 610 758 z "},"ë":{"ha":728,"x_min":44,"x_max":682,"o":"m 682 288 l 251 288 l 251 282 q 306 169 251 204 q 442 135 360 135 q 542 146 499 135 q 614 172 585 157 l 651 31 q 556 -1 614 13 q 415 -15 499 -15 q 273 5 340 -15 q 155 67 206 25 q 74 172 104 108 q 44 325 44 236 q 69 470 44 404 q 138 583 93 536 q 244 656 182 631 q 381 682 306 682 q 600 599 518 682 q 682 361 682 515 l 682 288 m 472 414 q 467 460 472 438 q 449 499 461 482 q 419 527 438 517 q 374 538 400 538 q 293 503 325 538 q 256 411 261 469 l 472 414 m 136 861 q 165 929 136 900 q 233 958 193 958 q 302 929 275 958 q 329 861 329 900 q 302 791 329 819 q 233 763 275 763 q 165 791 193 763 q 136 861 136 819 m 426 861 q 455 929 426 900 q 524 958 483 958 q 592 929 565 958 q 619 861 619 900 q 592 791 619 819 q 524 763 565 763 q 455 791 483 763 q 426 861 426 819 z "},"ì":{"ha":397,"x_min":-8,"x_max":301,"o":"m 96 0 l 96 667 l 301 667 l 301 0 l 96 0 m -8 972 l 190 972 l 288 758 l 146 758 l -8 972 z "},"í":{"ha":397,"x_min":96,"x_max":406,"o":"m 96 0 l 96 667 l 301 667 l 301 0 l 96 0 m 251 758 l 110 758 l 207 972 l 406 972 l 251 758 z "},"î":{"ha":397,"x_min":-37,"x_max":429,"o":"m 96 0 l 96 667 l 301 667 l 301 0 l 96 0 m 429 758 l 282 758 l 199 861 l 115 758 l -37 758 l 143 958 l 253 958 l 429 758 z "},"ï":{"ha":397,"x_min":-43,"x_max":440,"o":"m 96 0 l 96 667 l 301 667 l 301 0 l 96 0 m -43 861 q -15 929 -43 900 q 54 958 14 958 q 123 929 96 958 q 150 861 150 900 q 123 791 150 819 q 54 763 96 763 q -15 791 14 763 q -43 861 -43 819 m 247 861 q 276 929 247 900 q 344 958 304 958 q 413 929 386 958 q 440 861 440 900 q 413 791 440 819 q 344 763 386 763 q 276 791 304 763 q 247 861 247 819 z "},"ð":{"ha":792,"x_min":50,"x_max":742,"o":"m 353 635 q 447 619 400 635 q 525 578 493 604 l 529 581 q 503 640 519 610 q 467 697 486 669 q 426 747 447 724 q 386 785 404 769 l 224 706 l 183 779 l 313 843 q 245 878 281 864 q 169 903 210 892 l 246 1038 q 369 994 307 1021 q 479 929 431 967 l 608 996 l 653 918 l 547 865 q 621 778 586 829 q 683 663 656 726 q 726 522 710 599 q 742 361 742 446 q 719 213 742 282 q 653 94 697 144 q 545 14 610 43 q 394 -15 481 -15 q 274 3 335 -15 q 163 63 213 22 q 81 164 113 103 q 50 311 50 225 q 74 448 50 388 q 138 550 97 508 q 234 613 179 592 q 353 635 289 635 m 397 486 q 347 477 372 486 q 302 449 322 468 q 269 396 282 429 q 257 315 257 363 q 269 231 257 265 q 303 175 282 196 q 349 144 324 154 q 401 135 375 135 q 456 149 431 135 q 501 187 482 163 q 530 244 519 211 q 540 317 540 278 q 528 390 540 358 q 497 442 517 421 q 452 475 478 464 q 397 486 426 486 z "},"ñ":{"ha":797,"x_min":81,"x_max":717,"o":"m 286 0 l 81 0 l 81 667 l 240 667 l 264 583 q 364 656 308 629 q 485 682 419 682 q 657 621 597 682 q 717 442 717 560 l 717 0 l 511 0 l 511 421 q 488 498 511 469 q 421 526 465 526 q 351 507 388 526 q 286 456 314 488 l 286 0 m 171 758 q 206 901 171 851 q 303 950 242 950 q 355 940 329 950 q 403 917 381 929 q 444 895 425 906 q 478 885 463 885 q 513 908 506 885 q 522 958 521 931 l 619 958 q 586 815 621 861 q 489 769 551 769 q 429 779 456 769 q 381 801 403 789 q 342 824 360 814 q 310 833 325 833 q 278 813 288 833 q 268 758 269 792 l 171 758 z "},"ò":{"ha":803,"x_min":54,"x_max":749,"o":"m 749 338 q 722 190 749 256 q 647 79 694 125 q 536 9 600 33 q 399 -15 472 -15 q 262 8 325 -15 q 153 74 199 31 q 81 180 107 117 q 54 324 54 243 q 81 475 54 408 q 156 588 108 542 q 267 658 203 633 q 404 682 331 682 q 541 660 478 682 q 650 594 604 638 q 722 486 696 550 q 749 338 749 422 m 538 331 q 526 423 538 385 q 496 485 515 461 q 451 521 476 510 q 400 532 426 532 q 349 522 374 532 q 306 489 325 513 q 276 427 288 465 q 265 331 265 389 q 307 182 265 229 q 403 135 349 135 q 453 145 429 135 q 497 178 478 156 q 526 239 515 201 q 538 331 538 276 m 199 972 l 397 972 l 494 758 l 353 758 l 199 972 z "},"ó":{"ha":803,"x_min":54,"x_max":749,"o":"m 749 338 q 722 190 749 256 q 647 79 694 125 q 536 9 600 33 q 399 -15 472 -15 q 262 8 325 -15 q 153 74 199 31 q 81 180 107 117 q 54 324 54 243 q 81 475 54 408 q 156 588 108 542 q 267 658 203 633 q 404 682 331 682 q 541 660 478 682 q 650 594 604 638 q 722 486 696 550 q 749 338 749 422 m 538 331 q 526 423 538 385 q 496 485 515 461 q 451 521 476 510 q 400 532 426 532 q 349 522 374 532 q 306 489 325 513 q 276 427 288 465 q 265 331 265 389 q 307 182 265 229 q 403 135 349 135 q 453 145 429 135 q 497 178 478 156 q 526 239 515 201 q 538 331 538 276 m 449 758 l 307 758 l 404 972 l 603 972 l 449 758 z "},"ô":{"ha":803,"x_min":54,"x_max":749,"o":"m 749 338 q 722 190 749 256 q 647 79 694 125 q 536 9 600 33 q 399 -15 472 -15 q 262 8 325 -15 q 153 74 199 31 q 81 180 107 117 q 54 324 54 243 q 81 475 54 408 q 156 588 108 542 q 267 658 203 633 q 404 682 331 682 q 541 660 478 682 q 650 594 604 638 q 722 486 696 550 q 749 338 749 422 m 538 331 q 526 423 538 385 q 496 485 515 461 q 451 521 476 510 q 400 532 426 532 q 349 522 374 532 q 306 489 325 513 q 276 427 288 465 q 265 331 265 389 q 307 182 265 229 q 403 135 349 135 q 453 145 429 135 q 497 178 478 156 q 526 239 515 201 q 538 331 538 276 m 635 758 l 488 758 l 404 861 l 321 758 l 168 758 l 349 958 l 458 958 l 635 758 z "},"õ":{"ha":803,"x_min":54,"x_max":749,"o":"m 749 338 q 722 190 749 256 q 647 79 694 125 q 536 9 600 33 q 399 -15 472 -15 q 262 8 325 -15 q 153 74 199 31 q 81 180 107 117 q 54 324 54 243 q 81 475 54 408 q 156 588 108 542 q 267 658 203 633 q 404 682 331 682 q 541 660 478 682 q 650 594 604 638 q 722 486 696 550 q 749 338 749 422 m 538 331 q 526 423 538 385 q 496 485 515 461 q 451 521 476 510 q 400 532 426 532 q 349 522 374 532 q 306 489 325 513 q 276 427 288 465 q 265 331 265 389 q 307 182 265 229 q 403 135 349 135 q 453 145 429 135 q 497 178 478 156 q 526 239 515 201 q 538 331 538 276 m 169 758 q 205 901 169 851 q 301 950 240 950 q 353 940 328 950 q 401 917 379 929 q 442 895 424 906 q 476 885 461 885 q 512 908 504 885 q 521 958 519 931 l 618 958 q 585 815 619 861 q 488 769 550 769 q 428 779 454 769 q 380 801 401 789 q 341 824 358 814 q 308 833 324 833 q 277 813 286 833 q 267 758 268 792 l 169 758 z "},"ö":{"ha":803,"x_min":54,"x_max":749,"o":"m 749 338 q 722 190 749 256 q 647 79 694 125 q 536 9 600 33 q 399 -15 472 -15 q 262 8 325 -15 q 153 74 199 31 q 81 180 107 117 q 54 324 54 243 q 81 475 54 408 q 156 588 108 542 q 267 658 203 633 q 404 682 331 682 q 541 660 478 682 q 650 594 604 638 q 722 486 696 550 q 749 338 749 422 m 538 331 q 526 423 538 385 q 496 485 515 461 q 451 521 476 510 q 400 532 426 532 q 349 522 374 532 q 306 489 325 513 q 276 427 288 465 q 265 331 265 389 q 307 182 265 229 q 403 135 349 135 q 453 145 429 135 q 497 178 478 156 q 526 239 515 201 q 538 331 538 276 m 160 861 q 188 929 160 900 q 257 958 217 958 q 326 929 299 958 q 353 861 353 900 q 326 791 353 819 q 257 763 299 763 q 188 791 217 763 q 160 861 160 819 m 450 861 q 478 929 450 900 q 547 958 507 958 q 616 929 589 958 q 643 861 643 900 q 616 791 643 819 q 547 763 589 763 q 478 791 507 763 q 450 861 450 819 z "},"ø":{"ha":803,"x_min":53,"x_max":750,"o":"m 538 786 l 625 756 l 579 643 q 701 530 656 606 q 749 343 746 454 q 724 195 750 261 q 652 83 699 129 q 542 11 606 36 q 404 -15 478 -14 q 356 -13 379 -15 q 310 -6 332 -11 l 268 -119 l 183 -89 l 226 21 q 103 135 149 60 q 54 318 57 210 q 78 470 53 403 q 151 584 104 538 q 261 656 197 631 q 399 682 325 681 q 494 672 451 682 l 538 786 m 397 532 q 347 522 371 532 q 306 488 324 511 q 276 425 288 464 q 265 328 265 386 q 274 246 265 279 q 297 189 282 213 l 429 529 q 414 531 422 531 q 397 532 406 532 m 538 333 q 529 418 538 383 q 506 476 521 453 l 372 138 q 390 135 381 135 q 407 135 399 135 q 456 146 432 135 q 497 180 479 157 q 526 241 515 203 q 538 333 538 279 z "},"ù":{"ha":790,"x_min":81,"x_max":710,"o":"m 504 667 l 710 667 l 710 0 l 558 0 l 538 72 l 532 72 q 499 43 518 58 q 452 15 479 28 q 390 -7 425 1 q 311 -15 356 -15 q 142 44 203 -15 q 81 221 81 104 l 81 667 l 286 667 l 286 238 q 312 162 286 186 q 378 138 338 138 q 458 158 426 138 q 504 200 489 178 l 504 667 m 171 972 l 369 972 l 467 758 l 325 758 l 171 972 z "},"ú":{"ha":790,"x_min":81,"x_max":710,"o":"m 504 667 l 710 667 l 710 0 l 558 0 l 538 72 l 532 72 q 499 43 518 58 q 452 15 479 28 q 390 -7 425 1 q 311 -15 356 -15 q 142 44 203 -15 q 81 221 81 104 l 81 667 l 286 667 l 286 238 q 312 162 286 186 q 378 138 338 138 q 458 158 426 138 q 504 200 489 178 l 504 667 m 468 758 l 326 758 l 424 972 l 622 972 l 468 758 z "},"û":{"ha":790,"x_min":81,"x_max":710,"o":"m 504 667 l 710 667 l 710 0 l 558 0 l 538 72 l 532 72 q 499 43 518 58 q 452 15 479 28 q 390 -7 425 1 q 311 -15 356 -15 q 142 44 203 -15 q 81 221 81 104 l 81 667 l 286 667 l 286 238 q 312 162 286 186 q 378 138 338 138 q 458 158 426 138 q 504 200 489 178 l 504 667 m 632 758 l 485 758 l 401 861 l 318 758 l 165 758 l 346 958 l 456 958 l 632 758 z "},"ü":{"ha":790,"x_min":81,"x_max":710,"o":"m 504 667 l 710 667 l 710 0 l 558 0 l 538 72 l 532 72 q 499 43 518 58 q 452 15 479 28 q 390 -7 425 1 q 311 -15 356 -15 q 142 44 203 -15 q 81 221 81 104 l 81 667 l 286 667 l 286 238 q 312 162 286 186 q 378 138 338 138 q 458 158 426 138 q 504 200 489 178 l 504 667 m 149 861 q 177 929 149 900 q 246 958 206 958 q 315 929 288 958 q 342 861 342 900 q 315 791 342 819 q 246 763 288 763 q 177 791 206 763 q 149 861 149 819 m 439 861 q 467 929 439 900 q 536 958 496 958 q 605 929 578 958 q 632 861 632 900 q 605 791 632 819 q 536 763 578 763 q 467 791 496 763 q 439 861 439 819 z "},"ý":{"ha":750,"x_min":10,"x_max":742,"o":"m 10 667 l 235 667 l 344 369 l 389 207 l 394 207 l 436 372 l 532 667 l 742 667 l 501 -12 q 456 -124 482 -69 q 391 -225 429 -178 q 299 -311 353 -272 q 168 -375 244 -350 l 83 -215 q 219 -132 165 -186 q 290 -7 272 -78 l 293 4 l 10 667 m 440 758 l 299 758 l 396 972 l 594 972 l 440 758 z "},"þ":{"ha":808,"x_min":83,"x_max":756,"o":"m 756 331 q 731 186 756 250 q 665 77 707 122 q 565 8 622 32 q 439 -15 507 -15 q 353 -4 390 -15 q 288 26 317 7 l 288 -240 l 83 -240 l 83 993 l 288 993 l 288 621 q 363 665 319 647 q 458 682 406 682 q 676 590 597 682 q 756 331 756 497 m 544 325 q 506 476 544 426 q 396 526 467 526 q 333 509 363 526 q 289 475 303 492 l 289 175 q 329 146 304 157 q 382 135 354 135 q 443 146 414 135 q 495 181 472 157 q 531 240 518 204 q 544 325 544 276 z "},"ÿ":{"ha":750,"x_min":10,"x_max":742,"o":"m 10 667 l 235 667 l 344 369 l 389 207 l 394 207 l 436 372 l 532 667 l 742 667 l 501 -12 q 456 -124 482 -69 q 391 -225 429 -178 q 299 -311 353 -272 q 168 -375 244 -350 l 83 -215 q 219 -132 165 -186 q 290 -7 272 -78 l 293 4 l 10 667 m 150 861 q 178 929 150 900 q 247 958 207 958 q 316 929 289 958 q 343 861 343 900 q 316 791 343 819 q 247 763 289 763 q 178 791 207 763 q 150 861 150 819 m 440 861 q 469 929 440 900 q 538 958 497 958 q 606 929 579 958 q 633 861 633 900 q 606 791 633 819 q 538 763 579 763 q 469 791 497 763 q 440 861 440 819 z "},"¬":{"ha":17,"x_min":0,"x_max":0,"o":""},"˘":{"ha":410,"x_min":18,"x_max":392,"o":"m 133 958 q 151 897 135 919 q 206 875 167 875 q 278 958 275 875 l 392 958 q 344 820 392 871 q 206 769 296 769 q 120 785 156 769 q 62 826 85 800 q 28 887 39 853 q 18 958 18 921 l 133 958 z "},"ˇ":{"ha":496,"x_min":14,"x_max":481,"o":"m 14 958 l 161 958 l 244 856 l 328 958 l 481 958 l 300 758 l 190 758 l 14 958 z "},"˙":{"ha":249,"x_min":28,"x_max":221,"o":"m 28 861 q 56 929 28 900 q 125 958 85 958 q 194 929 167 958 q 221 861 221 900 q 194 791 221 819 q 125 763 167 763 q 56 791 85 763 q 28 861 28 819 z "},"˝":{"ha":408,"x_min":29,"x_max":607,"o":"m 171 758 l 29 758 l 126 972 l 325 972 l 171 758 m 453 758 l 311 758 l 408 972 l 607 972 l 453 758 z "},"¯":{"ha":424,"x_min":28,"x_max":396,"o":"m 396 919 l 396 806 l 28 806 l 28 919 l 396 919 z "},"˛":{"ha":339,"x_min":42,"x_max":311,"o":"m 214 0 q 172 -107 172 -53 q 229 -161 172 -161 q 260 -158 247 -161 q 283 -150 272 -156 l 311 -256 q 258 -278 289 -269 q 190 -286 226 -286 q 84 -251 126 -286 q 42 -151 42 -217 q 60 -61 42 -99 q 96 0 78 -24 l 214 0 z "},"˚":{"ha":342,"x_min":22,"x_max":319,"o":"m 22 865 q 35 923 22 899 q 68 963 47 947 q 116 987 89 979 q 171 994 143 994 q 227 987 200 994 q 274 963 254 979 q 307 923 294 947 q 319 865 319 899 q 306 808 319 832 q 272 767 293 783 q 224 744 251 751 q 171 736 197 736 q 117 744 143 736 q 69 769 90 753 q 35 810 49 786 q 22 865 22 835 m 113 865 q 130 818 113 833 q 171 803 147 803 q 212 818 194 803 q 229 865 229 833 q 211 913 229 897 q 171 928 193 928 q 131 913 149 928 q 113 865 113 897 z "},"Ă":{"ha":906,"x_min":22,"x_max":881,"o":"m 376 1131 q 395 1080 378 1099 q 450 1061 413 1061 q 521 1131 518 1061 l 635 1131 q 587 999 635 1046 q 449 951 539 951 q 363 966 399 951 q 305 1005 328 981 q 272 1062 282 1029 q 261 1131 261 1094 l 376 1131 m 340 875 l 565 875 l 881 0 l 657 0 l 597 188 l 303 188 l 243 0 l 22 0 l 340 875 m 349 340 l 549 340 l 515 446 q 481 556 499 497 q 451 663 464 614 l 449 663 q 417 557 435 614 q 382 446 399 500 l 349 340 z "},"Ā":{"ha":906,"x_min":22,"x_max":881,"o":"m 631 1072 l 631 958 l 269 958 l 269 1072 l 631 1072 m 340 875 l 565 875 l 881 0 l 657 0 l 597 188 l 303 188 l 243 0 l 22 0 l 340 875 m 349 340 l 549 340 l 515 446 q 481 556 499 497 q 451 663 464 614 l 449 663 q 417 557 435 614 q 382 446 399 500 l 349 340 z "},"Ą":{"ha":906,"x_min":22,"x_max":881,"o":"m 340 875 l 565 875 l 881 0 l 789 0 q 749 -50 765 -24 q 733 -104 733 -76 q 748 -146 733 -131 q 790 -161 763 -161 q 821 -158 808 -161 q 844 -150 833 -154 l 872 -256 q 819 -278 850 -269 q 751 -286 788 -286 q 645 -248 688 -286 q 603 -144 603 -210 q 621 -58 603 -92 q 657 0 639 -24 l 597 188 l 303 188 l 243 0 l 22 0 l 340 875 m 349 340 l 549 340 l 515 446 q 481 556 499 497 q 451 663 464 614 l 449 663 q 417 557 435 614 q 382 446 399 500 l 349 340 z "},"Ǽ":{"ha":1176,"x_min":22,"x_max":1129,"o":"m 458 875 l 1125 875 l 1125 714 l 794 714 l 794 535 l 1089 535 l 1089 375 l 794 375 l 794 161 l 1129 161 l 1129 0 l 583 0 l 583 194 l 351 194 l 257 0 l 22 0 l 458 875 m 583 725 l 418 354 l 583 354 l 583 725 m 656 958 l 486 958 l 597 1131 l 817 1131 l 656 958 z "},"Ć":{"ha":797,"x_min":53,"x_max":761,"o":"m 540 146 q 646 157 603 146 q 718 186 689 168 l 760 35 q 670 1 732 18 q 518 -15 608 -15 q 329 17 415 -15 q 182 108 243 49 q 87 251 121 167 q 53 439 53 335 q 85 624 53 540 q 178 767 118 708 q 326 859 239 826 q 521 892 413 892 q 670 874 613 892 q 761 839 728 857 l 714 685 q 638 717 682 703 q 542 731 594 731 q 438 715 486 731 q 353 664 389 699 q 296 574 317 629 q 275 440 275 519 q 295 311 275 367 q 351 219 315 256 q 435 164 388 182 q 540 146 483 146 m 506 958 l 336 958 l 447 1131 l 667 1131 l 506 958 z "},"Č":{"ha":797,"x_min":53,"x_max":761,"o":"m 540 146 q 646 157 603 146 q 718 186 689 168 l 760 35 q 670 1 732 18 q 518 -15 608 -15 q 329 17 415 -15 q 182 108 243 49 q 87 251 121 167 q 53 439 53 335 q 85 624 53 540 q 178 767 118 708 q 326 859 239 826 q 521 892 413 892 q 670 874 613 892 q 761 839 728 857 l 714 685 q 638 717 682 703 q 542 731 594 731 q 438 715 486 731 q 353 664 389 699 q 296 574 317 629 q 275 440 275 519 q 295 311 275 367 q 351 219 315 256 q 435 164 388 182 q 540 146 483 146 m 246 1131 l 399 1131 l 482 1042 l 565 1131 l 713 1131 l 557 958 l 406 958 l 246 1131 z "},"Ĉ":{"ha":797,"x_min":53,"x_max":761,"o":"m 540 146 q 646 157 603 146 q 718 186 689 168 l 760 35 q 670 1 732 18 q 518 -15 608 -15 q 329 17 415 -15 q 182 108 243 49 q 87 251 121 167 q 53 439 53 335 q 85 624 53 540 q 178 767 118 708 q 326 859 239 826 q 521 892 413 892 q 670 874 613 892 q 761 839 728 857 l 714 685 q 638 717 682 703 q 542 731 594 731 q 438 715 486 731 q 353 664 389 699 q 296 574 317 629 q 275 440 275 519 q 295 311 275 367 q 351 219 315 256 q 435 164 388 182 q 540 146 483 146 m 407 1131 l 558 1131 l 718 958 l 565 958 l 482 1047 l 399 958 l 251 958 l 407 1131 z "},"Ċ":{"ha":797,"x_min":53,"x_max":761,"o":"m 540 146 q 646 157 603 146 q 718 186 689 168 l 760 35 q 670 1 732 18 q 518 -15 608 -15 q 329 17 415 -15 q 182 108 243 49 q 87 251 121 167 q 53 439 53 335 q 85 624 53 540 q 178 767 118 708 q 326 859 239 826 q 521 892 413 892 q 670 874 613 892 q 761 839 728 857 l 714 685 q 638 717 682 703 q 542 731 594 731 q 438 715 486 731 q 353 664 389 699 q 296 574 317 629 q 275 440 275 519 q 295 311 275 367 q 351 219 315 256 q 435 164 388 182 q 540 146 483 146 m 426 1039 q 453 1104 426 1078 q 521 1131 481 1131 q 588 1104 561 1131 q 614 1039 614 1078 q 588 971 614 999 q 521 943 561 943 q 453 971 481 943 q 426 1039 426 999 z "},"Ď":{"ha":914,"x_min":92,"x_max":864,"o":"m 404 875 q 593 849 508 875 q 738 769 678 822 q 831 638 799 717 q 864 456 864 560 q 825 253 864 339 q 719 112 786 168 q 561 28 651 56 q 369 0 471 0 l 92 0 l 92 875 l 404 875 m 303 161 l 357 161 q 465 175 413 161 q 556 223 517 189 q 618 314 594 257 q 642 456 642 371 q 571 648 642 582 q 379 714 500 714 l 303 714 l 303 161 m 174 1131 l 326 1131 l 410 1042 l 493 1131 l 640 1131 l 485 958 l 333 958 l 174 1131 z "},"Đ":{"ha":969,"x_min":28,"x_max":919,"o":"m 460 875 q 649 849 564 875 q 794 769 733 822 q 887 638 854 717 q 919 456 919 560 q 881 253 919 339 q 774 112 842 168 q 617 28 707 56 q 425 0 526 0 l 147 0 l 147 372 l 28 372 l 28 514 l 147 514 l 147 875 l 460 875 m 514 514 l 514 372 l 358 372 l 358 161 l 413 161 q 520 175 468 161 q 611 223 572 189 q 674 314 650 257 q 697 456 697 371 q 626 648 697 582 q 435 714 556 714 l 358 714 l 358 514 l 514 514 z "},"Ĕ":{"ha":726,"x_min":92,"x_max":679,"o":"m 92 875 l 675 875 l 675 714 l 303 714 l 303 535 l 639 535 l 639 375 l 303 375 l 303 161 l 679 161 l 679 0 l 92 0 l 92 875 m 317 1131 q 335 1080 318 1099 q 390 1061 353 1061 q 461 1131 458 1061 l 575 1131 q 527 999 575 1046 q 389 951 479 951 q 303 966 339 951 q 245 1005 268 981 q 212 1062 222 1029 q 201 1131 201 1094 l 317 1131 z "},"Ě":{"ha":726,"x_min":92,"x_max":679,"o":"m 92 875 l 675 875 l 675 714 l 303 714 l 303 535 l 639 535 l 639 375 l 303 375 l 303 161 l 679 161 l 679 0 l 92 0 l 92 875 m 463 958 l 311 958 l 151 1131 l 304 1131 l 388 1042 l 471 1131 l 618 1131 l 463 958 z "},"Ė":{"ha":726,"x_min":92,"x_max":679,"o":"m 92 875 l 675 875 l 675 714 l 303 714 l 303 535 l 639 535 l 639 375 l 303 375 l 303 161 l 679 161 l 679 0 l 92 0 l 92 875 m 297 1039 q 324 1104 297 1078 q 392 1131 351 1131 q 458 1104 432 1131 q 485 1039 485 1078 q 458 971 485 999 q 392 943 432 943 q 324 971 351 943 q 297 1039 297 999 z "},"Ē":{"ha":726,"x_min":92,"x_max":679,"o":"m 92 875 l 675 875 l 675 714 l 303 714 l 303 535 l 639 535 l 639 375 l 303 375 l 303 161 l 679 161 l 679 0 l 92 0 l 92 875 m 556 1072 l 556 958 l 194 958 l 194 1072 l 556 1072 z "},"Ę":{"ha":726,"x_min":92,"x_max":763,"o":"m 92 875 l 675 875 l 675 714 l 303 714 l 303 535 l 639 535 l 639 375 l 303 375 l 303 161 l 679 161 l 679 0 q 640 -50 656 -24 q 624 -104 624 -76 q 638 -146 624 -131 q 681 -161 653 -161 q 711 -158 699 -161 q 735 -150 724 -154 l 763 -256 q 709 -278 740 -269 q 642 -286 678 -286 q 535 -248 578 -286 q 493 -144 493 -210 q 510 -61 493 -96 q 551 -4 528 -26 l 551 0 l 92 0 l 92 875 z "},"Ğ":{"ha":883,"x_min":53,"x_max":817,"o":"m 524 892 q 672 878 607 892 q 786 840 736 864 l 743 701 q 644 735 696 725 q 543 746 592 746 q 439 728 488 746 q 353 672 390 710 q 296 575 317 633 q 275 436 275 517 q 340 210 275 289 q 525 132 404 132 q 578 135 554 132 q 614 143 601 138 l 614 333 l 476 333 l 476 489 l 817 489 l 817 39 q 689 0 763 15 q 524 -15 615 -15 q 338 14 424 -15 q 189 101 253 43 q 89 242 125 158 q 53 436 53 326 q 89 631 53 546 q 189 774 125 717 q 338 862 253 832 q 524 892 424 892 m 450 1131 q 469 1080 451 1099 q 524 1061 486 1061 q 594 1131 592 1061 l 708 1131 q 660 999 708 1046 q 522 951 613 951 q 437 966 472 951 q 378 1005 401 981 q 345 1062 356 1029 q 335 1131 335 1094 l 450 1131 z "},"Ĝ":{"ha":883,"x_min":53,"x_max":817,"o":"m 524 892 q 672 878 607 892 q 786 840 736 864 l 743 701 q 644 735 696 725 q 543 746 592 746 q 439 728 488 746 q 353 672 390 710 q 296 575 317 633 q 275 436 275 517 q 340 210 275 289 q 525 132 404 132 q 578 135 554 132 q 614 143 601 138 l 614 333 l 476 333 l 476 489 l 817 489 l 817 39 q 689 0 763 15 q 524 -15 615 -15 q 338 14 424 -15 q 189 101 253 43 q 89 242 125 158 q 53 436 53 326 q 89 631 53 546 q 189 774 125 717 q 338 862 253 832 q 524 892 424 892 m 407 1131 l 558 1131 l 718 958 l 565 958 l 482 1047 l 399 958 l 251 958 l 407 1131 z "},"Ģ":{"ha":883,"x_min":53,"x_max":817,"o":"m 524 892 q 672 878 607 892 q 786 840 736 864 l 743 701 q 644 735 696 725 q 543 746 592 746 q 439 728 488 746 q 353 672 390 710 q 296 575 317 633 q 275 436 275 517 q 340 210 275 289 q 525 132 404 132 q 578 135 554 132 q 614 143 601 138 l 614 333 l 476 333 l 476 489 l 817 489 l 817 39 q 689 0 763 15 q 524 -15 615 -15 q 338 14 424 -15 q 189 101 253 43 q 89 242 125 158 q 53 436 53 326 q 89 631 53 546 q 189 774 125 717 q 338 862 253 832 q 524 892 424 892 m 513 -282 q 450 -249 474 -275 q 426 -185 426 -224 q 452 -118 426 -147 q 525 -89 478 -89 q 563 -97 543 -89 q 600 -121 583 -104 q 628 -165 617 -137 q 639 -231 639 -192 q 625 -308 639 -271 q 590 -377 611 -346 q 540 -433 568 -408 q 482 -472 511 -458 l 436 -411 q 501 -359 472 -392 q 536 -286 529 -326 l 513 -282 z "},"Ġ":{"ha":883,"x_min":53,"x_max":817,"o":"m 524 892 q 672 878 607 892 q 786 840 736 864 l 743 701 q 644 735 696 725 q 543 746 592 746 q 439 728 488 746 q 353 672 390 710 q 296 575 317 633 q 275 436 275 517 q 340 210 275 289 q 525 132 404 132 q 578 135 554 132 q 614 143 601 138 l 614 333 l 476 333 l 476 489 l 817 489 l 817 39 q 689 0 763 15 q 524 -15 615 -15 q 338 14 424 -15 q 189 101 253 43 q 89 242 125 158 q 53 436 53 326 q 89 631 53 546 q 189 774 125 717 q 338 862 253 832 q 524 892 424 892 m 429 1039 q 456 1104 429 1078 q 524 1131 483 1131 q 590 1104 564 1131 q 617 1039 617 1078 q 590 971 617 999 q 524 943 564 943 q 456 971 483 943 q 429 1039 429 999 z "},"Ħ":{"ha":949,"x_min":28,"x_max":921,"o":"m 111 0 l 111 650 l 28 650 l 28 778 l 111 778 l 111 875 l 322 875 l 322 778 l 626 778 l 626 875 l 838 875 l 838 778 l 921 778 l 921 650 l 838 650 l 838 0 l 626 0 l 626 371 l 322 371 l 322 0 l 111 0 m 626 535 l 626 650 l 322 650 l 322 535 l 626 535 z "},"Ĥ":{"ha":910,"x_min":92,"x_max":818,"o":"m 92 0 l 92 875 l 303 875 l 303 535 l 607 535 l 607 875 l 818 875 l 818 0 l 607 0 l 607 371 l 303 371 l 303 0 l 92 0 m 385 1131 l 536 1131 l 696 958 l 543 958 l 460 1047 l 376 958 l 229 958 l 385 1131 z "},"Ĭ":{"ha":394,"x_min":10,"x_max":383,"o":"m 303 875 l 303 0 l 92 0 l 92 875 l 303 875 m 125 1131 q 144 1080 126 1099 q 199 1061 161 1061 q 269 1131 267 1061 l 383 1131 q 335 999 383 1046 q 197 951 288 951 q 112 966 147 951 q 53 1005 76 981 q 20 1062 31 1029 q 10 1131 10 1094 l 125 1131 z "},"İ":{"ha":394,"x_min":92,"x_max":303,"o":"m 303 875 l 303 0 l 92 0 l 92 875 l 303 875 m 103 1039 q 130 1104 103 1078 q 197 1131 157 1131 q 264 1104 238 1131 q 290 1039 290 1078 q 264 971 290 999 q 197 943 238 943 q 130 971 157 943 q 103 1039 103 999 z "},"Ī":{"ha":394,"x_min":17,"x_max":378,"o":"m 303 875 l 303 0 l 92 0 l 92 875 l 303 875 m 378 1072 l 378 958 l 17 958 l 17 1072 l 378 1072 z "},"Į":{"ha":394,"x_min":38,"x_max":307,"o":"m 303 875 l 303 0 l 224 0 q 184 -50 200 -24 q 168 -104 168 -76 q 183 -146 168 -131 q 225 -161 197 -161 q 256 -158 243 -161 q 279 -150 268 -154 l 307 -256 q 253 -278 285 -269 q 186 -286 222 -286 q 80 -248 122 -286 q 38 -144 38 -210 q 56 -58 38 -92 q 92 0 74 -24 l 92 875 l 303 875 z "},"Ĩ":{"ha":394,"x_min":-14,"x_max":407,"o":"m 303 875 l 303 0 l 92 0 l 92 875 l 303 875 m -14 958 q -6 1024 -14 993 q 19 1077 3 1054 q 60 1113 36 1100 q 114 1126 83 1126 q 159 1119 139 1126 q 197 1103 179 1113 q 232 1088 215 1094 q 268 1081 249 1081 q 298 1094 288 1081 q 310 1131 308 1107 l 407 1131 q 374 1010 407 1054 q 285 965 340 965 q 235 972 258 965 q 192 988 213 979 q 155 1003 172 996 q 124 1010 138 1010 q 93 994 101 1010 q 83 958 85 979 l -14 958 z "},"Ĳ":{"ha":788,"x_min":92,"x_max":696,"o":"m 303 875 l 303 0 l 92 0 l 92 875 l 303 875 m 696 875 l 696 160 q 692 58 696 103 q 680 -24 689 13 q 655 -92 671 -61 q 615 -149 639 -122 q 497 -222 567 -201 q 346 -243 426 -243 l 346 -83 q 405 -73 381 -83 q 444 -49 429 -62 q 477 7 469 -28 q 485 86 485 42 l 485 875 l 696 875 z "},"Ĵ":{"ha":414,"x_min":-28,"x_max":453,"o":"m 322 875 l 322 160 q 319 58 322 103 q 306 -24 315 13 q 281 -92 297 -61 q 242 -149 265 -122 q 123 -222 193 -201 q -28 -243 53 -243 l -28 -83 q 31 -73 7 -83 q 71 -49 56 -62 q 103 7 96 -28 q 111 86 111 42 l 111 875 l 322 875 m 142 1131 l 293 1131 l 453 958 l 300 958 l 217 1047 l 133 958 l -14 958 l 142 1131 z "},"Ķ":{"ha":867,"x_min":92,"x_max":871,"o":"m 92 0 l 92 875 l 303 875 l 303 517 l 581 875 l 843 875 l 528 496 l 871 0 l 613 0 l 374 365 l 303 289 l 303 0 l 92 0 m 426 -282 q 364 -249 388 -275 q 340 -185 340 -224 q 366 -118 340 -147 q 439 -89 392 -89 q 477 -97 457 -89 q 514 -121 497 -104 q 542 -165 531 -137 q 553 -231 553 -192 q 539 -308 553 -271 q 503 -377 525 -346 q 453 -433 482 -408 q 396 -472 425 -458 l 350 -411 q 415 -359 386 -392 q 450 -286 443 -326 l 426 -282 z "},"Ĺ":{"ha":656,"x_min":92,"x_max":649,"o":"m 92 875 l 303 875 l 303 164 l 649 164 l 649 0 l 92 0 l 92 875 m 275 958 l 106 958 l 217 1131 l 436 1131 l 275 958 z "},"Ľ":{"ha":656,"x_min":92,"x_max":649,"o":"m 92 875 l 303 875 l 303 164 l 649 164 l 649 0 l 92 0 l 92 875 m 457 838 q 394 870 418 844 q 371 935 371 896 q 397 1001 371 972 q 469 1031 422 1031 q 508 1023 488 1031 q 544 999 528 1015 q 572 955 561 982 q 583 889 583 928 q 569 811 583 849 q 534 742 556 774 q 484 686 513 711 q 426 647 456 661 l 381 708 q 445 760 417 728 q 481 833 474 793 l 457 838 z "},"Ļ":{"ha":656,"x_min":92,"x_max":649,"o":"m 92 875 l 303 875 l 303 164 l 649 164 l 649 0 l 92 0 l 92 875 m 343 -282 q 281 -249 304 -275 q 257 -185 257 -224 q 283 -118 257 -147 q 356 -89 308 -89 q 394 -97 374 -89 q 431 -121 414 -104 q 458 -165 447 -137 q 469 -231 469 -192 q 456 -308 469 -271 q 420 -377 442 -346 q 370 -433 399 -408 q 313 -472 342 -458 l 267 -411 q 331 -359 303 -392 q 367 -286 360 -326 l 343 -282 z "},"Ŀ":{"ha":656,"x_min":92,"x_max":649,"o":"m 92 875 l 303 875 l 303 164 l 649 164 l 649 0 l 92 0 l 92 875 m 372 488 q 399 556 372 528 q 465 585 425 585 q 528 556 503 585 q 554 488 554 528 q 528 419 554 449 q 465 390 501 390 q 399 419 425 390 q 372 488 372 449 z "},"Ł":{"ha":656,"x_min":-74,"x_max":649,"o":"m 92 875 l 303 875 l 303 578 l 426 682 l 507 585 l 303 413 l 303 164 l 649 164 l 649 0 l 92 0 l 92 251 l 7 182 l -74 279 l 92 417 l 92 875 z "},"Ń":{"ha":931,"x_min":92,"x_max":839,"o":"m 519 958 l 350 958 l 461 1131 l 681 1131 l 519 958 m 92 875 l 286 875 l 478 582 q 577 420 529 503 q 651 271 625 338 l 654 271 q 646 438 647 354 q 644 606 644 522 l 644 875 l 839 875 l 839 0 l 644 0 l 442 299 q 350 449 392 372 q 279 610 308 525 l 276 610 q 285 442 283 522 q 286 278 286 361 l 286 0 l 92 0 l 92 875 z "},"Ň":{"ha":931,"x_min":92,"x_max":839,"o":"m 564 958 l 413 958 l 253 1131 l 406 1131 l 489 1042 l 572 1131 l 719 1131 l 564 958 m 92 875 l 286 875 l 478 582 q 577 420 529 503 q 651 271 625 338 l 654 271 q 646 438 647 354 q 644 606 644 522 l 644 875 l 839 875 l 839 0 l 644 0 l 442 299 q 350 449 392 372 q 279 610 308 525 l 276 610 q 285 442 283 522 q 286 278 286 361 l 286 0 l 92 0 l 92 875 z "},"Ņ":{"ha":931,"x_min":92,"x_max":839,"o":"m 440 -282 q 378 -249 401 -275 q 354 -185 354 -224 q 380 -118 354 -147 q 453 -89 406 -89 q 491 -97 471 -89 q 528 -121 511 -104 q 556 -165 544 -137 q 567 -231 567 -192 q 553 -308 567 -271 q 517 -377 539 -346 q 467 -433 496 -408 q 410 -472 439 -458 l 364 -411 q 428 -359 400 -392 q 464 -286 457 -326 l 440 -282 m 92 875 l 286 875 l 478 582 q 577 420 529 503 q 651 271 625 338 l 654 271 q 646 438 647 354 q 644 606 644 522 l 644 875 l 839 875 l 839 0 l 644 0 l 442 299 q 350 449 392 372 q 279 610 308 525 l 276 610 q 285 442 283 522 q 286 278 286 361 l 286 0 l 92 0 l 92 875 z "},"Ŏ":{"ha":986,"x_min":53,"x_max":933,"o":"m 496 892 q 671 860 590 892 q 810 771 751 829 q 901 628 868 713 q 933 436 933 543 q 899 249 933 332 q 806 106 865 165 q 666 16 747 47 q 490 -15 585 -15 q 315 15 396 -15 q 176 103 235 46 q 85 245 118 161 q 53 436 53 329 q 86 624 53 540 q 179 768 119 708 q 320 860 239 828 q 496 892 401 892 m 275 436 q 292 307 275 363 q 340 215 310 251 q 410 161 371 179 q 496 143 450 143 q 580 161 540 143 q 649 215 619 179 q 694 307 678 251 q 711 436 711 363 q 694 569 711 513 q 646 661 676 625 q 576 715 615 697 q 490 733 536 733 q 406 715 446 733 q 338 658 367 696 q 292 565 308 621 q 275 436 275 510 m 418 1131 q 437 1080 419 1099 q 492 1061 454 1061 q 563 1131 560 1061 l 676 1131 q 628 999 676 1046 q 490 951 581 951 q 405 966 440 951 q 347 1005 369 981 q 313 1062 324 1029 q 303 1131 303 1094 l 418 1131 z "},"Ő":{"ha":986,"x_min":53,"x_max":933,"o":"m 496 892 q 671 860 590 892 q 810 771 751 829 q 901 628 868 713 q 933 436 933 543 q 899 249 933 332 q 806 106 865 165 q 666 16 747 47 q 490 -15 585 -15 q 315 15 396 -15 q 176 103 235 46 q 85 245 118 161 q 53 436 53 329 q 86 624 53 540 q 179 768 119 708 q 320 860 239 828 q 496 892 401 892 m 275 436 q 292 307 275 363 q 340 215 310 251 q 410 161 371 179 q 496 143 450 143 q 580 161 540 143 q 649 215 619 179 q 694 307 678 251 q 711 436 711 363 q 694 569 711 513 q 646 661 676 625 q 576 715 615 697 q 490 733 536 733 q 406 715 446 733 q 338 658 367 696 q 292 565 308 621 q 275 436 275 510 m 385 958 l 229 958 l 340 1131 l 539 1131 l 385 958 m 686 958 l 531 958 l 642 1131 l 840 1131 l 686 958 z "},"Ō":{"ha":986,"x_min":53,"x_max":933,"o":"m 496 892 q 671 860 590 892 q 810 771 751 829 q 901 628 868 713 q 933 436 933 543 q 899 249 933 332 q 806 106 865 165 q 666 16 747 47 q 490 -15 585 -15 q 315 15 396 -15 q 176 103 235 46 q 85 245 118 161 q 53 436 53 329 q 86 624 53 540 q 179 768 119 708 q 320 860 239 828 q 496 892 401 892 m 275 436 q 292 307 275 363 q 340 215 310 251 q 410 161 371 179 q 496 143 450 143 q 580 161 540 143 q 649 215 619 179 q 694 307 678 251 q 711 436 711 363 q 694 569 711 513 q 646 661 676 625 q 576 715 615 697 q 490 733 536 733 q 406 715 446 733 q 338 658 367 696 q 292 565 308 621 q 275 436 275 510 m 671 1072 l 671 958 l 310 958 l 310 1072 l 671 1072 z "},"Ǿ":{"ha":986,"x_min":53,"x_max":933,"o":"m 496 958 l 326 958 l 438 1131 l 657 1131 l 496 958 m 726 1050 l 824 1007 l 740 825 q 881 671 829 769 q 933 436 933 572 q 899 249 933 332 q 806 106 865 165 q 666 16 747 47 q 490 -15 585 -15 q 364 0 422 -15 l 263 -228 l 164 -183 l 265 38 q 110 192 168 90 q 53 436 53 293 q 86 624 53 540 q 179 768 119 708 q 320 860 239 828 q 496 892 401 892 q 572 886 535 892 q 643 869 610 881 l 726 1050 m 275 436 q 293 290 275 347 q 342 200 311 232 l 571 721 q 490 733 533 733 q 406 715 446 733 q 338 658 367 696 q 292 565 308 621 q 275 436 275 510 m 496 143 q 580 161 540 143 q 649 215 619 179 q 694 307 678 251 q 711 436 711 363 q 697 566 711 513 q 660 654 683 619 l 436 149 q 496 143 463 143 z "},"Ŕ":{"ha":810,"x_min":92,"x_max":789,"o":"m 92 875 l 439 875 q 572 853 514 875 q 667 794 629 832 q 725 707 706 757 q 744 600 744 657 q 728 505 744 546 q 688 433 713 464 q 633 383 663 403 q 579 353 604 364 l 789 0 l 546 0 l 390 315 l 303 315 l 303 0 l 92 0 l 92 875 m 303 475 l 367 475 q 483 504 439 475 q 528 599 528 533 q 492 685 528 653 q 388 717 456 717 l 303 717 l 303 475 m 418 958 l 249 958 l 360 1131 l 579 1131 l 418 958 z "},"Ř":{"ha":810,"x_min":92,"x_max":789,"o":"m 92 875 l 439 875 q 572 853 514 875 q 667 794 629 832 q 725 707 706 757 q 744 600 744 657 q 728 505 744 546 q 688 433 713 464 q 633 383 663 403 q 579 353 604 364 l 789 0 l 546 0 l 390 315 l 303 315 l 303 0 l 92 0 l 92 875 m 303 475 l 367 475 q 483 504 439 475 q 528 599 528 533 q 492 685 528 653 q 388 717 456 717 l 303 717 l 303 475 m 456 958 l 304 958 l 144 1131 l 297 1131 l 381 1042 l 464 1131 l 611 1131 l 456 958 z "},"Ŗ":{"ha":810,"x_min":92,"x_max":789,"o":"m 92 875 l 439 875 q 572 853 514 875 q 667 794 629 832 q 725 707 706 757 q 744 600 744 657 q 728 505 744 546 q 688 433 713 464 q 633 383 663 403 q 579 353 604 364 l 789 0 l 546 0 l 390 315 l 303 315 l 303 0 l 92 0 l 92 875 m 303 475 l 367 475 q 483 504 439 475 q 528 599 528 533 q 492 685 528 653 q 388 717 456 717 l 303 717 l 303 475 m 385 -282 q 322 -249 346 -275 q 299 -185 299 -224 q 324 -118 299 -147 q 397 -89 350 -89 q 435 -97 415 -89 q 472 -121 456 -104 q 500 -165 489 -137 q 511 -231 511 -192 q 497 -308 511 -271 q 462 -377 483 -346 q 412 -433 440 -408 q 354 -472 383 -458 l 308 -411 q 373 -359 344 -392 q 408 -286 401 -326 l 385 -282 z "},"Ś":{"ha":760,"x_min":56,"x_max":707,"o":"m 388 892 q 546 873 479 892 q 661 828 613 854 l 614 674 q 505 717 560 701 q 400 733 450 733 q 303 710 336 733 q 269 647 269 686 q 301 583 269 603 q 400 540 333 563 l 482 514 q 572 473 531 497 q 644 417 614 449 q 690 344 674 385 q 707 257 707 304 q 686 152 707 201 q 623 65 665 103 q 516 6 581 28 q 364 -15 451 -15 q 208 2 282 -15 q 71 51 133 19 l 118 206 q 235 160 178 176 q 354 143 292 143 q 460 167 428 143 q 493 233 493 192 q 488 261 493 247 q 466 289 482 275 q 422 316 450 303 q 349 343 393 329 l 281 367 q 190 407 232 385 q 119 460 149 429 q 72 531 89 490 q 56 626 56 571 q 77 732 56 683 q 141 816 99 781 q 245 872 183 851 q 388 892 307 892 m 403 958 l 233 958 l 344 1131 l 564 1131 l 403 958 z "},"Ş":{"ha":760,"x_min":56,"x_max":707,"o":"m 388 892 q 546 873 479 892 q 661 828 613 854 l 614 674 q 505 717 560 701 q 400 733 450 733 q 303 710 336 733 q 269 647 269 686 q 301 583 269 603 q 400 540 333 563 l 482 514 q 572 473 531 497 q 644 417 614 449 q 690 344 674 385 q 707 257 707 304 q 690 159 707 206 q 635 76 672 113 q 543 17 599 40 q 413 -12 488 -7 l 396 -65 q 472 -99 442 -69 q 501 -169 501 -129 q 455 -267 501 -235 q 338 -299 408 -299 q 271 -292 301 -299 q 221 -278 240 -286 l 246 -196 q 277 -206 263 -203 q 314 -208 292 -208 q 354 -197 339 -208 q 369 -158 369 -185 q 349 -123 369 -137 q 271 -108 328 -108 l 303 -12 q 179 10 238 -6 q 71 51 121 25 l 118 206 q 235 160 178 176 q 354 143 292 143 q 460 167 428 143 q 493 233 493 192 q 488 261 493 247 q 466 289 482 275 q 422 316 450 303 q 349 343 393 329 l 281 367 q 190 407 232 385 q 119 460 149 429 q 72 531 89 490 q 56 626 56 571 q 77 732 56 683 q 141 816 99 781 q 245 872 183 851 q 388 892 307 892 z "},"Ŝ":{"ha":760,"x_min":56,"x_max":707,"o":"m 388 892 q 546 873 479 892 q 661 828 613 854 l 614 674 q 505 717 560 701 q 400 733 450 733 q 303 710 336 733 q 269 647 269 686 q 301 583 269 603 q 400 540 333 563 l 482 514 q 572 473 531 497 q 644 417 614 449 q 690 344 674 385 q 707 257 707 304 q 686 152 707 201 q 623 65 665 103 q 516 6 581 28 q 364 -15 451 -15 q 208 2 282 -15 q 71 51 133 19 l 118 206 q 235 160 178 176 q 354 143 292 143 q 460 167 428 143 q 493 233 493 192 q 488 261 493 247 q 466 289 482 275 q 422 316 450 303 q 349 343 393 329 l 281 367 q 190 407 232 385 q 119 460 149 429 q 72 531 89 490 q 56 626 56 571 q 77 732 56 683 q 141 816 99 781 q 245 872 183 851 q 388 892 307 892 m 297 1131 l 449 1131 l 608 958 l 456 958 l 372 1047 l 289 958 l 142 958 l 297 1131 z "},"Ș":{"ha":760,"x_min":56,"x_max":707,"o":"m 388 892 q 546 873 479 892 q 661 828 613 854 l 614 674 q 505 717 560 701 q 400 733 450 733 q 303 710 336 733 q 269 647 269 686 q 301 583 269 603 q 400 540 333 563 l 482 514 q 572 473 531 497 q 644 417 614 449 q 690 344 674 385 q 707 257 707 304 q 686 152 707 201 q 623 65 665 103 q 516 6 581 28 q 364 -15 451 -15 q 208 2 282 -15 q 71 51 133 19 l 118 206 q 235 160 178 176 q 354 143 292 143 q 460 167 428 143 q 493 233 493 192 q 488 261 493 247 q 466 289 482 275 q 422 316 450 303 q 349 343 393 329 l 281 367 q 190 407 232 385 q 119 460 149 429 q 72 531 89 490 q 56 626 56 571 q 77 732 56 683 q 141 816 99 781 q 245 872 183 851 q 388 892 307 892 m 344 -282 q 282 -249 306 -275 q 258 -185 258 -224 q 284 -118 258 -147 q 357 -89 310 -89 q 395 -97 375 -89 q 432 -121 415 -104 q 460 -165 449 -137 q 471 -231 471 -192 q 457 -308 471 -271 q 422 -377 443 -346 q 372 -433 400 -408 q 314 -472 343 -458 l 268 -411 q 333 -359 304 -392 q 368 -286 361 -326 l 344 -282 z "},"Ŧ":{"ha":710,"x_min":14,"x_max":697,"o":"m 697 875 l 697 711 l 458 711 l 458 500 l 590 500 l 590 358 l 458 358 l 458 0 l 247 0 l 247 358 l 115 358 l 115 500 l 247 500 l 247 711 l 14 711 l 14 875 l 697 875 z "},"Ť":{"ha":710,"x_min":14,"x_max":697,"o":"m 697 875 l 697 711 l 458 711 l 458 0 l 247 0 l 247 711 l 14 711 l 14 875 l 697 875 m 428 958 l 276 958 l 117 1131 l 269 1131 l 353 1042 l 436 1131 l 583 1131 l 428 958 z "},"Ţ":{"ha":710,"x_min":14,"x_max":697,"o":"m 697 875 l 697 711 l 458 711 l 458 0 l 247 0 l 247 711 l 14 711 l 14 875 l 697 875 m 326 -282 q 264 -249 288 -275 q 240 -185 240 -224 q 266 -118 240 -147 q 339 -89 292 -89 q 377 -97 357 -89 q 414 -121 397 -104 q 442 -165 431 -137 q 453 -231 453 -192 q 439 -308 453 -271 q 403 -377 425 -346 q 353 -433 382 -408 q 296 -472 325 -458 l 250 -411 q 315 -359 286 -392 q 350 -286 343 -326 l 326 -282 z "},"Ŭ":{"ha":928,"x_min":92,"x_max":836,"o":"m 92 875 l 303 875 l 303 351 q 343 199 303 253 q 468 144 383 144 q 588 198 551 144 q 625 335 625 251 l 625 875 l 836 875 l 836 353 q 468 -15 836 -15 q 192 76 293 -15 q 92 360 92 168 l 92 875 m 396 1131 q 415 1080 397 1099 q 469 1061 432 1061 q 540 1131 538 1061 l 654 1131 q 606 999 654 1046 q 468 951 558 951 q 383 966 418 951 q 324 1005 347 981 q 291 1062 301 1029 q 281 1131 281 1094 l 396 1131 z "},"Ű":{"ha":928,"x_min":92,"x_max":836,"o":"m 92 875 l 303 875 l 303 351 q 343 199 303 253 q 468 144 383 144 q 588 198 551 144 q 625 335 625 251 l 625 875 l 836 875 l 836 353 q 468 -15 836 -15 q 192 76 293 -15 q 92 360 92 168 l 92 875 m 351 958 l 196 958 l 307 1131 l 506 1131 l 351 958 m 653 958 l 497 958 l 608 1131 l 807 1131 l 653 958 z "},"Ū":{"ha":928,"x_min":92,"x_max":836,"o":"m 92 875 l 303 875 l 303 351 q 343 199 303 253 q 468 144 383 144 q 588 198 551 144 q 625 335 625 251 l 625 875 l 836 875 l 836 353 q 468 -15 836 -15 q 192 76 293 -15 q 92 360 92 168 l 92 875 m 649 1072 l 649 958 l 288 958 l 288 1072 l 649 1072 z "},"Ų":{"ha":928,"x_min":92,"x_max":836,"o":"m 92 875 l 303 875 l 303 351 q 343 199 303 253 q 468 144 383 144 q 588 198 551 144 q 625 335 625 251 l 625 875 l 836 875 l 836 353 q 494 -15 836 -1 q 467 -59 475 -37 q 460 -104 460 -81 q 474 -146 460 -131 q 517 -161 489 -161 q 547 -158 535 -161 q 571 -150 560 -154 l 599 -256 q 545 -278 576 -269 q 478 -286 514 -286 q 372 -248 414 -286 q 329 -144 329 -210 q 343 -65 329 -100 q 376 -8 357 -31 q 167 103 242 13 q 92 360 92 193 l 92 875 z "},"Ů":{"ha":928,"x_min":92,"x_max":836,"o":"m 92 875 l 303 875 l 303 351 q 343 199 303 253 q 468 144 383 144 q 588 198 551 144 q 625 335 625 251 l 625 875 l 836 875 l 836 353 q 468 -15 836 -15 q 192 76 293 -15 q 92 360 92 168 l 92 875 m 321 1060 q 363 1156 321 1124 q 469 1189 404 1189 q 576 1156 535 1189 q 618 1060 618 1124 q 606 1003 618 1028 q 574 963 594 979 q 527 939 554 947 q 469 931 500 931 q 364 964 407 931 q 321 1060 321 997 m 417 1060 q 431 1015 417 1031 q 469 999 446 999 q 508 1015 493 999 q 522 1060 522 1031 q 508 1105 522 1089 q 469 1121 493 1121 q 431 1105 446 1121 q 417 1060 417 1089 z "},"Ũ":{"ha":928,"x_min":92,"x_max":836,"o":"m 92 875 l 303 875 l 303 351 q 343 199 303 253 q 468 144 383 144 q 588 198 551 144 q 625 335 625 251 l 625 875 l 836 875 l 836 353 q 468 -15 836 -15 q 192 76 293 -15 q 92 360 92 168 l 92 875 m 257 958 q 265 1024 257 993 q 290 1077 274 1054 q 331 1113 307 1100 q 385 1126 354 1126 q 430 1119 410 1126 q 468 1103 450 1113 q 503 1088 486 1094 q 539 1081 519 1081 q 569 1094 558 1081 q 581 1131 579 1107 l 678 1131 q 644 1010 678 1054 q 556 965 611 965 q 506 972 529 965 q 463 988 483 979 q 426 1003 443 996 q 394 1010 408 1010 q 364 994 372 1010 q 354 958 356 979 l 257 958 z "},"Ẃ":{"ha":1269,"x_min":21,"x_max":1251,"o":"m 635 664 l 497 0 l 238 0 l 21 875 l 236 875 l 338 389 l 369 190 l 375 190 l 407 389 l 518 875 l 757 875 l 871 389 l 903 190 l 908 190 l 939 389 l 1039 875 l 1251 875 l 1039 0 l 778 0 l 635 664 m 701 958 l 532 958 l 643 1131 l 863 1131 l 701 958 z "},"Ŵ":{"ha":1269,"x_min":21,"x_max":1251,"o":"m 635 664 l 497 0 l 238 0 l 21 875 l 236 875 l 338 389 l 369 190 l 375 190 l 407 389 l 518 875 l 757 875 l 871 389 l 903 190 l 908 190 l 939 389 l 1039 875 l 1251 875 l 1039 0 l 778 0 l 635 664 m 560 1131 l 711 1131 l 871 958 l 718 958 l 635 1047 l 551 958 l 404 958 l 560 1131 z "},"Ẅ":{"ha":1269,"x_min":21,"x_max":1251,"o":"m 635 664 l 497 0 l 238 0 l 21 875 l 236 875 l 338 389 l 369 190 l 375 190 l 407 389 l 518 875 l 757 875 l 871 389 l 903 190 l 908 190 l 939 389 l 1039 875 l 1251 875 l 1039 0 l 778 0 l 635 664 m 399 1039 q 426 1104 399 1078 q 493 1131 453 1131 q 560 1104 533 1131 q 586 1039 586 1078 q 560 971 586 999 q 493 943 533 943 q 426 971 453 943 q 399 1039 399 999 m 683 1039 q 710 1104 683 1078 q 778 1131 738 1131 q 844 1104 818 1131 q 871 1039 871 1078 q 844 971 871 999 q 778 943 818 943 q 710 971 738 943 q 683 1039 683 999 z "},"Ẁ":{"ha":1269,"x_min":21,"x_max":1251,"o":"m 635 664 l 497 0 l 238 0 l 21 875 l 236 875 l 338 389 l 369 190 l 375 190 l 407 389 l 518 875 l 757 875 l 871 389 l 903 190 l 908 190 l 939 389 l 1039 875 l 1251 875 l 1039 0 l 778 0 l 635 664 m 411 1131 l 631 1131 l 742 958 l 572 958 l 411 1131 z "},"Ŷ":{"ha":846,"x_min":13,"x_max":836,"o":"m 250 875 l 426 553 l 604 875 l 836 875 l 526 360 l 526 0 l 315 0 l 315 360 l 13 875 l 250 875 m 353 1131 l 504 1131 l 664 958 l 511 958 l 428 1047 l 344 958 l 197 958 l 353 1131 z "},"Ỳ":{"ha":846,"x_min":13,"x_max":836,"o":"m 250 875 l 426 553 l 604 875 l 836 875 l 526 360 l 526 0 l 315 0 l 315 360 l 13 875 l 250 875 m 213 1131 l 432 1131 l 543 958 l 374 958 l 213 1131 z "},"Ź":{"ha":757,"x_min":35,"x_max":715,"o":"m 701 875 l 701 757 l 297 158 l 715 158 l 715 0 l 35 0 l 35 132 l 431 717 l 49 717 l 49 875 l 701 875 m 432 958 l 263 958 l 374 1131 l 593 1131 l 432 958 z "},"Ż":{"ha":757,"x_min":35,"x_max":715,"o":"m 701 875 l 701 757 l 297 158 l 715 158 l 715 0 l 35 0 l 35 132 l 431 717 l 49 717 l 49 875 l 701 875 m 290 1039 q 317 1104 290 1078 q 385 1131 344 1131 q 451 1104 425 1131 q 478 1039 478 1078 q 451 971 478 999 q 385 943 425 943 q 317 971 344 943 q 290 1039 290 999 z "},"":{"ha":740,"x_min":22,"x_max":717,"o":"m 257 667 l 483 667 l 717 0 l 511 0 l 471 129 l 265 129 l 225 0 l 22 0 l 257 667 m 371 479 l 368 479 q 351 413 361 451 q 331 346 340 375 l 306 265 l 431 265 l 406 346 q 386 414 396 376 q 371 479 376 451 z "},"":{"ha":688,"x_min":81,"x_max":653,"o":"m 381 667 q 564 618 504 667 q 624 490 624 569 q 593 403 624 438 q 510 351 563 368 q 616 295 579 336 q 653 193 653 254 q 585 55 653 110 q 379 0 517 0 l 81 0 l 81 667 l 381 667 m 286 414 l 340 414 q 393 426 371 414 q 415 465 415 438 q 397 503 415 490 q 338 517 379 517 l 286 517 l 286 414 m 286 150 l 346 150 q 419 164 396 150 q 442 211 442 178 q 422 251 442 235 q 351 267 401 267 l 286 267 l 286 150 z "},"":{"ha":658,"x_min":54,"x_max":617,"o":"m 449 135 q 527 147 493 135 q 579 168 561 158 l 617 29 q 538 0 593 15 q 415 -15 482 -15 q 272 7 338 -15 q 158 73 206 29 q 82 181 110 117 q 54 331 54 246 q 81 473 54 408 q 156 584 107 538 q 271 656 204 631 q 419 682 338 682 q 513 672 463 682 q 617 635 564 663 l 574 494 q 512 522 546 511 q 443 533 478 533 q 313 484 363 533 q 263 336 263 435 q 279 242 263 281 q 322 180 296 204 q 382 145 349 156 q 449 135 415 135 z "},"":{"ha":768,"x_min":81,"x_max":719,"o":"m 363 667 q 501 649 436 667 q 615 592 567 631 q 692 492 664 553 q 719 347 719 432 q 690 188 719 254 q 610 81 661 122 q 490 19 558 39 q 340 0 421 0 l 81 0 l 81 667 l 363 667 m 286 151 l 326 151 q 388 159 356 151 q 448 188 421 167 q 493 246 475 208 q 511 343 511 283 q 466 470 511 425 q 326 515 421 515 l 286 515 l 286 151 z "},"":{"ha":626,"x_min":81,"x_max":565,"o":"m 81 667 l 563 667 l 563 517 l 283 517 l 283 411 l 532 411 l 532 263 l 283 263 l 283 150 l 565 150 l 565 0 l 81 0 l 81 667 z "},"":{"ha":599,"x_min":81,"x_max":550,"o":"m 550 667 l 550 517 l 286 517 l 286 382 l 525 382 l 525 232 l 286 232 l 286 0 l 81 0 l 81 667 l 550 667 z "},"":{"ha":711,"x_min":54,"x_max":658,"o":"m 425 135 q 452 137 438 135 q 474 143 467 139 l 474 236 l 379 236 l 379 382 l 658 382 l 658 24 q 546 -6 610 4 q 415 -15 482 -15 q 273 6 339 -15 q 158 70 207 28 q 82 176 110 113 q 54 325 54 240 q 81 472 54 406 q 155 585 107 538 q 270 657 203 632 q 418 682 338 682 q 531 672 476 682 q 639 635 586 661 l 600 496 q 525 524 565 514 q 444 533 485 533 q 308 479 354 533 q 263 329 263 425 q 276 238 263 275 q 313 177 290 200 q 364 144 335 154 q 425 135 393 135 z "},"":{"ha":788,"x_min":81,"x_max":707,"o":"m 81 0 l 81 667 l 282 667 l 282 421 l 504 421 l 504 667 l 707 667 l 707 0 l 504 0 l 504 272 l 282 272 l 282 0 l 81 0 z "},"":{"ha":367,"x_min":81,"x_max":286,"o":"m 286 667 l 286 0 l 81 0 l 81 667 l 286 667 z "},"":{"ha":365,"x_min":-21,"x_max":285,"o":"m 285 667 l 285 101 q 275 -40 285 22 q 231 -154 265 -101 q 126 -235 190 -215 q -21 -254 63 -254 l -21 -99 q 26 -90 1 -99 q 64 -54 50 -82 q 77 -3 75 -35 q 79 61 79 29 l 79 667 l 285 667 z "},"":{"ha":739,"x_min":81,"x_max":743,"o":"m 81 0 l 81 667 l 272 667 l 272 413 l 478 667 l 719 667 l 458 379 l 743 0 l 499 0 l 325 263 l 272 203 l 272 0 l 81 0 z "},"":{"ha":572,"x_min":81,"x_max":558,"o":"m 81 667 l 286 667 l 286 142 l 558 142 l 558 0 l 81 0 l 81 667 z "},"":{"ha":956,"x_min":67,"x_max":889,"o":"m 119 667 l 368 667 l 433 432 q 445 389 439 414 q 458 335 451 364 q 469 277 464 307 q 476 221 474 247 l 482 221 q 500 335 489 275 q 522 432 511 394 l 585 667 l 835 667 l 889 0 l 704 0 l 693 225 q 690 281 692 250 q 688 344 689 311 q 688 407 688 376 q 688 463 688 438 l 685 463 q 672 401 681 435 q 655 335 664 367 q 638 277 646 303 q 625 239 629 251 l 551 0 l 403 0 l 326 238 q 312 285 319 258 q 297 342 304 313 q 282 403 289 372 q 271 463 275 435 l 267 463 q 268 404 268 436 q 267 340 268 372 q 264 277 265 307 q 261 225 263 247 l 249 0 l 67 0 l 119 667 z "},"":{"ha":813,"x_min":81,"x_max":732,"o":"m 81 667 l 290 667 l 436 442 q 500 333 468 389 q 547 233 532 278 l 550 233 q 542 347 543 290 q 542 460 542 403 l 542 667 l 732 667 l 732 0 l 521 0 l 368 226 q 310 328 338 276 q 265 438 283 381 l 263 438 q 269 324 268 378 q 269 211 269 269 l 269 0 l 81 0 l 81 667 z "},"":{"ha":803,"x_min":54,"x_max":749,"o":"m 749 338 q 722 190 749 256 q 647 79 694 125 q 536 9 600 33 q 399 -15 472 -15 q 262 8 325 -15 q 153 74 199 31 q 81 180 107 117 q 54 324 54 243 q 81 475 54 408 q 156 588 108 542 q 267 658 203 633 q 404 682 331 682 q 541 660 478 682 q 650 594 604 638 q 722 486 696 550 q 749 338 749 422 m 538 331 q 526 423 538 385 q 496 485 515 461 q 451 521 476 510 q 400 532 426 532 q 349 522 374 532 q 306 489 325 513 q 276 427 288 465 q 265 331 265 389 q 307 182 265 229 q 403 135 349 135 q 453 145 429 135 q 497 178 478 156 q 526 239 515 201 q 538 331 538 276 z "},"":{"ha":665,"x_min":81,"x_max":631,"o":"m 81 667 l 367 667 q 467 652 419 667 q 551 610 515 638 q 609 542 588 582 q 631 451 631 503 q 602 329 631 376 q 528 256 574 282 q 427 221 483 231 q 315 211 371 211 l 286 211 l 286 0 l 81 0 l 81 667 m 285 361 l 319 361 q 356 365 338 361 q 388 378 374 368 q 413 404 403 388 q 422 447 422 421 q 413 483 422 469 q 390 503 404 496 q 358 514 376 511 q 324 517 340 517 l 285 517 l 285 361 z "},"":{"ha":792,"x_min":54,"x_max":819,"o":"m 749 338 q 729 211 749 268 q 676 110 710 154 q 594 38 642 67 q 490 -4 546 8 l 490 -11 q 533 -24 513 -15 q 573 -42 553 -33 q 617 -59 593 -51 q 669 -67 640 -67 q 723 -60 701 -67 q 763 -42 744 -53 l 819 -183 q 766 -206 804 -194 q 683 -218 728 -218 q 596 -206 635 -218 q 523 -181 557 -194 q 455 -155 489 -167 q 381 -143 421 -143 q 290 -160 329 -143 q 217 -201 250 -178 l 143 -62 q 209 -24 171 -40 q 278 -1 247 -7 l 278 1 q 116 115 178 33 q 54 324 54 197 q 81 475 54 408 q 156 588 108 542 q 267 658 203 633 q 404 682 331 682 q 541 660 478 682 q 650 594 604 638 q 722 486 696 550 q 749 338 749 422 m 538 331 q 526 423 538 385 q 496 485 515 461 q 451 521 476 510 q 400 532 426 532 q 349 522 374 532 q 306 489 325 513 q 276 427 288 465 q 265 331 265 389 q 307 182 265 229 q 403 135 349 135 q 453 145 429 135 q 497 178 478 156 q 526 239 515 201 q 538 331 538 276 z "},"":{"ha":688,"x_min":81,"x_max":667,"o":"m 81 667 l 367 667 q 474 653 425 667 q 558 611 522 639 q 615 543 594 583 q 635 449 635 503 q 598 327 635 375 q 513 258 561 279 l 667 0 l 447 0 l 342 208 l 288 208 l 288 0 l 81 0 l 81 667 m 286 357 l 325 357 q 400 376 371 357 q 429 439 429 396 q 404 497 429 478 q 322 517 379 517 l 286 517 l 286 357 z "},"":{"ha":618,"x_min":49,"x_max":569,"o":"m 492 496 q 413 524 454 514 q 332 535 371 535 q 274 522 296 535 q 251 488 251 510 q 273 448 251 464 q 358 414 294 432 l 400 401 q 526 328 483 376 q 569 206 569 281 q 549 115 569 156 q 490 44 528 74 q 398 0 451 15 q 279 -15 344 -15 q 153 -3 208 -15 q 51 33 99 10 l 96 182 q 180 148 136 161 q 269 135 224 135 q 344 150 322 135 q 365 186 365 165 q 360 208 365 199 q 343 225 356 217 q 308 241 331 233 q 249 260 285 249 l 206 272 q 86 345 124 299 q 49 471 49 392 q 67 555 49 517 q 119 622 85 593 q 202 666 153 650 q 315 682 251 682 q 434 670 379 682 q 533 638 489 658 l 492 496 z "},"":{"ha":578,"x_min":14,"x_max":565,"o":"m 565 667 l 565 517 l 390 517 l 390 0 l 185 0 l 185 517 l 14 517 l 14 667 l 565 667 z "},"":{"ha":785,"x_min":81,"x_max":704,"o":"m 81 667 l 286 667 l 286 313 q 294 224 286 258 q 317 171 303 190 q 351 144 332 151 q 393 136 371 136 q 473 174 447 136 q 499 299 499 211 l 499 667 l 704 667 l 704 308 q 631 65 704 146 q 404 -15 557 -15 q 163 64 246 -15 q 81 307 81 143 l 81 667 z "},"":{"ha":707,"x_min":13,"x_max":697,"o":"m 231 667 l 306 426 q 335 314 321 376 q 357 203 350 251 l 360 203 q 369 257 364 228 q 381 317 375 286 q 395 376 388 347 q 410 429 403 406 l 483 667 l 697 667 l 468 0 l 247 0 l 13 667 l 231 667 z "},"":{"ha":1008,"x_min":13,"x_max":999,"o":"m 218 667 l 276 388 q 294 297 286 340 q 310 207 303 254 l 311 207 q 324 297 317 254 q 343 388 332 340 l 407 667 l 607 667 l 671 388 q 690 299 682 343 q 704 207 699 254 l 706 207 q 720 300 713 254 q 738 388 728 346 l 796 667 l 999 667 l 838 0 l 604 0 l 538 283 q 519 372 526 328 q 506 464 511 417 l 503 464 q 490 372 497 417 q 472 283 483 328 l 408 0 l 178 0 l 13 667 l 218 667 z "},"":{"ha":742,"x_min":13,"x_max":732,"o":"m 496 342 l 732 0 l 496 0 l 440 83 l 367 215 l 299 85 l 246 0 l 13 0 l 246 342 l 26 667 l 256 667 l 311 581 l 376 454 l 438 581 l 489 667 l 714 667 l 496 342 z "},"":{"ha":665,"x_min":13,"x_max":656,"o":"m 231 667 l 335 426 l 444 667 l 656 667 l 431 257 l 431 0 l 229 0 l 229 257 l 13 667 l 231 667 z "},"":{"ha":586,"x_min":28,"x_max":558,"o":"m 551 540 l 254 147 l 558 147 l 558 0 l 28 0 l 28 131 l 325 519 l 44 519 l 44 667 l 551 667 l 551 540 z "},"ă":{"ha":711,"x_min":42,"x_max":642,"o":"m 93 608 q 222 662 150 642 q 368 682 293 682 q 567 622 492 682 q 642 432 642 563 l 642 0 l 485 0 l 467 67 l 461 67 q 384 8 433 31 q 268 -15 335 -15 q 169 1 211 -15 q 99 46 126 18 q 56 112 71 74 q 42 193 42 150 q 67 293 42 251 q 137 361 93 335 q 240 400 181 388 q 365 413 299 413 l 435 413 l 435 449 q 408 506 435 486 q 333 526 382 526 q 251 514 292 526 q 163 474 211 501 l 93 608 m 436 288 l 390 286 q 325 278 351 285 q 283 260 299 271 q 260 235 267 250 q 253 206 253 221 q 278 147 253 163 q 338 131 304 131 q 398 150 371 131 q 436 193 425 169 l 436 288 m 315 958 q 333 897 317 919 q 388 875 349 875 q 460 958 457 875 l 574 958 q 526 820 574 871 q 388 769 478 769 q 302 785 338 769 q 244 826 267 800 q 210 887 221 853 q 200 958 200 921 l 315 958 z "},"ā":{"ha":711,"x_min":42,"x_max":642,"o":"m 93 608 q 222 662 150 642 q 368 682 293 682 q 567 622 492 682 q 642 432 642 563 l 642 0 l 485 0 l 467 67 l 461 67 q 384 8 433 31 q 268 -15 335 -15 q 169 1 211 -15 q 99 46 126 18 q 56 112 71 74 q 42 193 42 150 q 67 293 42 251 q 137 361 93 335 q 240 400 181 388 q 365 413 299 413 l 435 413 l 435 449 q 408 506 435 486 q 333 526 382 526 q 251 514 292 526 q 163 474 211 501 l 93 608 m 436 288 l 390 286 q 325 278 351 285 q 283 260 299 271 q 260 235 267 250 q 253 206 253 221 q 278 147 253 163 q 338 131 304 131 q 398 150 371 131 q 436 193 425 169 l 436 288 m 563 919 l 563 806 l 194 806 l 194 919 l 563 919 z "},"ą":{"ha":718,"x_min":42,"x_max":700,"o":"m 603 0 q 561 -107 561 -53 q 618 -161 561 -161 q 649 -158 636 -161 q 672 -150 661 -156 l 700 -256 q 647 -278 678 -269 q 579 -286 615 -286 q 473 -251 515 -286 q 431 -151 431 -217 q 449 -61 431 -99 q 485 0 467 -24 l 467 67 l 461 67 q 384 8 433 31 q 268 -15 335 -15 q 169 1 211 -15 q 99 46 126 18 q 56 112 71 74 q 42 193 42 150 q 67 293 42 251 q 137 361 93 335 q 240 400 181 388 q 365 413 299 413 l 435 413 l 435 449 q 408 506 435 486 q 333 526 382 526 q 251 514 292 526 q 163 474 211 501 l 93 608 q 222 662 150 642 q 368 682 293 682 q 567 622 492 682 q 642 432 642 563 l 642 0 l 603 0 m 436 288 l 390 286 q 325 278 351 285 q 283 260 299 271 q 260 235 267 250 q 253 206 253 221 q 278 147 253 163 q 338 131 304 131 q 398 150 371 131 q 436 193 425 169 l 436 288 z "},"ǽ":{"ha":1110,"x_min":42,"x_max":1064,"o":"m 585 758 l 443 758 l 540 972 l 739 972 l 585 758 m 1064 288 l 633 288 l 633 282 q 688 169 633 204 q 824 135 742 135 q 924 146 881 135 q 996 172 967 157 l 1033 31 q 944 -1 997 13 q 811 -15 890 -15 q 650 10 724 -15 q 524 90 576 36 l 518 90 q 423 15 479 44 q 275 -15 367 -15 q 173 1 217 -15 q 100 46 129 18 q 56 112 71 74 q 42 193 42 150 q 67 293 42 251 q 137 361 93 335 q 240 400 181 388 q 365 413 299 413 l 449 413 l 449 449 q 418 506 449 486 q 333 526 388 526 q 251 514 292 526 q 163 474 211 501 l 93 608 q 218 662 150 642 q 361 682 286 682 q 478 660 424 682 q 561 597 532 638 l 564 597 q 645 659 593 636 q 763 682 697 682 q 982 599 900 682 q 1064 361 1064 515 l 1064 288 m 253 206 q 278 147 253 163 q 338 131 304 131 q 408 151 374 131 q 458 200 443 172 q 442 288 446 239 l 390 286 q 325 278 351 285 q 283 260 299 271 q 260 235 267 250 q 253 206 253 221 m 854 414 q 849 460 854 438 q 831 499 843 482 q 801 527 819 517 q 756 538 782 538 q 675 503 707 538 q 638 411 643 469 l 854 414 z "},"ć":{"ha":658,"x_min":54,"x_max":617,"o":"m 449 135 q 527 147 493 135 q 579 168 561 158 l 617 29 q 538 0 593 15 q 415 -15 482 -15 q 272 7 338 -15 q 158 73 206 29 q 82 181 110 117 q 54 331 54 246 q 81 473 54 408 q 156 584 107 538 q 271 656 204 631 q 419 682 338 682 q 513 672 463 682 q 617 635 564 663 l 574 494 q 512 522 546 511 q 443 533 478 533 q 313 484 363 533 q 263 336 263 435 q 279 242 263 281 q 322 180 296 204 q 382 145 349 156 q 449 135 415 135 m 418 758 l 276 758 l 374 972 l 572 972 l 418 758 z "},"č":{"ha":658,"x_min":54,"x_max":624,"o":"m 449 135 q 527 147 493 135 q 579 168 561 158 l 617 29 q 538 0 593 15 q 415 -15 482 -15 q 272 7 338 -15 q 158 73 206 29 q 82 181 110 117 q 54 331 54 246 q 81 473 54 408 q 156 584 107 538 q 271 656 204 631 q 419 682 338 682 q 513 672 463 682 q 617 635 564 663 l 574 494 q 512 522 546 511 q 443 533 478 533 q 313 484 363 533 q 263 336 263 435 q 279 242 263 281 q 322 180 296 204 q 382 145 349 156 q 449 135 415 135 m 157 958 l 304 958 l 388 856 l 471 958 l 624 958 l 443 758 l 333 758 l 157 958 z "},"ĉ":{"ha":658,"x_min":54,"x_max":617,"o":"m 449 135 q 527 147 493 135 q 579 168 561 158 l 617 29 q 538 0 593 15 q 415 -15 482 -15 q 272 7 338 -15 q 158 73 206 29 q 82 181 110 117 q 54 331 54 246 q 81 473 54 408 q 156 584 107 538 q 271 656 204 631 q 419 682 338 682 q 513 672 463 682 q 617 635 564 663 l 574 494 q 512 522 546 511 q 443 533 478 533 q 313 484 363 533 q 263 336 263 435 q 279 242 263 281 q 322 180 296 204 q 382 145 349 156 q 449 135 415 135 m 606 758 l 458 758 l 375 861 l 292 758 l 139 758 l 319 958 l 429 958 l 606 758 z "},"ċ":{"ha":658,"x_min":54,"x_max":617,"o":"m 449 135 q 527 147 493 135 q 579 168 561 158 l 617 29 q 538 0 593 15 q 415 -15 482 -15 q 272 7 338 -15 q 158 73 206 29 q 82 181 110 117 q 54 331 54 246 q 81 473 54 408 q 156 584 107 538 q 271 656 204 631 q 419 682 338 682 q 513 672 463 682 q 617 635 564 663 l 574 494 q 512 522 546 511 q 443 533 478 533 q 313 484 363 533 q 263 336 263 435 q 279 242 263 281 q 322 180 296 204 q 382 145 349 156 q 449 135 415 135 m 299 861 q 327 929 299 900 q 396 958 356 958 q 465 929 438 958 q 492 861 492 900 q 465 791 492 819 q 396 763 438 763 q 327 791 356 763 q 299 861 299 819 z "},"ď":{"ha":822,"x_min":54,"x_max":1001,"o":"m 514 993 l 719 993 l 719 0 l 578 0 l 557 72 l 550 72 q 483 13 531 42 q 357 -15 435 -15 q 236 9 292 -15 q 140 78 181 33 q 77 188 100 124 q 54 333 54 253 q 75 477 54 413 q 135 587 96 542 q 233 657 175 632 q 365 682 292 682 q 452 669 411 682 q 514 636 493 656 l 514 993 m 514 486 q 475 518 501 503 q 417 533 449 533 q 357 523 385 533 q 308 489 329 513 q 274 428 286 465 q 261 338 261 392 q 302 184 261 233 q 408 135 343 135 q 476 156 449 135 q 514 200 503 176 l 514 486 m 875 829 q 813 862 836 836 q 789 926 789 888 q 815 993 789 964 q 888 1022 840 1022 q 926 1015 906 1022 q 963 990 946 1007 q 990 947 979 974 q 1001 881 1001 919 q 988 803 1001 840 q 952 734 974 765 q 902 678 931 703 q 844 639 874 653 l 799 700 q 863 752 835 719 q 899 825 892 785 l 875 829 z "},"·":{"ha":335,"x_min":63,"x_max":300,"o":"m 63 454 q 98 541 63 507 q 182 575 133 575 q 265 541 231 575 q 300 454 300 507 q 265 365 300 397 q 182 332 231 332 q 98 365 133 332 q 63 454 63 397 z "},"≤":{"ha":631,"x_min":56,"x_max":575,"o":"m 56 506 l 56 614 l 575 850 l 575 708 l 215 560 l 575 411 l 575 269 l 56 506 m 56 204 l 56 92 l 574 92 l 574 204 l 56 204 z "},"≥":{"ha":631,"x_min":56,"x_max":575,"o":"m 575 614 l 575 506 l 56 269 l 56 411 l 415 560 l 56 708 l 56 850 l 575 614 m 56 204 l 56 92 l 574 92 l 574 204 l 56 204 z "},"đ":{"ha":844,"x_min":54,"x_max":831,"o":"m 514 993 l 719 993 l 719 892 l 831 892 l 831 778 l 719 778 l 719 0 l 578 0 l 557 72 l 550 72 q 483 13 531 42 q 357 -15 435 -15 q 236 9 292 -15 q 140 78 181 33 q 77 188 100 124 q 54 333 54 253 q 75 477 54 413 q 135 587 96 542 q 233 657 175 632 q 365 682 292 682 q 452 669 411 682 q 514 636 493 656 l 514 778 l 346 778 l 346 892 l 514 892 l 514 993 m 514 486 q 475 518 501 503 q 417 533 449 533 q 357 523 385 533 q 308 489 329 513 q 274 428 286 465 q 261 338 261 392 q 302 184 261 233 q 408 135 343 135 q 476 156 449 135 q 514 200 503 176 l 514 486 z "},"ĕ":{"ha":728,"x_min":44,"x_max":682,"o":"m 682 288 l 251 288 l 251 282 q 306 169 251 204 q 442 135 360 135 q 542 146 499 135 q 614 172 585 157 l 651 31 q 556 -1 614 13 q 415 -15 499 -15 q 273 5 340 -15 q 155 67 206 25 q 74 172 104 108 q 44 325 44 236 q 69 470 44 404 q 138 583 93 536 q 244 656 182 631 q 381 682 306 682 q 600 599 518 682 q 682 361 682 515 l 682 288 m 472 414 q 467 460 472 438 q 449 499 461 482 q 419 527 438 517 q 374 538 400 538 q 293 503 325 538 q 256 411 261 469 l 472 414 m 308 958 q 326 897 310 919 q 381 875 342 875 q 453 958 450 875 l 567 958 q 519 820 567 871 q 381 769 471 769 q 295 785 331 769 q 237 826 260 800 q 203 887 214 853 q 193 958 193 921 l 308 958 z "},"ě":{"ha":728,"x_min":44,"x_max":682,"o":"m 682 288 l 251 288 l 251 282 q 306 169 251 204 q 442 135 360 135 q 542 146 499 135 q 614 172 585 157 l 651 31 q 556 -1 614 13 q 415 -15 499 -15 q 273 5 340 -15 q 155 67 206 25 q 74 172 104 108 q 44 325 44 236 q 69 470 44 404 q 138 583 93 536 q 244 656 182 631 q 381 682 306 682 q 600 599 518 682 q 682 361 682 515 l 682 288 m 472 414 q 467 460 472 438 q 449 499 461 482 q 419 527 438 517 q 374 538 400 538 q 293 503 325 538 q 256 411 261 469 l 472 414 m 436 758 l 326 758 l 150 958 l 297 958 l 381 856 l 464 958 l 617 958 l 436 758 z "},"ė":{"ha":728,"x_min":44,"x_max":682,"o":"m 682 288 l 251 288 l 251 282 q 306 169 251 204 q 442 135 360 135 q 542 146 499 135 q 614 172 585 157 l 651 31 q 556 -1 614 13 q 415 -15 499 -15 q 273 5 340 -15 q 155 67 206 25 q 74 172 104 108 q 44 325 44 236 q 69 470 44 404 q 138 583 93 536 q 244 656 182 631 q 381 682 306 682 q 600 599 518 682 q 682 361 682 515 l 682 288 m 472 414 q 467 460 472 438 q 449 499 461 482 q 419 527 438 517 q 374 538 400 538 q 293 503 325 538 q 256 411 261 469 l 472 414 m 279 861 q 308 929 279 900 q 376 958 336 958 q 445 929 418 958 q 472 861 472 900 q 445 791 472 819 q 376 763 418 763 q 308 791 336 763 q 279 861 279 819 z "},"ē":{"ha":728,"x_min":44,"x_max":682,"o":"m 682 288 l 251 288 l 251 282 q 306 169 251 204 q 442 135 360 135 q 542 146 499 135 q 614 172 585 157 l 651 31 q 556 -1 614 13 q 415 -15 499 -15 q 273 5 340 -15 q 155 67 206 25 q 74 172 104 108 q 44 325 44 236 q 69 470 44 404 q 138 583 93 536 q 244 656 182 631 q 381 682 306 682 q 600 599 518 682 q 682 361 682 515 l 682 288 m 472 414 q 467 460 472 438 q 449 499 461 482 q 419 527 438 517 q 374 538 400 538 q 293 503 325 538 q 256 411 261 469 l 472 414 m 563 919 l 563 806 l 194 806 l 194 919 l 563 919 z "},"ę":{"ha":728,"x_min":44,"x_max":682,"o":"m 682 288 l 251 288 l 251 282 q 306 169 251 204 q 442 135 360 135 q 542 146 499 135 q 614 172 585 157 l 651 31 q 629 22 640 25 q 603 11 618 18 q 519 -107 519 -46 q 576 -161 519 -161 q 607 -158 594 -161 q 631 -150 619 -156 l 658 -256 q 605 -278 636 -269 q 538 -286 574 -286 q 431 -251 474 -286 q 389 -151 389 -217 q 408 -75 389 -107 q 454 -19 426 -43 l 454 -14 q 435 -15 444 -15 q 415 -15 425 -15 q 273 5 340 -15 q 155 67 206 25 q 74 172 104 108 q 44 325 44 236 q 69 470 44 404 q 138 583 93 536 q 244 656 182 631 q 381 682 306 682 q 600 599 518 682 q 682 361 682 515 l 682 288 m 472 414 q 467 460 472 438 q 449 499 461 482 q 419 527 438 517 q 374 538 400 538 q 293 503 325 538 q 256 411 261 469 l 472 414 z "},"ﬀ":{"ha":963,"x_min":21,"x_max":1029,"o":"m 836 993 q 941 979 890 993 q 1029 943 992 965 l 989 811 q 944 830 967 822 q 893 838 921 838 q 827 813 849 838 q 806 726 806 788 l 806 667 l 963 667 l 963 519 l 806 519 l 806 0 l 601 0 l 601 519 l 328 519 l 328 0 l 124 0 l 124 519 l 21 519 l 21 667 l 124 667 l 124 765 q 189 935 124 878 q 358 993 254 993 q 463 979 413 993 q 551 943 514 965 l 511 811 q 466 830 489 822 q 415 838 443 838 q 349 813 371 838 q 328 726 328 788 l 328 667 l 601 667 l 601 765 q 667 935 601 878 q 836 993 732 993 z "},"ﬃ":{"ha":1293,"x_min":21,"x_max":1204,"o":"m 372 993 q 477 979 426 993 q 565 943 528 965 l 525 811 q 480 830 503 822 q 429 838 457 838 q 353 809 378 838 q 328 713 328 781 l 328 667 l 588 667 l 588 724 q 608 841 588 790 q 664 925 628 892 q 751 976 700 958 q 864 993 803 993 q 976 979 922 993 q 1071 943 1031 965 l 1031 811 q 979 830 1006 822 q 921 838 953 838 q 823 806 854 838 q 792 699 792 774 l 792 667 l 1204 667 l 1204 0 l 999 0 l 999 519 l 792 519 l 792 0 l 588 0 l 588 519 l 328 519 l 328 0 l 124 0 l 124 519 l 21 519 l 21 667 l 124 667 l 124 751 q 192 932 124 871 q 372 993 261 993 z "},"ﬄ":{"ha":1294,"x_min":21,"x_max":1206,"o":"m 1003 0 l 1003 519 l 782 519 l 782 0 l 578 0 l 578 519 l 328 519 l 328 0 l 124 0 l 124 519 l 21 519 l 21 667 l 124 667 l 124 751 q 192 932 124 871 q 372 993 261 993 q 477 979 426 993 q 565 943 528 965 l 525 811 q 480 830 503 822 q 429 838 457 838 q 353 809 378 838 q 328 713 328 781 l 328 667 l 578 667 l 578 710 q 601 833 578 781 q 666 922 624 886 q 767 975 708 957 q 896 993 825 993 q 1006 983 957 993 q 1094 959 1056 974 q 1160 929 1132 944 q 1206 903 1188 914 l 1206 0 l 1003 0 m 925 838 q 817 803 851 838 q 782 685 782 768 l 782 667 l 1003 667 l 1003 822 q 965 833 985 829 q 925 838 946 838 z "},"ﬁ":{"ha":829,"x_min":21,"x_max":740,"o":"m 535 0 l 535 519 l 328 519 l 328 0 l 124 0 l 124 519 l 21 519 l 21 667 l 124 667 l 124 724 q 144 841 124 790 q 200 925 164 892 q 288 976 236 958 q 400 993 339 993 q 513 979 458 993 q 607 943 567 965 l 567 811 q 515 830 542 822 q 457 838 489 838 q 359 806 390 838 q 328 699 328 774 l 328 667 l 740 667 l 740 0 l 535 0 z "},"ﬂ":{"ha":840,"x_min":21,"x_max":751,"o":"m 549 0 l 549 519 l 328 519 l 328 0 l 124 0 l 124 519 l 21 519 l 21 667 l 124 667 l 124 710 q 147 833 124 781 q 212 922 169 886 q 313 975 254 957 q 442 993 371 993 q 552 983 503 993 q 640 959 601 974 q 706 929 678 944 q 751 903 733 914 l 751 0 l 549 0 m 328 667 l 549 667 l 549 822 q 511 833 531 829 q 471 838 492 838 q 363 803 397 838 q 328 685 328 768 l 328 667 z "},"ğ":{"ha":808,"x_min":39,"x_max":767,"o":"m 79 438 q 101 537 79 492 q 163 615 124 582 q 256 665 203 647 q 374 682 310 682 q 428 678 397 682 q 483 667 458 674 l 767 667 l 767 540 l 703 540 l 625 553 q 651 500 640 532 q 661 436 661 468 q 642 340 661 383 q 585 265 622 297 q 493 216 547 233 q 371 199 439 199 q 342 200 356 199 q 314 204 328 201 q 296 189 304 199 q 288 164 288 179 q 301 135 288 146 q 354 124 314 124 l 494 124 q 594 113 549 124 q 673 76 640 101 q 724 12 706 51 q 742 -83 742 -28 q 715 -183 742 -137 q 641 -262 689 -229 q 524 -315 593 -296 q 372 -333 456 -333 q 128 -279 217 -333 q 39 -125 39 -225 q 69 -47 39 -81 q 153 7 99 -12 q 115 45 136 18 q 94 113 94 72 q 123 194 94 160 q 194 249 151 228 q 156 276 176 258 q 119 317 136 293 q 90 370 101 340 q 79 438 79 400 m 267 -29 q 238 -54 250 -37 q 225 -96 225 -71 q 258 -156 225 -131 q 378 -181 290 -181 q 499 -153 460 -181 q 539 -90 539 -126 q 517 -44 539 -58 q 442 -29 494 -29 l 267 -29 m 461 440 q 435 515 461 489 q 371 540 410 540 q 306 515 331 540 q 281 440 281 489 q 306 366 281 392 q 371 340 332 340 q 436 366 411 340 q 461 440 461 392 m 306 958 q 323 897 307 919 q 378 875 339 875 q 450 958 447 875 l 564 958 q 516 820 564 871 q 378 769 468 769 q 292 785 328 769 q 234 826 257 800 q 201 887 211 853 q 190 958 190 921 l 306 958 z "},"ĝ":{"ha":808,"x_min":39,"x_max":767,"o":"m 79 438 q 101 537 79 492 q 163 615 124 582 q 256 665 203 647 q 374 682 310 682 q 428 678 397 682 q 483 667 458 674 l 767 667 l 767 540 l 703 540 l 625 553 q 651 500 640 532 q 661 436 661 468 q 642 340 661 383 q 585 265 622 297 q 493 216 547 233 q 371 199 439 199 q 342 200 356 199 q 314 204 328 201 q 296 189 304 199 q 288 164 288 179 q 301 135 288 146 q 354 124 314 124 l 494 124 q 594 113 549 124 q 673 76 640 101 q 724 12 706 51 q 742 -83 742 -28 q 715 -183 742 -137 q 641 -262 689 -229 q 524 -315 593 -296 q 372 -333 456 -333 q 128 -279 217 -333 q 39 -125 39 -225 q 69 -47 39 -81 q 153 7 99 -12 q 115 45 136 18 q 94 113 94 72 q 123 194 94 160 q 194 249 151 228 q 156 276 176 258 q 119 317 136 293 q 90 370 101 340 q 79 438 79 400 m 267 -29 q 238 -54 250 -37 q 225 -96 225 -71 q 258 -156 225 -131 q 378 -181 290 -181 q 499 -153 460 -181 q 539 -90 539 -126 q 517 -44 539 -58 q 442 -29 494 -29 l 267 -29 m 461 440 q 435 515 461 489 q 371 540 410 540 q 306 515 331 540 q 281 440 281 489 q 306 366 281 392 q 371 340 332 340 q 436 366 411 340 q 461 440 461 392 m 619 758 l 472 758 l 389 861 l 306 758 l 153 758 l 333 958 l 443 958 l 619 758 z "},"ģ":{"ha":808,"x_min":39,"x_max":767,"o":"m 79 438 q 101 537 79 492 q 163 615 124 582 q 256 665 203 647 q 374 682 310 682 q 428 678 397 682 q 483 667 458 674 l 767 667 l 767 540 l 703 540 l 625 553 q 651 500 640 532 q 661 436 661 468 q 642 340 661 383 q 585 265 622 297 q 493 216 547 233 q 371 199 439 199 q 342 200 356 199 q 314 204 328 201 q 296 189 304 199 q 288 164 288 179 q 301 135 288 146 q 354 124 314 124 l 494 124 q 594 113 549 124 q 673 76 640 101 q 724 12 706 51 q 742 -83 742 -28 q 715 -183 742 -137 q 641 -262 689 -229 q 524 -315 593 -296 q 372 -333 456 -333 q 128 -279 217 -333 q 39 -125 39 -225 q 69 -47 39 -81 q 153 7 99 -12 q 115 45 136 18 q 94 113 94 72 q 123 194 94 160 q 194 249 151 228 q 156 276 176 258 q 119 317 136 293 q 90 370 101 340 q 79 438 79 400 m 267 -29 q 238 -54 250 -37 q 225 -96 225 -71 q 258 -156 225 -131 q 378 -181 290 -181 q 499 -153 460 -181 q 539 -90 539 -126 q 517 -44 539 -58 q 442 -29 494 -29 l 267 -29 m 461 440 q 435 515 461 489 q 371 540 410 540 q 306 515 331 540 q 281 440 281 489 q 306 366 281 392 q 371 340 332 340 q 436 366 411 340 q 461 440 461 392 m 386 953 q 449 920 425 946 q 472 856 472 894 q 447 789 472 818 q 374 760 421 760 q 335 767 356 760 q 299 792 315 775 q 271 835 282 808 q 260 901 260 863 q 274 979 260 942 q 309 1048 288 1017 q 359 1103 331 1079 q 417 1143 388 1128 l 463 1082 q 398 1030 426 1063 q 363 957 369 997 l 386 953 z "},"ġ":{"ha":808,"x_min":39,"x_max":767,"o":"m 79 438 q 101 537 79 492 q 163 615 124 582 q 256 665 203 647 q 374 682 310 682 q 428 678 397 682 q 483 667 458 674 l 767 667 l 767 540 l 703 540 l 625 553 q 651 500 640 532 q 661 436 661 468 q 642 340 661 383 q 585 265 622 297 q 493 216 547 233 q 371 199 439 199 q 342 200 356 199 q 314 204 328 201 q 296 189 304 199 q 288 164 288 179 q 301 135 288 146 q 354 124 314 124 l 494 124 q 594 113 549 124 q 673 76 640 101 q 724 12 706 51 q 742 -83 742 -28 q 715 -183 742 -137 q 641 -262 689 -229 q 524 -315 593 -296 q 372 -333 456 -333 q 128 -279 217 -333 q 39 -125 39 -225 q 69 -47 39 -81 q 153 7 99 -12 q 115 45 136 18 q 94 113 94 72 q 123 194 94 160 q 194 249 151 228 q 156 276 176 258 q 119 317 136 293 q 90 370 101 340 q 79 438 79 400 m 267 -29 q 238 -54 250 -37 q 225 -96 225 -71 q 258 -156 225 -131 q 378 -181 290 -181 q 499 -153 460 -181 q 539 -90 539 -126 q 517 -44 539 -58 q 442 -29 494 -29 l 267 -29 m 461 440 q 435 515 461 489 q 371 540 410 540 q 306 515 331 540 q 281 440 281 489 q 306 366 281 392 q 371 340 332 340 q 436 366 411 340 q 461 440 461 392 m 290 861 q 319 929 290 900 q 388 958 347 958 q 456 929 429 958 q 483 861 483 900 q 456 791 483 819 q 388 763 429 763 q 319 791 347 763 q 290 861 290 819 z "},"ħ":{"ha":807,"x_min":-28,"x_max":725,"o":"m 417 892 l 417 778 l 289 778 l 289 614 q 378 663 326 643 q 488 682 429 682 q 593 664 549 682 q 667 613 638 646 q 710 536 696 581 q 725 438 725 492 l 725 0 l 519 0 l 519 404 q 492 499 519 471 q 417 526 465 526 q 349 511 383 526 q 289 471 314 496 l 289 0 l 83 0 l 83 778 l -28 778 l -28 892 l 83 892 l 83 993 l 289 993 l 289 892 l 417 892 z "},"ĥ":{"ha":807,"x_min":-50,"x_max":725,"o":"m 289 0 l 83 0 l 83 993 l 289 993 l 289 614 q 378 663 326 643 q 488 682 429 682 q 593 664 549 682 q 667 613 638 646 q 710 536 696 581 q 725 438 725 492 l 725 0 l 519 0 l 519 404 q 492 499 519 471 q 417 526 465 526 q 349 511 383 526 q 289 471 314 496 l 289 0 m 417 1063 l 269 1063 l 186 1165 l 103 1063 l -50 1063 l 131 1263 l 240 1263 l 417 1063 z "},"ĭ":{"ha":404,"x_min":11,"x_max":385,"o":"m 96 0 l 96 667 l 301 667 l 301 0 l 96 0 m 126 958 q 144 897 128 919 q 199 875 160 875 q 271 958 268 875 l 385 958 q 337 820 385 871 q 199 769 289 769 q 113 785 149 769 q 55 826 78 800 q 22 887 32 853 q 11 958 11 921 l 126 958 z "},"ī":{"ha":397,"x_min":14,"x_max":382,"o":"m 96 0 l 96 667 l 301 667 l 301 0 l 96 0 m 382 919 l 382 806 l 14 806 l 14 919 l 382 919 z "},"į":{"ha":397,"x_min":42,"x_max":311,"o":"m 214 0 q 172 -107 172 -53 q 229 -161 172 -161 q 260 -158 247 -161 q 283 -150 272 -156 l 311 -256 q 258 -278 289 -269 q 190 -286 226 -286 q 84 -251 126 -286 q 42 -151 42 -217 q 60 -61 42 -99 q 96 0 78 -24 l 96 667 l 301 667 l 301 0 l 214 0 m 90 899 q 119 970 90 940 q 199 1000 147 1000 q 278 971 250 1000 q 307 899 307 942 q 279 826 307 856 q 199 797 251 797 q 118 827 146 797 q 90 899 90 857 z "},"ĩ":{"ha":397,"x_min":-26,"x_max":424,"o":"m 96 0 l 96 667 l 301 667 l 301 0 l 96 0 m -26 758 q 9 901 -26 851 q 106 950 44 950 q 158 940 132 950 q 206 917 183 929 q 247 895 228 906 q 281 885 265 885 q 316 908 308 885 q 325 958 324 931 l 422 958 q 389 815 424 861 q 292 769 354 769 q 232 779 258 769 q 184 801 206 789 q 145 824 163 814 q 113 833 128 833 q 81 813 90 833 q 71 758 72 792 l -26 758 z "},"ĳ":{"ha":776,"x_min":86,"x_max":690,"o":"m 92 667 l 297 667 l 297 0 l 92 0 l 92 667 m 478 667 l 683 667 l 683 92 q 670 -54 683 14 q 626 -180 657 -122 q 542 -283 594 -237 q 411 -361 490 -328 l 325 -224 q 393 -182 364 -204 q 441 -126 422 -160 q 469 -42 460 -92 q 478 83 478 8 l 478 667 m 86 899 q 115 970 86 940 q 194 1000 143 1000 q 274 971 246 1000 q 303 899 303 942 q 275 826 303 856 q 194 797 247 797 q 114 827 142 797 q 86 899 86 857 m 474 899 q 502 970 474 940 q 582 1000 531 1000 q 662 971 633 1000 q 690 899 690 942 q 663 826 690 856 q 582 797 635 797 q 501 827 529 797 q 474 899 474 857 z "},"ĵ":{"ha":379,"x_min":-76,"x_max":411,"o":"m 76 667 l 282 667 l 282 92 q 269 -54 282 14 q 224 -180 256 -122 q 141 -283 193 -237 q 10 -361 89 -328 l -76 -224 q -8 -182 -37 -204 q 40 -126 21 -160 q 67 -42 58 -92 q 76 83 76 8 l 76 667 m 411 758 l 264 758 l 181 861 l 97 758 l -56 758 l 125 958 l 235 958 l 411 758 z "},"ķ":{"ha":761,"x_min":83,"x_max":756,"o":"m 288 217 l 288 0 l 83 0 l 83 993 l 288 993 l 288 414 l 496 667 l 744 667 l 493 386 l 756 0 l 514 0 l 338 268 l 288 217 m 379 -282 q 317 -249 340 -275 q 293 -185 293 -224 q 319 -118 293 -147 q 392 -89 344 -89 q 430 -97 410 -89 q 467 -121 450 -104 q 494 -165 483 -137 q 506 -231 506 -192 q 492 -308 506 -271 q 456 -377 478 -346 q 406 -433 435 -408 q 349 -472 378 -458 l 303 -411 q 367 -359 339 -392 q 403 -286 396 -326 l 379 -282 z "},"ĺ":{"ha":422,"x_min":85,"x_max":394,"o":"m 85 0 l 85 993 l 288 993 l 288 0 l 85 0 m 240 1076 l 99 1076 l 196 1290 l 394 1290 l 240 1076 z "},"ľ":{"ha":390,"x_min":85,"x_max":569,"o":"m 85 0 l 85 993 l 288 993 l 288 0 l 85 0 m 443 829 q 381 862 404 836 q 357 926 357 888 q 383 993 357 964 q 456 1022 408 1022 q 494 1015 474 1022 q 531 990 514 1007 q 558 947 547 974 q 569 881 569 919 q 556 803 569 840 q 520 734 542 765 q 470 678 499 703 q 413 639 442 653 l 367 700 q 431 752 403 719 q 467 825 460 785 l 443 829 z "},"ļ":{"ha":374,"x_min":85,"x_max":297,"o":"m 85 0 l 85 993 l 288 993 l 288 0 l 85 0 m 171 -282 q 108 -249 132 -275 q 85 -185 85 -224 q 110 -118 85 -147 q 183 -89 136 -89 q 222 -97 201 -89 q 258 -121 242 -104 q 286 -165 275 -137 q 297 -231 297 -192 q 283 -308 297 -271 q 248 -377 269 -346 q 198 -433 226 -408 q 140 -472 169 -458 l 94 -411 q 159 -359 131 -392 q 194 -286 188 -326 l 171 -282 z "},"ŀ":{"ha":483,"x_min":85,"x_max":525,"o":"m 85 0 l 85 993 l 288 993 l 288 0 l 85 0 m 343 488 q 369 556 343 528 q 436 585 396 585 q 499 556 474 585 q 525 488 525 528 q 499 419 525 449 q 436 390 472 390 q 369 419 396 390 q 343 488 343 449 z "},"ł":{"ha":454,"x_min":-79,"x_max":533,"o":"m 118 0 l 118 290 l 0 171 l -79 250 l 118 447 l 118 993 l 321 993 l 321 578 l 454 708 l 533 629 l 321 421 l 321 0 l 118 0 z "},"ń":{"ha":797,"x_min":81,"x_max":717,"o":"m 286 0 l 81 0 l 81 667 l 240 667 l 264 583 q 364 656 308 629 q 485 682 419 682 q 657 621 597 682 q 717 442 717 560 l 717 0 l 511 0 l 511 421 q 488 498 511 469 q 421 526 465 526 q 351 507 388 526 q 286 456 314 488 l 286 0 m 458 758 l 317 758 l 414 972 l 613 972 l 458 758 z "},"ŉ":{"ha":797,"x_min":-57,"x_max":717,"o":"m 286 0 l 81 0 l 81 667 l 240 667 l 264 583 q 364 656 308 629 q 485 682 419 682 q 657 621 597 682 q 717 442 717 560 l 717 0 l 511 0 l 511 421 q 488 498 511 469 q 421 526 465 526 q 351 507 388 526 q 286 456 314 488 l 286 0 m 29 864 q -33 897 -10 871 q -57 961 -57 922 q -31 1028 -57 999 q 42 1057 -6 1057 q 80 1049 60 1057 q 117 1025 100 1042 q 144 981 133 1008 q 156 915 156 954 q 142 836 156 874 q 106 767 128 799 q 56 712 85 736 q -1 674 28 688 l -47 735 q 17 787 -11 754 q 53 860 46 819 l 29 864 z "},"ň":{"ha":797,"x_min":81,"x_max":717,"o":"m 286 0 l 81 0 l 81 667 l 240 667 l 264 583 q 364 656 308 629 q 485 682 419 682 q 657 621 597 682 q 717 442 717 560 l 717 0 l 511 0 l 511 421 q 488 498 511 469 q 421 526 465 526 q 351 507 388 526 q 286 456 314 488 l 286 0 m 179 958 l 326 958 l 410 856 l 493 958 l 646 958 l 465 758 l 356 758 l 179 958 z "},"ņ":{"ha":797,"x_min":81,"x_max":717,"o":"m 286 0 l 81 0 l 81 667 l 240 667 l 264 583 q 364 656 308 629 q 485 682 419 682 q 657 621 597 682 q 717 442 717 560 l 717 0 l 511 0 l 511 421 q 488 498 511 469 q 421 526 465 526 q 351 507 388 526 q 286 456 314 488 l 286 0 m 396 -282 q 333 -249 357 -275 q 310 -185 310 -224 q 335 -118 310 -147 q 408 -89 361 -89 q 447 -97 426 -89 q 483 -121 467 -104 q 511 -165 500 -137 q 522 -231 522 -192 q 508 -308 522 -271 q 473 -377 494 -346 q 423 -433 451 -408 q 365 -472 394 -458 l 319 -411 q 384 -359 356 -392 q 419 -286 413 -326 l 396 -282 z "},"ŏ":{"ha":803,"x_min":54,"x_max":749,"o":"m 749 338 q 722 190 749 256 q 647 79 694 125 q 536 9 600 33 q 399 -15 472 -15 q 262 8 325 -15 q 153 74 199 31 q 81 180 107 117 q 54 324 54 243 q 81 475 54 408 q 156 588 108 542 q 267 658 203 633 q 404 682 331 682 q 541 660 478 682 q 650 594 604 638 q 722 486 696 550 q 749 338 749 422 m 538 331 q 526 423 538 385 q 496 485 515 461 q 451 521 476 510 q 400 532 426 532 q 349 522 374 532 q 306 489 325 513 q 276 427 288 465 q 265 331 265 389 q 307 182 265 229 q 403 135 349 135 q 453 145 429 135 q 497 178 478 156 q 526 239 515 201 q 538 331 538 276 m 331 958 q 348 897 332 919 q 403 875 364 875 q 475 958 472 875 l 589 958 q 541 820 589 871 q 403 769 493 769 q 317 785 353 769 q 259 826 282 800 q 226 887 236 853 q 215 958 215 921 l 331 958 z "},"ő":{"ha":803,"x_min":54,"x_max":749,"o":"m 749 338 q 722 190 749 256 q 647 79 694 125 q 536 9 600 33 q 399 -15 472 -15 q 262 8 325 -15 q 153 74 199 31 q 81 180 107 117 q 54 324 54 243 q 81 475 54 408 q 156 588 108 542 q 267 658 203 633 q 404 682 331 682 q 541 660 478 682 q 650 594 604 638 q 722 486 696 550 q 749 338 749 422 m 538 331 q 526 423 538 385 q 496 485 515 461 q 451 521 476 510 q 400 532 426 532 q 349 522 374 532 q 306 489 325 513 q 276 427 288 465 q 265 331 265 389 q 307 182 265 229 q 403 135 349 135 q 453 145 429 135 q 497 178 478 156 q 526 239 515 201 q 538 331 538 276 m 296 758 l 154 758 l 251 972 l 450 972 l 296 758 m 578 758 l 436 758 l 533 972 l 732 972 l 578 758 z "},"ō":{"ha":803,"x_min":54,"x_max":749,"o":"m 749 338 q 722 190 749 256 q 647 79 694 125 q 536 9 600 33 q 399 -15 472 -15 q 262 8 325 -15 q 153 74 199 31 q 81 180 107 117 q 54 324 54 243 q 81 475 54 408 q 156 588 108 542 q 267 658 203 633 q 404 682 331 682 q 541 660 478 682 q 650 594 604 638 q 722 486 696 550 q 749 338 749 422 m 538 331 q 526 423 538 385 q 496 485 515 461 q 451 521 476 510 q 400 532 426 532 q 349 522 374 532 q 306 489 325 513 q 276 427 288 465 q 265 331 265 389 q 307 182 265 229 q 403 135 349 135 q 453 145 429 135 q 497 178 478 156 q 526 239 515 201 q 538 331 538 276 m 586 919 l 586 806 l 218 806 l 218 919 l 586 919 z "},"ǿ":{"ha":804,"x_min":53,"x_max":750,"o":"m 538 786 l 625 756 l 579 643 q 701 530 656 606 q 749 343 746 454 q 724 195 750 261 q 652 83 699 129 q 542 11 606 36 q 404 -15 478 -14 q 356 -13 379 -15 q 310 -6 332 -11 l 268 -119 l 183 -89 l 226 21 q 103 135 149 60 q 54 318 57 210 q 78 470 53 403 q 151 584 104 538 q 261 656 197 631 q 399 682 325 681 q 494 672 451 682 l 538 786 m 397 532 q 347 522 371 532 q 306 488 324 511 q 276 425 288 464 q 265 328 265 386 q 274 246 265 279 q 297 189 282 213 l 429 529 q 414 531 422 531 q 397 532 406 532 m 538 333 q 529 418 538 383 q 506 476 521 453 l 372 138 q 390 135 381 135 q 407 135 399 135 q 456 146 432 135 q 497 180 479 157 q 526 241 515 203 q 538 333 538 279 m 385 758 l 243 758 l 340 972 l 539 972 l 385 758 z "},"ŕ":{"ha":550,"x_min":81,"x_max":564,"o":"m 81 0 l 81 667 l 242 667 l 263 550 q 293 599 275 575 q 336 642 311 624 q 394 671 361 660 q 467 682 426 682 q 523 674 497 682 q 564 657 549 667 l 531 497 q 492 513 515 506 q 433 519 468 519 q 327 478 369 519 q 285 333 285 436 l 285 0 l 81 0 m 238 758 l 96 758 l 193 972 l 392 972 l 238 758 z "},"ř":{"ha":550,"x_min":53,"x_max":564,"o":"m 81 667 l 242 667 l 263 550 q 293 599 275 575 q 336 642 311 624 q 394 671 361 660 q 467 682 426 682 q 523 674 497 682 q 564 657 549 667 l 531 497 q 492 513 515 506 q 433 519 468 519 q 327 478 369 519 q 285 333 285 436 l 285 0 l 81 0 l 81 667 m 283 856 l 367 958 l 519 958 l 339 758 l 229 758 l 53 958 l 200 958 l 283 856 z "},"ŗ":{"ha":550,"x_min":81,"x_max":564,"o":"m 81 0 l 81 667 l 242 667 l 263 550 q 293 599 275 575 q 336 642 311 624 q 394 671 361 660 q 467 682 426 682 q 523 674 497 682 q 564 657 549 667 l 531 497 q 492 513 515 506 q 433 519 468 519 q 327 478 369 519 q 285 333 285 436 l 285 0 l 81 0 m 171 -282 q 108 -249 132 -275 q 85 -185 85 -224 q 110 -118 85 -147 q 183 -89 136 -89 q 222 -97 201 -89 q 258 -121 242 -104 q 286 -165 275 -137 q 297 -231 297 -192 q 283 -308 297 -271 q 248 -377 269 -346 q 198 -433 226 -408 q 140 -472 169 -458 l 94 -411 q 159 -359 131 -392 q 194 -286 188 -326 l 171 -282 z "},"ś":{"ha":617,"x_min":49,"x_max":569,"o":"m 492 496 q 413 524 454 514 q 332 535 371 535 q 274 522 296 535 q 251 488 251 510 q 273 448 251 464 q 358 414 294 432 l 400 401 q 526 328 483 376 q 569 206 569 281 q 549 115 569 156 q 490 44 528 74 q 398 0 451 15 q 279 -15 344 -15 q 153 -3 208 -15 q 51 33 99 10 l 96 182 q 180 148 136 161 q 269 135 224 135 q 344 150 322 135 q 365 186 365 165 q 360 208 365 199 q 343 225 356 217 q 308 241 331 233 q 249 260 285 249 l 206 272 q 86 345 124 299 q 49 471 49 392 q 67 555 49 517 q 119 622 85 593 q 202 666 153 650 q 315 682 251 682 q 434 670 379 682 q 533 638 489 658 l 492 496 m 317 758 l 175 758 l 272 972 l 471 972 l 317 758 z "},"ş":{"ha":617,"x_min":49,"x_max":569,"o":"m 492 496 q 413 524 454 514 q 332 535 371 535 q 274 522 296 535 q 251 488 251 510 q 273 448 251 464 q 358 414 294 432 l 400 401 q 526 328 483 376 q 569 206 569 281 q 509 61 569 118 q 344 -10 449 4 l 317 -65 q 392 -96 363 -69 q 422 -162 422 -122 q 377 -249 422 -221 q 261 -278 332 -278 q 190 -271 225 -278 q 136 -257 156 -264 l 161 -175 q 199 -185 179 -182 q 238 -187 218 -187 q 290 -151 290 -187 q 269 -119 290 -131 q 192 -108 247 -108 l 236 -14 q 51 33 129 -8 l 96 182 q 180 148 136 161 q 269 135 224 135 q 344 150 322 135 q 365 186 365 165 q 360 208 365 199 q 343 225 356 217 q 308 241 331 233 q 249 260 285 249 l 206 272 q 86 345 124 299 q 49 471 49 392 q 67 555 49 517 q 119 622 85 593 q 202 666 153 650 q 315 682 251 682 q 434 670 379 682 q 533 638 489 658 l 492 496 z "},"ŝ":{"ha":617,"x_min":49,"x_max":569,"o":"m 492 496 q 413 524 454 514 q 332 535 371 535 q 274 522 296 535 q 251 488 251 510 q 273 448 251 464 q 358 414 294 432 l 400 401 q 526 328 483 376 q 569 206 569 281 q 549 115 569 156 q 490 44 528 74 q 398 0 451 15 q 279 -15 344 -15 q 153 -3 208 -15 q 51 33 99 10 l 96 182 q 180 148 136 161 q 269 135 224 135 q 344 150 322 135 q 365 186 365 165 q 360 208 365 199 q 343 225 356 217 q 308 241 331 233 q 249 260 285 249 l 206 272 q 86 345 124 299 q 49 471 49 392 q 67 555 49 517 q 119 622 85 593 q 202 666 153 650 q 315 682 251 682 q 434 670 379 682 q 533 638 489 658 l 492 496 m 532 758 l 385 758 l 301 861 l 218 758 l 65 758 l 246 958 l 356 958 l 532 758 z "},"ș":{"ha":617,"x_min":49,"x_max":569,"o":"m 492 496 q 413 524 454 514 q 332 535 371 535 q 274 522 296 535 q 251 488 251 510 q 273 448 251 464 q 358 414 294 432 l 400 401 q 526 328 483 376 q 569 206 569 281 q 549 115 569 156 q 490 44 528 74 q 398 0 451 15 q 279 -15 344 -15 q 153 -3 208 -15 q 51 33 99 10 l 96 182 q 180 148 136 161 q 269 135 224 135 q 344 150 322 135 q 365 186 365 165 q 360 208 365 199 q 343 225 356 217 q 308 241 331 233 q 249 260 285 249 l 206 272 q 86 345 124 299 q 49 471 49 392 q 67 555 49 517 q 119 622 85 593 q 202 666 153 650 q 315 682 251 682 q 434 670 379 682 q 533 638 489 658 l 492 496 m 296 -282 q 233 -249 257 -275 q 210 -185 210 -224 q 235 -118 210 -147 q 308 -89 261 -89 q 347 -97 326 -89 q 383 -121 367 -104 q 411 -165 400 -137 q 422 -231 422 -192 q 408 -308 422 -271 q 373 -377 394 -346 q 323 -433 351 -408 q 265 -472 294 -458 l 219 -411 q 284 -359 256 -392 q 319 -286 313 -326 l 296 -282 z "},"ﬆ":{"ha":1122,"x_min":49,"x_max":1111,"o":"m 906 667 l 1076 667 l 1076 519 l 906 519 l 906 238 q 926 174 906 192 q 982 156 946 156 q 1038 161 1010 156 q 1081 176 1065 167 l 1111 36 q 1040 12 1088 24 q 938 0 992 0 q 755 50 808 0 q 701 201 701 100 l 701 519 l 611 519 l 611 667 l 701 667 l 701 732 q 674 856 701 815 q 585 897 646 897 q 503 868 536 897 q 471 782 471 839 q 488 695 471 735 q 533 638 506 656 l 492 496 q 413 524 454 514 q 332 535 371 535 q 274 522 296 535 q 251 488 251 510 q 273 448 251 464 q 358 414 294 432 l 400 401 q 526 328 483 376 q 569 206 569 281 q 549 115 569 156 q 490 44 528 74 q 398 0 451 15 q 279 -15 344 -15 q 153 -3 208 -15 q 51 33 99 10 l 96 182 q 180 148 136 161 q 269 135 224 135 q 344 150 322 135 q 365 186 365 165 q 360 208 365 199 q 343 225 356 217 q 308 241 331 233 q 249 260 285 249 l 206 272 q 86 345 124 299 q 49 471 49 392 q 67 555 49 517 q 119 622 85 593 q 202 666 153 650 q 315 682 251 682 q 332 682 324 682 q 349 681 340 682 l 350 686 q 316 735 333 701 q 299 821 299 769 q 318 906 299 865 q 374 978 338 947 q 465 1028 411 1010 q 586 1047 518 1047 q 728 1024 668 1047 q 827 961 788 1001 q 886 865 867 921 q 906 744 906 810 l 906 667 z "},"ŧ":{"ha":539,"x_min":14,"x_max":528,"o":"m 493 519 l 322 519 l 322 424 l 458 424 l 458 310 l 322 310 l 322 238 q 342 174 322 192 q 399 156 363 156 q 454 161 426 156 q 497 176 482 167 l 528 36 q 456 12 504 24 q 354 0 408 0 q 172 50 225 0 q 118 201 118 100 l 118 310 l 21 310 l 21 424 l 118 424 l 118 519 l 14 519 l 14 667 l 118 667 l 118 869 l 322 869 l 322 667 l 493 667 l 493 519 z "},"ť":{"ha":653,"x_min":14,"x_max":722,"o":"m 493 519 l 322 519 l 322 238 q 342 174 322 192 q 399 156 363 156 q 454 161 426 156 q 497 176 482 167 l 528 36 q 456 12 504 24 q 354 0 408 0 q 172 50 225 0 q 118 201 118 100 l 118 519 l 14 519 l 14 667 l 118 667 l 118 869 l 322 869 l 322 667 l 493 667 l 493 519 m 596 829 q 533 862 557 836 q 510 926 510 888 q 535 993 510 964 q 608 1022 561 1022 q 647 1015 626 1022 q 683 990 667 1007 q 711 947 700 974 q 722 881 722 919 q 708 803 722 840 q 673 734 694 765 q 623 678 651 703 q 565 639 594 653 l 519 700 q 584 752 556 719 q 619 825 613 785 l 596 829 z "},"ţ":{"ha":539,"x_min":14,"x_max":528,"o":"m 493 519 l 322 519 l 322 238 q 342 174 322 192 q 399 156 363 156 q 454 161 426 156 q 497 176 482 167 l 528 36 q 456 12 504 24 q 354 0 408 0 q 172 50 225 0 q 118 201 118 100 l 118 519 l 14 519 l 14 667 l 118 667 l 118 869 l 322 869 l 322 667 l 493 667 l 493 519 m 282 -282 q 219 -249 243 -275 q 196 -185 196 -224 q 222 -118 196 -147 q 294 -89 247 -89 q 333 -97 313 -89 q 369 -121 353 -104 q 397 -165 386 -137 q 408 -231 408 -192 q 394 -308 408 -271 q 359 -377 381 -346 q 309 -433 338 -408 q 251 -472 281 -458 l 206 -411 q 270 -359 242 -392 q 306 -286 299 -326 l 282 -282 z "},"ŭ":{"ha":790,"x_min":81,"x_max":710,"o":"m 504 667 l 710 667 l 710 0 l 558 0 l 538 72 l 532 72 q 499 43 518 58 q 452 15 479 28 q 390 -7 425 1 q 311 -15 356 -15 q 142 44 203 -15 q 81 221 81 104 l 81 667 l 286 667 l 286 238 q 312 162 286 186 q 378 138 338 138 q 458 158 426 138 q 504 200 489 178 l 504 667 m 326 958 q 344 897 328 919 q 399 875 360 875 q 471 958 468 875 l 585 958 q 537 820 585 871 q 399 769 489 769 q 313 785 349 769 q 255 826 278 800 q 222 887 232 853 q 211 958 211 921 l 326 958 z "},"ű":{"ha":790,"x_min":81,"x_max":760,"o":"m 504 667 l 710 667 l 710 0 l 558 0 l 538 72 l 532 72 q 499 43 518 58 q 452 15 479 28 q 390 -7 425 1 q 311 -15 356 -15 q 142 44 203 -15 q 81 221 81 104 l 81 667 l 286 667 l 286 238 q 312 162 286 186 q 378 138 338 138 q 458 158 426 138 q 504 200 489 178 l 504 667 m 324 758 l 182 758 l 279 972 l 478 972 l 324 758 m 606 758 l 464 758 l 561 972 l 760 972 l 606 758 z "},"ū":{"ha":790,"x_min":81,"x_max":710,"o":"m 504 667 l 710 667 l 710 0 l 558 0 l 538 72 l 532 72 q 499 43 518 58 q 452 15 479 28 q 390 -7 425 1 q 311 -15 356 -15 q 142 44 203 -15 q 81 221 81 104 l 81 667 l 286 667 l 286 238 q 312 162 286 186 q 378 138 338 138 q 458 158 426 138 q 504 200 489 178 l 504 667 m 581 919 l 581 806 l 213 806 l 213 919 l 581 919 z "},"ų":{"ha":790,"x_min":81,"x_max":774,"o":"m 504 667 l 710 667 l 710 0 l 676 0 q 635 -107 635 -53 q 692 -161 635 -161 q 722 -158 710 -161 q 746 -150 735 -156 l 774 -256 q 720 -278 751 -269 q 653 -286 689 -286 q 547 -251 589 -286 q 504 -151 504 -217 q 522 -61 504 -99 q 558 0 540 -24 l 538 72 l 532 72 q 499 43 518 58 q 452 15 479 28 q 390 -7 425 1 q 311 -15 356 -15 q 142 44 203 -15 q 81 221 81 104 l 81 667 l 286 667 l 286 238 q 312 162 286 186 q 378 138 338 138 q 458 158 426 138 q 504 200 489 178 l 504 667 z "},"ů":{"ha":790,"x_min":81,"x_max":710,"o":"m 504 667 l 710 667 l 710 0 l 558 0 l 538 72 l 532 72 q 499 43 518 58 q 452 15 479 28 q 390 -7 425 1 q 311 -15 356 -15 q 142 44 203 -15 q 81 221 81 104 l 81 667 l 286 667 l 286 238 q 312 162 286 186 q 378 138 338 138 q 458 158 426 138 q 504 200 489 178 l 504 667 m 250 865 q 263 923 250 899 q 296 963 275 947 q 344 987 317 979 q 399 994 371 994 q 455 987 428 994 q 502 963 482 979 q 535 923 522 947 q 547 865 547 899 q 534 808 547 832 q 500 767 521 783 q 452 744 479 751 q 399 736 425 736 q 344 744 371 736 q 297 769 318 753 q 263 810 276 786 q 250 865 250 835 m 340 865 q 358 818 340 833 q 399 803 375 803 q 440 818 422 803 q 457 865 457 833 q 439 913 457 897 q 399 928 421 928 q 358 913 376 928 q 340 865 340 897 z "},"ũ":{"ha":790,"x_min":81,"x_max":710,"o":"m 504 667 l 710 667 l 710 0 l 558 0 l 538 72 l 532 72 q 499 43 518 58 q 452 15 479 28 q 390 -7 425 1 q 311 -15 356 -15 q 142 44 203 -15 q 81 221 81 104 l 81 667 l 286 667 l 286 238 q 312 162 286 186 q 378 138 338 138 q 458 158 426 138 q 504 200 489 178 l 504 667 m 160 758 q 195 901 160 851 q 292 950 231 950 q 344 940 318 950 q 392 917 369 929 q 433 895 414 906 q 467 885 451 885 q 502 908 494 885 q 511 958 510 931 l 608 958 q 575 815 610 861 q 478 769 540 769 q 418 779 444 769 q 370 801 392 789 q 331 824 349 814 q 299 833 314 833 q 267 813 276 833 q 257 758 258 792 l 160 758 z "},"ẃ":{"ha":1076,"x_min":13,"x_max":1065,"o":"m 13 667 l 226 667 l 301 335 l 326 151 l 332 151 l 361 335 l 433 667 l 649 667 l 721 335 l 750 151 l 756 151 l 783 335 l 857 667 l 1065 667 l 888 0 l 646 0 l 568 344 l 540 504 l 511 344 l 435 0 l 192 0 l 13 667 m 561 758 l 419 758 l 517 972 l 715 972 l 561 758 z "},"ŵ":{"ha":1076,"x_min":13,"x_max":1065,"o":"m 13 667 l 226 667 l 301 335 l 326 151 l 332 151 l 361 335 l 433 667 l 649 667 l 721 335 l 750 151 l 756 151 l 783 335 l 857 667 l 1065 667 l 888 0 l 646 0 l 568 344 l 540 504 l 511 344 l 435 0 l 192 0 l 13 667 m 771 758 l 624 758 l 540 861 l 457 758 l 304 758 l 485 958 l 594 958 l 771 758 z "},"ẅ":{"ha":1076,"x_min":13,"x_max":1065,"o":"m 13 667 l 226 667 l 301 335 l 326 151 l 332 151 l 361 335 l 433 667 l 649 667 l 721 335 l 750 151 l 756 151 l 783 335 l 857 667 l 1065 667 l 888 0 l 646 0 l 568 344 l 540 504 l 511 344 l 435 0 l 192 0 l 13 667 m 299 861 q 327 929 299 900 q 396 958 356 958 q 465 929 438 958 q 492 861 492 900 q 465 791 492 819 q 396 763 438 763 q 327 791 356 763 q 299 861 299 819 m 589 861 q 617 929 589 900 q 686 958 646 958 q 755 929 728 958 q 782 861 782 900 q 755 791 782 819 q 686 763 728 763 q 617 791 646 763 q 589 861 589 819 z "},"ẁ":{"ha":1076,"x_min":13,"x_max":1065,"o":"m 13 667 l 226 667 l 301 335 l 326 151 l 332 151 l 361 335 l 433 667 l 649 667 l 721 335 l 750 151 l 756 151 l 783 335 l 857 667 l 1065 667 l 888 0 l 646 0 l 568 344 l 540 504 l 511 344 l 435 0 l 192 0 l 13 667 m 367 972 l 565 972 l 663 758 l 521 758 l 367 972 z "},"ŷ":{"ha":750,"x_min":10,"x_max":742,"o":"m 10 667 l 235 667 l 344 369 l 389 207 l 394 207 l 436 372 l 532 667 l 742 667 l 501 -12 q 456 -124 482 -69 q 391 -225 429 -178 q 299 -311 353 -272 q 168 -375 244 -350 l 83 -215 q 219 -132 165 -186 q 290 -7 272 -78 l 293 4 l 10 667 m 622 758 l 475 758 l 392 861 l 308 758 l 156 758 l 336 958 l 446 958 l 622 758 z "},"ỳ":{"ha":750,"x_min":10,"x_max":742,"o":"m 10 667 l 235 667 l 344 369 l 389 207 l 394 207 l 436 372 l 532 667 l 742 667 l 501 -12 q 456 -124 482 -69 q 391 -225 429 -178 q 299 -311 353 -272 q 168 -375 244 -350 l 83 -215 q 219 -132 165 -186 q 290 -7 272 -78 l 293 4 l 10 667 m 179 972 l 378 972 l 475 758 l 333 758 l 179 972 z "},"ź":{"ha":586,"x_min":28,"x_max":558,"o":"m 551 540 l 254 147 l 558 147 l 558 0 l 28 0 l 28 131 l 325 519 l 44 519 l 44 667 l 551 667 l 551 540 m 349 758 l 207 758 l 304 972 l 503 972 l 349 758 z "},"ż":{"ha":586,"x_min":28,"x_max":558,"o":"m 551 540 l 254 147 l 558 147 l 558 0 l 28 0 l 28 131 l 325 519 l 44 519 l 44 667 l 551 667 l 551 540 m 203 861 q 231 929 203 900 q 300 958 260 958 q 369 929 342 958 q 396 861 396 900 q 369 791 396 819 q 300 763 342 763 q 231 791 260 763 q 203 861 203 819 z "},"Ŋ":{"ha":931,"x_min":92,"x_max":839,"o":"m 92 875 l 286 875 l 478 582 q 577 413 529 500 q 651 257 625 326 l 654 257 q 646 424 647 340 q 644 592 644 508 l 644 875 l 839 875 l 839 135 q 826 -21 839 51 q 783 -153 814 -93 q 699 -262 751 -214 q 568 -346 647 -311 l 482 -208 q 580 -124 539 -172 q 636 -1 621 -75 l 442 299 q 350 449 392 372 q 279 610 308 525 l 276 610 q 285 442 283 522 q 286 278 286 361 l 286 0 l 92 0 l 92 875 z "},"ŋ":{"ha":797,"x_min":81,"x_max":717,"o":"m 81 667 l 240 667 l 264 583 q 364 656 308 629 q 485 682 419 682 q 657 621 597 682 q 717 442 717 560 l 717 106 q 703 -40 717 28 q 659 -166 690 -108 q 576 -269 628 -224 q 444 -347 524 -314 l 358 -210 q 426 -168 397 -190 q 474 -112 456 -146 q 502 -28 493 -78 q 511 97 511 22 l 511 421 q 488 498 511 469 q 421 526 465 526 q 351 507 388 526 q 286 456 314 488 l 286 0 l 81 0 l 81 667 z "},"₹":{"ha":708,"x_min":0,"x_max":625,"o":"m 0 550 l 0 667 l 303 667 q 283 713 296 694 q 254 747 269 731 l 0 747 l 0 892 l 625 892 l 625 747 l 446 747 q 468 716 457 733 q 488 667 479 699 l 625 667 l 625 550 l 506 550 q 487 470 506 507 q 437 406 468 433 q 365 361 406 378 q 279 342 324 344 l 511 104 l 361 -14 l 153 242 q 108 292 129 269 q 71 335 88 315 q 35 375 51 356 l 83 485 q 120 474 103 478 q 163 471 138 471 q 265 494 229 471 q 307 550 300 518 l 0 550 z "},"":{"ha":750,"x_min":42,"x_max":708,"o":"m 708 342 q 683 194 708 260 q 614 81 658 128 q 508 10 569 35 q 372 -15 446 -15 q 238 8 299 -15 q 133 76 176 32 q 65 183 89 119 q 42 328 42 247 q 67 476 42 410 q 136 588 92 542 q 243 658 181 633 q 379 682 306 682 q 514 659 453 682 q 618 592 575 636 q 685 485 661 549 q 708 342 708 422 m 503 335 q 465 494 503 443 q 375 546 428 546 q 326 535 349 546 q 285 500 303 525 q 258 435 268 475 q 247 335 247 394 q 285 174 247 226 q 376 121 324 121 q 426 132 403 121 q 466 168 449 143 q 493 234 483 193 q 503 335 503 275 z "},"":{"ha":613,"x_min":42,"x_max":568,"o":"m 282 667 l 422 667 l 422 147 l 568 147 l 568 0 l 74 0 l 74 147 l 225 147 l 225 383 l 229 489 l 82 443 l 42 588 l 282 667 z "},"":{"ha":588,"x_min":32,"x_max":553,"o":"m 32 606 q 136 661 75 640 q 265 682 197 682 q 382 665 329 682 q 472 616 435 647 q 528 542 508 585 q 549 447 549 499 q 526 347 549 393 q 472 262 504 300 q 403 193 440 224 q 335 142 365 163 l 457 150 l 553 150 l 553 0 l 63 0 l 63 128 q 147 182 99 150 q 240 253 196 214 q 315 338 285 293 q 346 431 346 383 q 316 501 346 474 q 233 529 286 529 q 171 516 200 529 q 114 481 142 503 l 32 606 z "},"":{"ha":603,"x_min":28,"x_max":561,"o":"m 35 624 q 129 669 78 656 q 236 682 181 682 q 453 625 375 682 q 531 465 531 568 q 485 347 531 392 q 375 286 439 303 l 375 281 q 448 256 414 274 q 507 213 482 239 q 547 150 532 186 q 561 69 561 114 q 533 -50 561 4 q 453 -142 506 -104 q 327 -201 401 -181 q 161 -222 253 -222 q 113 -221 138 -222 q 56 -215 88 -219 l 28 -72 q 77 -76 51 -75 q 119 -76 103 -76 q 303 -36 244 -76 q 361 72 361 4 q 312 165 361 133 q 174 197 263 197 q 147 197 163 197 q 107 193 131 196 l 107 361 l 182 361 q 293 388 253 361 q 333 458 333 415 q 302 524 333 503 q 219 546 271 546 q 154 534 186 546 q 96 503 122 522 l 35 624 z "},"":{"ha":799,"x_min":36,"x_max":758,"o":"m 419 667 l 635 667 l 635 150 l 758 150 l 758 0 l 635 0 l 635 -222 l 443 -222 l 443 0 l 36 0 l 36 128 l 419 667 m 235 150 l 443 150 l 443 335 l 450 482 l 376 350 l 235 150 z "},"":{"ha":600,"x_min":35,"x_max":556,"o":"m 114 667 l 529 669 l 511 522 l 251 522 l 228 365 q 245 367 239 367 q 256 367 251 367 q 383 346 326 367 q 477 288 439 325 q 535 201 515 251 q 556 93 556 151 q 528 -30 556 28 q 448 -131 500 -87 q 320 -198 396 -174 q 149 -222 244 -222 q 108 -221 129 -222 q 60 -215 88 -219 l 35 -72 q 113 -76 81 -76 q 295 -32 235 -76 q 356 82 356 13 q 306 181 356 144 q 156 218 256 218 q 127 217 139 218 q 103 216 115 217 q 79 213 92 215 q 50 210 67 211 l 114 667 z "},"":{"ha":725,"x_min":42,"x_max":686,"o":"m 607 740 q 583 744 594 743 q 554 744 572 744 q 438 724 489 744 q 348 673 386 704 q 286 603 310 642 q 253 531 263 565 l 258 529 q 320 558 282 547 q 403 568 358 568 q 522 547 469 568 q 612 487 575 525 q 667 397 649 449 q 686 282 686 344 q 661 161 686 215 q 593 67 636 107 q 493 6 550 28 q 372 -15 436 -15 q 242 7 303 -15 q 138 75 182 29 q 67 190 93 121 q 42 351 42 258 q 74 567 42 467 q 169 742 107 668 q 322 860 232 817 q 528 903 413 903 q 560 901 543 903 q 592 897 576 900 l 607 740 m 239 301 q 276 181 239 229 q 372 133 313 133 q 456 174 425 133 q 486 276 486 214 q 452 392 486 350 q 363 435 418 435 q 260 389 297 435 q 244 355 249 375 q 239 301 239 335 z "},"":{"ha":590,"x_min":28,"x_max":572,"o":"m 572 667 l 572 542 q 455 335 510 440 q 354 128 400 229 q 274 -66 308 26 q 218 -231 239 -158 l 40 -183 q 101 -22 64 -110 q 183 157 139 65 q 276 340 228 249 q 371 514 325 432 l 28 514 l 28 667 l 572 667 z "},"":{"ha":722,"x_min":42,"x_max":681,"o":"m 363 903 q 488 885 432 903 q 582 835 543 867 q 642 759 621 803 q 663 664 663 715 q 623 551 663 597 q 526 483 583 504 l 526 478 q 644 390 607 444 q 681 257 681 336 q 653 145 681 193 q 582 65 626 97 q 481 16 538 32 q 363 0 424 0 q 242 16 300 0 q 139 63 183 32 q 68 141 94 94 q 42 249 42 188 q 81 383 42 329 q 199 468 121 436 l 199 474 q 99 547 135 504 q 64 664 64 589 q 84 759 64 715 q 142 835 104 803 q 236 885 181 867 q 363 903 292 903 m 272 669 q 301 603 272 629 q 367 564 329 576 q 426 599 397 574 q 454 667 454 625 q 424 738 454 715 q 363 761 394 761 q 299 738 325 761 q 272 669 272 714 m 358 374 q 282 326 311 358 q 253 253 253 294 q 285 171 253 197 q 363 144 317 144 q 437 171 404 144 q 469 254 469 197 q 458 298 469 278 q 431 333 447 318 q 394 358 414 347 q 358 374 375 368 z "},"":{"ha":721,"x_min":35,"x_max":679,"o":"m 124 -64 q 258 -47 199 -64 q 359 -1 317 -29 q 428 62 401 28 q 463 129 454 96 l 458 132 q 399 95 435 108 q 318 82 363 82 q 199 103 251 82 q 109 163 146 125 q 53 253 72 201 q 35 368 35 306 q 60 501 35 443 q 130 600 86 560 q 233 661 174 640 q 357 682 292 682 q 485 658 426 682 q 588 587 544 635 q 655 467 631 539 q 679 299 679 394 q 644 97 679 192 q 542 -69 610 1 q 376 -181 475 -140 q 151 -222 278 -222 q 119 -221 136 -222 q 88 -217 103 -219 l 71 -60 q 94 -63 83 -62 q 124 -64 106 -64 m 482 358 q 474 424 482 392 q 451 480 467 456 q 411 519 435 504 q 354 533 388 533 q 268 488 301 533 q 235 374 235 442 q 273 268 235 307 q 364 229 311 229 q 426 243 401 229 q 461 272 450 257 q 478 313 474 289 q 482 358 482 336 z "},"Ḍ":{"ha":914,"x_min":92,"x_max":864,"o":"m 329 -179 q 356 -114 329 -140 q 424 -87 383 -87 q 490 -114 464 -87 q 517 -179 517 -140 q 490 -247 517 -219 q 424 -275 464 -275 q 356 -247 383 -275 q 329 -179 329 -219 m 404 875 q 593 849 508 875 q 738 769 678 822 q 831 638 799 717 q 864 456 864 560 q 825 253 864 339 q 719 112 786 168 q 561 28 651 56 q 369 0 471 0 l 92 0 l 92 875 l 404 875 m 303 161 l 357 161 q 465 175 413 161 q 556 223 517 189 q 618 314 594 257 q 642 456 642 371 q 571 648 642 582 q 379 714 500 714 l 303 714 l 303 161 z "},"ḍ":{"ha":794,"x_min":46,"x_max":711,"o":"m 506 993 l 711 993 l 711 0 l 569 0 l 549 72 l 542 72 q 474 13 522 42 q 349 -15 426 -15 q 228 9 283 -15 q 132 78 172 33 q 69 188 92 124 q 46 333 46 253 q 67 477 46 413 q 127 587 88 542 q 225 657 167 632 q 357 682 283 682 q 444 669 403 682 q 506 636 485 656 l 506 993 m 506 486 q 467 518 493 503 q 408 533 440 533 q 349 523 376 533 q 299 489 321 513 q 265 428 278 465 q 253 338 253 392 q 294 184 253 233 q 400 135 335 135 q 467 156 440 135 q 506 200 494 176 l 506 486 m 342 -179 q 369 -114 342 -140 q 436 -87 396 -87 q 503 -114 476 -87 q 529 -179 529 -140 q 503 -247 529 -219 q 436 -275 476 -275 q 369 -247 396 -275 q 342 -179 342 -219 z "},"Ḥ":{"ha":910,"x_min":92,"x_max":818,"o":"m 92 0 l 92 875 l 303 875 l 303 535 l 607 535 l 607 875 l 818 875 l 818 0 l 607 0 l 607 371 l 303 371 l 303 0 l 92 0 m 358 -179 q 385 -114 358 -140 q 453 -87 413 -87 q 519 -114 493 -87 q 546 -179 546 -140 q 519 -247 546 -219 q 453 -275 493 -275 q 385 -247 413 -275 q 358 -179 358 -219 z "},"ḥ":{"ha":807,"x_min":83,"x_max":725,"o":"m 289 0 l 83 0 l 83 993 l 289 993 l 289 614 q 378 663 326 643 q 488 682 429 682 q 593 664 549 682 q 667 613 638 646 q 710 536 696 581 q 725 438 725 492 l 725 0 l 519 0 l 519 404 q 492 499 519 471 q 417 526 465 526 q 349 511 383 526 q 289 471 314 496 l 289 0 m 311 -179 q 338 -114 311 -140 q 406 -87 365 -87 q 472 -114 446 -87 q 499 -179 499 -140 q 472 -247 499 -219 q 406 -275 446 -275 q 338 -247 365 -275 q 311 -179 311 -219 z "},"Ḷ":{"ha":656,"x_min":92,"x_max":649,"o":"m 92 875 l 303 875 l 303 164 l 649 164 l 649 0 l 92 0 l 92 875 m 268 -179 q 295 -114 268 -140 q 363 -87 322 -87 q 429 -114 403 -87 q 456 -179 456 -140 q 429 -247 456 -219 q 363 -275 403 -275 q 295 -247 322 -275 q 268 -179 268 -219 z "},"ḷ":{"ha":374,"x_min":85,"x_max":288,"o":"m 85 0 l 85 993 l 288 993 l 288 0 l 85 0 m 93 -179 q 120 -114 93 -140 q 188 -87 147 -87 q 254 -114 228 -87 q 281 -179 281 -140 q 254 -247 281 -219 q 188 -275 228 -275 q 120 -247 147 -275 q 93 -179 93 -219 z "},"Ḹ":{"ha":656,"x_min":92,"x_max":649,"o":"m 92 875 l 303 875 l 303 164 l 649 164 l 649 0 l 92 0 l 92 875 m 268 -169 q 295 -104 268 -131 q 363 -78 322 -78 q 429 -104 403 -78 q 456 -169 456 -131 q 429 -237 456 -210 q 363 -265 403 -265 q 295 -237 322 -265 q 268 -169 268 -210 m 508 1072 l 508 958 l 147 958 l 147 1072 l 508 1072 z "},"ḹ":{"ha":374,"x_min":7,"x_max":368,"o":"m 85 0 l 85 993 l 288 993 l 288 0 l 85 0 m 93 -179 q 120 -114 93 -140 q 188 -87 147 -87 q 254 -114 228 -87 q 281 -179 281 -140 q 254 -247 281 -219 q 188 -275 228 -275 q 120 -247 147 -275 q 93 -179 93 -219 m 368 1185 l 368 1071 l 7 1071 l 7 1185 l 368 1185 z "},"Ḻ":{"ha":656,"x_min":92,"x_max":649,"o":"m 92 875 l 303 875 l 303 164 l 649 164 l 649 0 l 92 0 l 92 875 m 547 -87 l 547 -201 l 186 -201 l 186 -87 l 547 -87 z "},"ḻ":{"ha":374,"x_min":7,"x_max":368,"o":"m 85 0 l 85 993 l 288 993 l 288 0 l 85 0 m 368 -89 l 368 -203 l 7 -203 l 7 -89 l 368 -89 z "},"Ṃ":{"ha":1168,"x_min":89,"x_max":1079,"o":"m 149 875 l 413 875 l 507 568 q 527 503 517 540 q 548 427 538 467 q 567 347 558 388 q 582 272 576 307 l 589 272 q 605 353 594 310 q 626 438 615 397 q 646 514 636 479 q 661 568 656 549 l 753 875 l 1017 875 l 1079 0 l 882 0 l 867 296 q 863 387 864 338 q 860 488 861 436 q 860 589 860 539 q 860 681 860 639 l 856 681 q 834 586 846 635 q 810 490 822 538 q 785 397 797 442 q 760 314 772 351 l 663 0 l 504 0 l 403 313 q 378 397 390 351 q 353 490 365 442 q 331 586 342 538 q 311 681 319 635 l 307 681 q 308 584 308 636 q 306 480 307 532 q 302 380 304 428 q 299 296 300 332 l 283 0 l 89 0 l 149 875 m 490 -179 q 517 -114 490 -140 q 585 -87 544 -87 q 651 -114 625 -87 q 678 -179 678 -140 q 651 -247 678 -219 q 585 -275 625 -275 q 517 -247 544 -275 q 490 -179 490 -219 z "},"ṃ":{"ha":1200,"x_min":81,"x_max":1119,"o":"m 286 0 l 81 0 l 81 667 l 240 667 l 264 583 q 361 656 308 629 q 479 682 414 682 q 675 581 622 682 q 776 654 719 626 q 896 682 832 682 q 1061 624 1003 682 q 1119 456 1119 567 l 1119 0 l 914 0 l 914 435 q 892 501 914 476 q 832 526 869 526 q 763 510 799 526 q 703 461 726 493 l 703 0 l 497 0 l 497 435 q 475 501 497 476 q 415 526 453 526 q 346 507 382 526 q 286 456 310 488 l 286 0 m 506 -179 q 533 -114 506 -140 q 600 -87 560 -87 q 667 -114 640 -87 q 693 -179 693 -140 q 667 -247 693 -219 q 600 -275 640 -275 q 533 -247 560 -275 q 506 -179 506 -219 z "},"Ṅ":{"ha":931,"x_min":92,"x_max":839,"o":"m 92 875 l 286 875 l 478 582 q 577 420 529 503 q 651 271 625 338 l 654 271 q 646 438 647 354 q 644 606 644 522 l 644 875 l 839 875 l 839 0 l 644 0 l 442 299 q 350 449 392 372 q 279 610 308 525 l 276 610 q 285 442 283 522 q 286 278 286 361 l 286 0 l 92 0 l 92 875 m 371 1038 q 398 1103 371 1076 q 465 1129 425 1129 q 532 1103 506 1129 q 558 1038 558 1076 q 532 969 558 997 q 465 942 506 942 q 398 969 425 942 q 371 1038 371 997 z "},"ṅ":{"ha":797,"x_min":81,"x_max":717,"o":"m 286 0 l 81 0 l 81 667 l 240 667 l 264 583 q 364 656 308 629 q 485 682 419 682 q 657 621 597 682 q 717 442 717 560 l 717 0 l 511 0 l 511 421 q 488 498 511 469 q 421 526 465 526 q 351 507 388 526 q 286 456 314 488 l 286 0 m 304 867 q 331 932 304 906 q 399 958 358 958 q 465 932 439 958 q 492 867 492 906 q 465 799 492 826 q 399 771 439 771 q 331 799 358 771 q 304 867 304 826 z "},"Ṇ":{"ha":931,"x_min":92,"x_max":839,"o":"m 92 875 l 286 875 l 478 582 q 577 420 529 503 q 651 271 625 338 l 654 271 q 646 438 647 354 q 644 606 644 522 l 644 875 l 839 875 l 839 0 l 644 0 l 442 299 q 350 449 392 372 q 279 610 308 525 l 276 610 q 285 442 283 522 q 286 278 286 361 l 286 0 l 92 0 l 92 875 m 371 -179 q 398 -114 371 -140 q 465 -87 425 -87 q 532 -114 506 -87 q 558 -179 558 -140 q 532 -247 558 -219 q 465 -275 506 -275 q 398 -247 425 -275 q 371 -179 371 -219 z "},"ṇ":{"ha":797,"x_min":81,"x_max":717,"o":"m 286 0 l 81 0 l 81 667 l 240 667 l 264 583 q 364 656 308 629 q 485 682 419 682 q 657 621 597 682 q 717 442 717 560 l 717 0 l 511 0 l 511 421 q 488 498 511 469 q 421 526 465 526 q 351 507 388 526 q 286 456 314 488 l 286 0 m 304 -179 q 331 -114 304 -140 q 399 -87 358 -87 q 465 -114 439 -87 q 492 -179 492 -140 q 465 -247 492 -219 q 399 -275 439 -275 q 331 -247 358 -275 q 304 -179 304 -219 z "},"Ṉ":{"ha":931,"x_min":92,"x_max":839,"o":"m 92 875 l 286 875 l 478 582 q 577 420 529 503 q 651 271 625 338 l 654 271 q 646 438 647 354 q 644 606 644 522 l 644 875 l 839 875 l 839 0 l 644 0 l 442 299 q 350 449 392 372 q 279 610 308 525 l 276 610 q 285 442 283 522 q 286 278 286 361 l 286 0 l 92 0 l 92 875 m 649 -87 l 649 -201 l 288 -201 l 288 -87 l 649 -87 z "},"ṉ":{"ha":797,"x_min":81,"x_max":717,"o":"m 286 0 l 81 0 l 81 667 l 240 667 l 264 583 q 364 656 308 629 q 485 682 419 682 q 657 621 597 682 q 717 442 717 560 l 717 0 l 511 0 l 511 421 q 488 498 511 469 q 421 526 465 526 q 351 507 388 526 q 286 456 314 488 l 286 0 m 578 -87 l 578 -201 l 217 -201 l 217 -87 l 578 -87 z "},"Ṛ":{"ha":810,"x_min":92,"x_max":789,"o":"m 92 875 l 439 875 q 572 853 514 875 q 667 794 629 832 q 725 707 706 757 q 744 600 744 657 q 728 505 744 546 q 688 433 713 464 q 633 383 663 403 q 579 353 604 364 l 789 0 l 546 0 l 390 315 l 303 315 l 303 0 l 92 0 l 92 875 m 303 475 l 367 475 q 483 504 439 475 q 528 599 528 533 q 492 685 528 653 q 388 717 456 717 l 303 717 l 303 475 m 331 -179 q 358 -114 331 -140 q 425 -87 385 -87 q 492 -114 465 -87 q 518 -179 518 -140 q 492 -247 518 -219 q 425 -275 465 -275 q 358 -247 385 -275 q 331 -179 331 -219 z "},"ṛ":{"ha":550,"x_min":81,"x_max":564,"o":"m 81 0 l 81 667 l 242 667 l 263 550 q 293 599 275 575 q 336 642 311 624 q 394 671 361 660 q 467 682 426 682 q 523 674 497 682 q 564 657 549 667 l 531 497 q 492 513 515 506 q 433 519 468 519 q 327 478 369 519 q 285 333 285 436 l 285 0 l 81 0 m 89 -179 q 116 -114 89 -140 q 183 -87 143 -87 q 250 -114 224 -87 q 276 -179 276 -140 q 250 -247 276 -219 q 183 -275 224 -275 q 116 -247 143 -275 q 89 -179 89 -219 z "},"Ṝ":{"ha":810,"x_min":92,"x_max":789,"o":"m 92 875 l 439 875 q 572 853 514 875 q 667 794 629 832 q 725 707 706 757 q 744 600 744 657 q 728 505 744 546 q 688 433 713 464 q 633 383 663 403 q 579 353 604 364 l 789 0 l 546 0 l 390 315 l 303 315 l 303 0 l 92 0 l 92 875 m 303 475 l 367 475 q 483 504 439 475 q 528 599 528 533 q 492 685 528 653 q 388 717 456 717 l 303 717 l 303 475 m 331 -179 q 358 -114 331 -140 q 425 -87 385 -87 q 492 -114 465 -87 q 518 -179 518 -140 q 492 -247 518 -219 q 425 -275 465 -275 q 358 -247 385 -275 q 331 -179 331 -219 m 585 1072 l 585 958 l 224 958 l 224 1072 l 585 1072 z "},"ṝ":{"ha":550,"x_min":81,"x_max":564,"o":"m 81 0 l 81 667 l 242 667 l 263 550 q 293 599 275 575 q 336 642 311 624 q 394 671 361 660 q 467 682 426 682 q 523 674 497 682 q 564 657 549 667 l 531 497 q 492 513 515 506 q 433 519 468 519 q 327 478 369 519 q 285 333 285 436 l 285 0 l 81 0 m 89 -179 q 116 -114 89 -140 q 183 -87 143 -87 q 250 -114 224 -87 q 276 -179 276 -140 q 250 -247 276 -219 q 183 -275 224 -275 q 116 -247 143 -275 q 89 -179 89 -219 m 456 919 l 456 806 l 94 806 l 94 919 l 456 919 z "},"Ṟ":{"ha":810,"x_min":92,"x_max":789,"o":"m 92 875 l 439 875 q 572 853 514 875 q 667 794 629 832 q 725 707 706 757 q 744 600 744 657 q 728 505 744 546 q 688 433 713 464 q 633 383 663 403 q 579 353 604 364 l 789 0 l 546 0 l 390 315 l 303 315 l 303 0 l 92 0 l 92 875 m 303 475 l 367 475 q 483 504 439 475 q 528 599 528 533 q 492 685 528 653 q 388 717 456 717 l 303 717 l 303 475 m 607 -87 l 607 -201 l 246 -201 l 246 -87 l 607 -87 z "},"ṟ":{"ha":550,"x_min":81,"x_max":564,"o":"m 81 0 l 81 667 l 242 667 l 263 550 q 293 599 275 575 q 336 642 311 624 q 394 671 361 660 q 467 682 426 682 q 523 674 497 682 q 564 657 549 667 l 531 497 q 492 513 515 506 q 433 519 468 519 q 327 478 369 519 q 285 333 285 436 l 285 0 l 81 0 m 475 -87 l 475 -201 l 114 -201 l 114 -87 l 475 -87 z "},"Ṣ":{"ha":760,"x_min":56,"x_max":707,"o":"m 388 892 q 546 873 479 892 q 661 828 613 854 l 614 674 q 505 717 560 701 q 400 733 450 733 q 303 710 336 733 q 269 647 269 686 q 301 583 269 603 q 400 540 333 563 l 482 514 q 572 473 531 497 q 644 417 614 449 q 690 344 674 385 q 707 257 707 304 q 686 152 707 201 q 623 65 665 103 q 516 6 581 28 q 364 -15 451 -15 q 208 2 282 -15 q 71 51 133 19 l 118 206 q 235 160 178 176 q 354 143 292 143 q 460 167 428 143 q 493 233 493 192 q 488 261 493 247 q 466 289 482 275 q 422 316 450 303 q 349 343 393 329 l 281 367 q 190 407 232 385 q 119 460 149 429 q 72 531 89 490 q 56 626 56 571 q 77 732 56 683 q 141 816 99 781 q 245 872 183 851 q 388 892 307 892 m 315 -179 q 342 -114 315 -140 q 410 -87 369 -87 q 476 -114 450 -87 q 503 -179 503 -140 q 476 -247 503 -219 q 410 -275 450 -275 q 342 -247 369 -275 q 315 -179 315 -219 z "},"ṣ":{"ha":617,"x_min":49,"x_max":569,"o":"m 492 496 q 413 524 454 514 q 332 535 371 535 q 274 522 296 535 q 251 488 251 510 q 273 448 251 464 q 358 414 294 432 l 400 401 q 526 328 483 376 q 569 206 569 281 q 549 115 569 156 q 490 44 528 74 q 398 0 451 15 q 279 -15 344 -15 q 153 -3 208 -15 q 51 33 99 10 l 96 182 q 180 148 136 161 q 269 135 224 135 q 344 150 322 135 q 365 186 365 165 q 360 208 365 199 q 343 225 356 217 q 308 241 331 233 q 249 260 285 249 l 206 272 q 86 345 124 299 q 49 471 49 392 q 67 555 49 517 q 119 622 85 593 q 202 666 153 650 q 315 682 251 682 q 434 670 379 682 q 533 638 489 658 l 492 496 m 239 -179 q 266 -114 239 -140 q 333 -87 293 -87 q 400 -114 374 -87 q 426 -179 426 -140 q 400 -247 426 -219 q 333 -275 374 -275 q 266 -247 293 -275 q 239 -179 239 -219 z "},"Ṭ":{"ha":710,"x_min":14,"x_max":697,"o":"m 697 875 l 697 711 l 458 711 l 458 0 l 247 0 l 247 711 l 14 711 l 14 875 l 697 875 m 260 -179 q 287 -114 260 -140 q 354 -87 314 -87 q 421 -114 394 -87 q 447 -179 447 -140 q 421 -247 447 -219 q 354 -275 394 -275 q 287 -247 314 -275 q 260 -179 260 -219 z "},"ṭ":{"ha":539,"x_min":14,"x_max":528,"o":"m 493 519 l 322 519 l 322 238 q 342 174 322 192 q 399 156 363 156 q 454 161 426 156 q 497 176 482 167 l 528 36 q 456 12 504 24 q 354 0 408 0 q 172 50 225 0 q 118 201 118 100 l 118 519 l 14 519 l 14 667 l 118 667 l 118 869 l 322 869 l 322 667 l 493 667 l 493 519 m 228 -179 q 255 -114 228 -140 q 322 -87 282 -87 q 389 -114 363 -87 q 415 -179 415 -140 q 389 -247 415 -219 q 322 -275 363 -275 q 255 -247 282 -275 q 228 -179 228 -219 z "},"Ṯ":{"ha":710,"x_min":14,"x_max":697,"o":"m 697 875 l 697 711 l 458 711 l 458 0 l 247 0 l 247 711 l 14 711 l 14 875 l 697 875 m 533 -87 l 533 -201 l 172 -201 l 172 -87 l 533 -87 z "},"ṯ":{"ha":539,"x_min":14,"x_max":528,"o":"m 493 519 l 322 519 l 322 238 q 342 174 322 192 q 399 156 363 156 q 454 161 426 156 q 497 176 482 167 l 528 36 q 456 12 504 24 q 354 0 408 0 q 172 50 225 0 q 118 201 118 100 l 118 519 l 14 519 l 14 667 l 118 667 l 118 869 l 322 869 l 322 667 l 493 667 l 493 519 m 500 -87 l 500 -201 l 139 -201 l 139 -87 l 500 -87 z "},"Ẏ":{"ha":846,"x_min":13,"x_max":836,"o":"m 250 875 l 426 553 l 604 875 l 836 875 l 526 360 l 526 0 l 315 0 l 315 360 l 13 875 l 250 875 m 329 1038 q 356 1103 329 1076 q 424 1129 383 1129 q 490 1103 464 1129 q 517 1038 517 1076 q 490 969 517 997 q 424 942 464 942 q 356 969 383 942 q 329 1038 329 997 z "},"ẏ":{"ha":750,"x_min":10,"x_max":742,"o":"m 10 667 l 235 667 l 344 369 l 389 207 l 394 207 l 436 372 l 532 667 l 742 667 l 501 -12 q 456 -124 482 -69 q 391 -225 429 -178 q 299 -311 353 -272 q 168 -375 244 -350 l 83 -215 q 219 -132 165 -186 q 290 -7 272 -78 l 293 4 l 10 667 m 281 867 q 308 932 281 906 q 375 958 335 958 q 442 932 415 958 q 468 867 468 906 q 442 799 468 826 q 375 771 415 771 q 308 799 335 771 q 281 867 281 826 z "},"ℓ":{"ha":775,"x_min":36,"x_max":726,"o":"m 726 114 q 608 23 681 61 q 436 -15 535 -15 q 250 47 318 -15 q 182 240 182 110 l 182 265 l 104 213 l 36 332 q 69 355 50 342 q 109 382 89 368 q 148 409 129 396 q 179 433 167 422 l 179 682 q 198 821 179 761 q 251 920 217 881 q 332 980 285 960 q 435 1000 379 1000 q 528 984 486 1000 q 597 940 569 968 q 640 875 625 913 q 656 794 656 838 q 583 576 656 682 q 382 364 510 471 l 382 254 q 390 199 382 221 q 410 165 397 178 q 438 148 422 153 q 471 143 454 143 q 556 170 519 143 q 625 233 592 197 l 726 114 m 382 551 q 422 606 403 576 q 458 667 442 636 q 483 731 474 699 q 492 792 492 763 q 478 848 492 831 q 446 865 465 865 q 402 834 422 865 q 382 725 382 803 l 382 551 z "},"№":{"ha":1478,"x_min":92,"x_max":1442,"o":"m 975 240 l 975 346 l 1424 346 l 1424 240 l 975 240 m 1196 888 q 1380 821 1318 888 q 1442 649 1442 754 q 1376 478 1442 540 q 1196 415 1311 415 q 1014 478 1078 415 q 950 649 950 540 q 1011 822 950 757 q 1196 888 1072 888 m 1111 650 q 1133 553 1111 588 q 1196 518 1156 518 q 1258 554 1236 518 q 1281 649 1281 590 q 1259 751 1281 715 q 1196 786 1238 786 q 1111 650 1111 786 m 92 875 l 397 875 l 583 424 l 667 174 l 672 174 l 658 453 l 658 875 l 867 875 l 867 0 l 561 0 l 382 435 l 292 707 l 286 707 l 300 403 l 300 0 l 92 0 l 92 875 z "},"Ω":{"ha":1036,"x_min":56,"x_max":981,"o":"m 803 154 l 981 154 l 981 0 l 572 0 l 572 121 q 651 181 611 147 q 722 262 690 215 q 773 368 753 308 q 793 506 793 428 q 774 628 793 571 q 719 728 754 686 q 633 796 683 771 q 521 821 583 821 q 408 799 460 821 q 321 735 357 776 q 265 635 285 693 q 244 504 244 576 q 265 370 244 431 q 316 262 285 310 q 386 178 347 214 q 464 121 425 143 l 464 0 l 56 0 l 56 154 l 231 154 l 231 158 q 169 217 200 183 q 115 294 139 250 q 75 392 90 338 q 60 517 60 447 q 97 710 60 625 q 199 855 135 796 q 347 944 263 914 q 525 975 432 975 q 705 942 622 975 q 848 848 788 908 q 942 704 908 788 q 976 521 976 621 q 960 392 976 449 q 919 291 944 335 q 863 215 893 247 q 803 158 832 182 l 803 154 z "},"∆":{"ha":886,"x_min":56,"x_max":831,"o":"m 56 0 l 56 124 l 350 917 l 540 917 l 831 125 l 831 0 l 56 0 m 493 539 q 481 580 488 554 q 466 633 474 606 q 452 690 458 661 q 442 739 446 718 l 438 739 q 428 690 433 717 q 416 635 422 663 q 402 583 410 608 q 388 536 394 557 l 247 156 l 633 156 l 493 539 z "}," ":{"ha":322,"x_min":0,"x_max":0,"o":""},"­":{"ha":389,"x_min":42,"x_max":347,"o":"m 347 476 l 347 325 l 42 325 l 42 476 l 347 476 z "},"ı":{"ha":397,"x_min":96,"x_max":301,"o":"m 96 0 l 96 667 l 301 667 l 301 0 l 96 0 z "},"Ț":{"ha":710,"x_min":14,"x_max":697,"o":"m 697 875 l 697 711 l 458 711 l 458 0 l 247 0 l 247 711 l 14 711 l 14 875 l 697 875 m 326 -282 q 264 -249 288 -275 q 240 -185 240 -224 q 266 -118 240 -147 q 339 -89 292 -89 q 377 -97 357 -89 q 414 -121 397 -104 q 442 -165 431 -137 q 453 -231 453 -192 q 439 -308 453 -271 q 403 -377 425 -346 q 353 -433 382 -408 q 296 -472 325 -458 l 250 -411 q 315 -359 286 -392 q 350 -286 343 -326 l 326 -282 z "},"ț":{"ha":539,"x_min":14,"x_max":528,"o":"m 493 519 l 322 519 l 322 238 q 342 174 322 192 q 399 156 363 156 q 454 161 426 156 q 497 176 482 167 l 528 36 q 456 12 504 24 q 354 0 408 0 q 172 50 225 0 q 118 201 118 100 l 118 519 l 14 519 l 14 667 l 118 667 l 118 869 l 322 869 l 322 667 l 493 667 l 493 519 m 282 -282 q 219 -249 243 -275 q 196 -185 196 -224 q 222 -118 196 -147 q 294 -89 247 -89 q 333 -97 313 -89 q 369 -121 353 -104 q 397 -165 386 -137 q 408 -231 408 -192 q 394 -308 408 -271 q 359 -377 381 -346 q 309 -433 338 -408 q 251 -472 281 -458 l 206 -411 q 270 -359 242 -392 q 306 -286 299 -326 l 282 -282 z "},"ˉ":{"ha":424,"x_min":28,"x_max":396,"o":"m 396 919 l 396 806 l 28 806 l 28 919 l 396 919 z "},"π":{"ha":1010,"x_min":42,"x_max":968,"o":"m 619 718 l 374 718 l 374 0 l 171 0 l 171 718 l 42 718 l 42 875 l 953 875 l 953 718 l 824 718 l 824 225 q 841 161 824 181 q 899 142 858 142 q 922 143 907 142 q 951 149 936 144 l 968 -1 q 913 -13 935 -11 q 864 -15 892 -15 q 683 44 747 -15 q 619 208 619 103 l 619 718 z "},"℮":{"ha":1135,"x_min":49,"x_max":1086,"o":"m 246 439 q 239 433 239 439 l 239 179 q 251 150 239 164 q 392 49 311 86 q 569 13 474 13 q 755 54 669 13 q 903 167 840 96 l 979 167 q 801 34 908 83 q 568 -15 694 -15 q 367 22 461 -15 q 201 122 272 58 q 90 269 131 185 q 49 451 49 354 q 90 633 49 549 q 201 781 131 718 q 367 881 272 844 q 568 918 461 918 q 769 881 675 918 q 934 781 864 844 q 1045 633 1004 718 q 1086 451 1086 549 l 1086 439 l 246 439 m 897 728 q 883 758 897 744 q 741 856 821 821 q 569 890 661 890 q 394 853 474 890 q 253 754 315 817 q 239 722 239 740 l 239 472 q 246 465 239 465 l 890 465 q 897 472 897 465 l 897 728 z "},"∂":{"ha":819,"x_min":56,"x_max":764,"o":"m 113 942 q 219 992 160 976 q 344 1007 278 1007 q 494 980 419 1007 q 628 892 568 953 q 726 736 689 832 q 764 504 764 640 q 731 276 764 374 q 644 113 699 178 q 517 17 589 49 q 365 -15 444 -15 q 228 11 286 -15 q 131 81 169 38 q 74 180 93 125 q 56 293 56 235 q 79 432 56 369 q 143 538 103 494 q 239 606 183 582 q 358 631 294 631 q 479 602 429 631 q 560 535 529 574 q 561 547 561 539 q 544 662 561 607 q 498 758 528 717 q 425 825 468 800 q 328 850 382 850 q 249 838 283 850 q 186 808 215 826 l 113 942 m 367 140 q 434 160 403 140 q 490 215 465 181 q 529 295 514 249 q 549 394 544 342 q 529 419 542 404 q 499 447 517 433 q 457 469 481 460 q 406 478 433 478 q 303 431 346 478 q 261 296 261 385 q 290 181 261 222 q 367 140 318 140 z "},"∏":{"ha":925,"x_min":14,"x_max":911,"o":"m 782 718 l 782 -153 l 583 -153 l 583 718 l 342 718 l 342 -153 l 143 -153 l 143 718 l 14 718 l 14 875 l 911 875 l 911 718 l 782 718 z "},"∑":{"ha":704,"x_min":13,"x_max":729,"o":"m 13 -114 l 13 15 l 317 399 l 31 779 l 31 917 l 699 917 l 699 760 l 267 760 l 536 401 l 253 43 l 729 43 l 729 -114 l 13 -114 z "},"√":{"ha":838,"x_min":28,"x_max":883,"o":"m 536 -132 l 393 -132 l 156 431 l 64 392 l 28 483 l 231 567 l 424 103 q 443 45 435 78 q 457 -12 451 13 l 460 -12 q 470 42 464 11 q 485 104 476 74 l 764 1149 l 883 1149 l 536 -132 z "},"∞":{"ha":1031,"x_min":42,"x_max":989,"o":"m 765 142 q 692 153 726 142 q 627 186 658 165 q 568 233 596 207 q 515 289 540 260 q 464 233 490 260 q 406 186 438 207 q 339 153 375 165 q 260 142 303 142 q 173 158 213 142 q 104 205 133 175 q 58 276 75 235 q 42 367 42 318 q 58 458 42 417 q 106 528 75 499 q 178 575 136 558 q 268 592 219 592 q 341 579 307 592 q 405 546 375 567 q 462 499 435 525 q 515 443 489 472 q 568 499 540 472 q 627 547 596 526 q 694 579 658 567 q 774 592 731 592 q 860 574 821 592 q 928 526 900 557 q 973 456 957 496 q 989 368 989 415 q 972 283 989 324 q 926 210 956 242 q 855 160 896 179 q 765 142 814 142 m 751 265 q 821 294 792 265 q 850 368 850 322 q 821 442 850 415 q 753 468 792 468 q 668 438 707 468 q 599 368 629 408 q 667 296 631 326 q 751 265 704 265 m 278 265 q 364 296 324 265 q 432 367 404 326 q 399 403 415 385 q 365 435 383 421 q 327 459 347 450 q 282 468 307 468 q 211 440 242 468 q 181 367 181 413 q 209 294 181 324 q 278 265 238 265 z "},"∫":{"ha":578,"x_min":14,"x_max":574,"o":"m 538 951 q 510 963 525 958 q 475 967 494 967 q 403 936 428 967 q 381 828 378 906 l 397 111 q 335 -128 400 -49 q 129 -208 271 -208 q 96 -206 114 -208 q 62 -198 78 -203 q 33 -188 46 -193 q 14 -179 19 -183 l 60 -57 q 114 -68 82 -68 q 165 -54 144 -68 q 198 -15 186 -40 q 215 44 210 10 q 218 119 219 78 l 201 822 q 261 1031 199 957 q 446 1104 324 1104 q 524 1094 490 1104 q 574 1075 558 1085 l 538 951 z "},"≈":{"ha":957,"x_min":32,"x_max":940,"o":"m 32 515 q 153 643 88 604 q 304 682 219 682 q 408 666 360 682 q 499 631 456 650 q 585 597 543 613 q 671 582 626 582 q 761 606 724 582 q 839 682 799 629 l 940 593 q 828 468 896 507 q 686 429 761 429 q 578 445 628 429 q 483 480 528 461 q 394 515 438 499 q 303 531 350 531 q 214 510 253 531 q 129 432 175 490 l 32 515 m 32 188 q 153 315 88 276 q 304 354 219 354 q 408 338 360 354 q 499 303 456 322 q 585 269 543 285 q 671 254 626 254 q 761 278 724 254 q 839 354 799 301 l 940 265 q 828 140 896 179 q 686 101 761 101 q 578 117 628 101 q 483 152 528 133 q 394 187 438 171 q 303 203 350 203 q 214 183 253 203 q 129 104 175 163 l 32 188 z "},"≠":{"ha":685,"x_min":56,"x_max":629,"o":"m 203 0 l 85 0 l 201 264 l 56 264 l 56 379 l 253 379 l 300 485 l 56 485 l 56 600 l 351 600 l 474 875 l 592 875 l 469 600 l 629 600 l 629 485 l 418 485 l 371 379 l 629 379 l 629 264 l 319 264 l 203 0 z "},"◊":{"ha":767,"x_min":42,"x_max":725,"o":"m 458 -71 l 307 -71 l 42 424 l 307 917 l 458 917 l 725 424 l 458 -71 m 397 739 l 382 774 l 365 739 l 201 425 l 369 104 l 385 69 l 400 104 l 564 421 l 397 739 z "},"µ":{"ha":790,"x_min":81,"x_max":710,"o":"m 504 667 l 710 667 l 710 0 l 558 0 l 538 72 l 532 72 q 503 43 519 58 q 463 15 486 28 q 408 -7 440 1 q 335 -15 376 -15 q 297 -11 315 -15 q 263 0 278 -7 l 286 -101 l 286 -226 l 81 -226 l 81 667 l 286 667 l 286 238 q 312 162 286 186 q 378 138 338 138 q 458 158 426 138 q 504 200 489 178 l 504 667 z "},"∕":{"ha":642,"x_min":-24,"x_max":665,"o":"m -24 -15 l 547 892 l 665 892 l 94 -15 l -24 -15 z "}}}
